Monoto-Condensed.ufo
<glyph name="dollar" format="2">
  <advance width="300"/>
  <unicode hex="0024"/>
  <outline>
    <contour>
      <point x="138" y="-58" type="line"/>
      <point x="170" y="-58" type="line"/>
      <point x="170" y="40" type="line"/>
      <point x="228" y="55"/>
      <point x="262" y="119"/>
      <point x="262" y="210" type="curve" smooth="yes"/>
      <point x="262" y="301"/>
      <point x="232" y="346"/>
      <point x="170" y="390" type="curve"/>
      <point x="170" y="622" type="line"/>
      <point x="192" y="619"/>
      <point x="215" y="610"/>
      <point x="237" y="592" type="curve"/>
      <point x="252" y="653" type="line"/>
      <point x="226" y="674"/>
      <point x="198" y="685"/>
      <point x="170" y="688" type="curve"/>
      <point x="170" y="760" type="line"/>
      <point x="138" y="760" type="line"/>
      <point x="138" y="686" type="line"/>
      <point x="83" y="677"/>
      <point x="45" y="615"/>
      <point x="45" y="523" type="curve" smooth="yes"/>
      <point x="45" y="429"/>
      <point x="77" y="381"/>
      <point x="138" y="337" type="curve"/>
      <point x="138" y="100" type="line"/>
      <point x="107" y="102"/>
      <point x="73" y="120"/>
      <point x="48" y="142" type="curve"/>
      <point x="48" y="69" type="line"/>
      <point x="73" y="50"/>
      <point x="106" y="37"/>
      <point x="138" y="36" type="curve"/>
    </contour>
    <contour>
      <point x="170" y="104" type="curve"/>
      <point x="170" y="318" type="line"/>
      <point x="195" y="290"/>
      <point x="209" y="260"/>
      <point x="209" y="205" type="curve" smooth="yes"/>
      <point x="209" y="154"/>
      <point x="196" y="115"/>
    </contour>
    <contour>
      <point x="138" y="410" type="line"/>
      <point x="112" y="440"/>
      <point x="99" y="465"/>
      <point x="99" y="524" type="curve" smooth="yes"/>
      <point x="99" y="577"/>
      <point x="112" y="614"/>
      <point x="138" y="621" type="curve"/>
    </contour>
  </outline>
</glyph>
<glyph name="percent" format="2">
  <advance width="300"/>
  <unicode hex="0025"/>
  <outline>
    <contour>
      <point x="14" y="168" type="line"/>
      <point x="71" y="168" type="line"/>
      <point x="284" y="545" type="line"/>
      <point x="228" y="545" type="line"/>
    </contour>
    <contour>
      <point x="212" y="-9" type="curve" smooth="yes"/>
      <point x="262" y="-9"/>
      <point x="290" y="54"/>
      <point x="290" y="161" type="curve" smooth="yes"/>
      <point x="290" y="268"/>
      <point x="262" y="330"/>
      <point x="212" y="330" type="curve" smooth="yes"/>
      <point x="162" y="330"/>
      <point x="135" y="268"/>
      <point x="135" y="161" type="curve" smooth="yes"/>
      <point x="135" y="54"/>
      <point x="163" y="-9"/>
    </contour>
    <contour>
      <point x="213" y="41" type="curve" smooth="yes"/>
      <point x="194" y="41"/>
      <point x="186" y="83"/>
      <point x="186" y="161" type="curve" smooth="yes"/>
      <point x="186" y="240"/>
      <point x="194" y="279"/>
      <point x="213" y="279" type="curve" smooth="yes"/>
      <point x="231" y="279"/>
      <point x="238" y="239"/>
      <point x="238" y="161" type="curve" smooth="yes"/>
      <point x="238" y="82"/>
      <point x="231" y="41"/>
    </contour>
    <contour>
      <point x="87" y="383" type="curve" smooth="yes"/>
      <point x="137" y="383"/>
      <point x="165" y="446"/>
      <point x="165" y="553" type="curve" smooth="yes"/>
      <point x="165" y="660"/>
      <point x="137" y="722"/>
      <point x="87" y="722" type="curve" smooth="yes"/>
      <point x="37" y="722"/>
      <point x="10" y="660"/>
      <point x="10" y="553" type="curve" smooth="yes"/>
      <point x="10" y="446"/>
      <point x="38" y="383"/>
    </contour>
    <contour>
      <point x="88" y="433" type="curve" smooth="yes"/>
      <point x="69" y="433"/>
      <point x="62" y="475"/>
      <point x="62" y="553" type="curve" smooth="yes"/>
      <point x="62" y="632"/>
      <point x="69" y="671"/>
      <point x="88" y="671" type="curve" smooth="yes"/>
      <point x="106" y="671"/>
      <point x="113" y="631"/>
      <point x="113" y="553" type="curve" smooth="yes"/>
      <point x="113" y="474"/>
      <point x="106" y="433"/>
    </contour>
  </outline>
</glyph>
<glyph name="parenleft" format="2">
  <advance width="300"/>
  <unicode hex="0028"/>
  <outline>
    <contour>
      <point x="172" y="-163" type="curve"/>
      <point x="232" y="-163" type="line"/>
      <point x="184" y="-40"/>
      <point x="159" y="115"/>
      <point x="159" y="272" type="curve" smooth="yes"/>
      <point x="159" y="431"/>
      <point x="182" y="584"/>
      <point x="232" y="714" type="curve"/>
      <point x="172" y="714" type="line"/>
      <point x="126" y="599"/>
      <point x="95" y="441"/>
      <point x="95" y="271" type="curve" smooth="yes"/>
      <point x="95" y="104"/>
      <point x="124" y="-50"/>
    </contour>
  </outline>
</glyph>
<glyph name="asterisk" format="2">
  <advance width="300"/>
  <unicode hex="002A"/>
  <outline>
    <contour>
      <point x="190" y="428" type="line"/>
      <point x="240" y="467" type="line"/>
      <point x="185" y="580" type="line"/>
      <point x="260" y="593" type="line"/>
      <point x="246" y="665" type="line"/>
      <point x="172" y="628" type="line"/>
      <point x="180" y="761" type="line"/>
      <point x="118" y="761" type="line"/>
      <point x="127" y="628" type="line"/>
      <point x="52" y="664" type="line"/>
      <point x="38" y="592" type="line"/>
      <point x="114" y="580" type="line"/>
      <point x="59" y="467" type="line"/>
      <point x="108" y="428" type="line"/>
      <point x="149" y="552" type="line"/>
    </contour>
  </outline>
</glyph>
<glyph name="comma" format="2">
  <advance width="300"/>
  <unicode hex="002C"/>
  <outline>
    <contour>
      <point x="102" y="-131" type="curve"/>
      <point x="156" y="-131" type="line"/>
      <point x="172" y="-59"/>
      <point x="185" y="27"/>
      <point x="194" y="104" type="curve"/>
      <point x="191" y="115" type="line"/>
      <point x="126" y="115" type="line"/>
      <point x="122" y="44"/>
      <point x="112" y="-50"/>
    </contour>
  </outline>
</glyph>
<glyph name="hyphen" format="2">
  <advance width="300"/>
  <unicode hex="002D"/>
  <outline>
    <contour>
      <point x="80" y="235" type="line"/>
      <point x="220" y="235" type="line"/>
      <point x="220" y="308" type="line"/>
      <point x="80" y="308" type="line"/>
    </contour>
  </outline>
</glyph>
<glyph name="one" format="2">
  <advance width="300"/>
  <unicode hex="0031"/>
  <outline>
    <contour>
      <point x="125" y="0" type="line"/>
      <point x="197" y="0" type="line"/>
      <point x="197" y="714" type="line"/>
      <point x="137" y="714" type="line"/>
      <point x="30" y="601" type="line"/>
      <point x="64" y="542" type="line"/>
      <point x="98" y="590" type="line" smooth="yes"/>
      <point x="109" y="605"/>
      <point x="117" y="613"/>
      <point x="126" y="630" type="curve"/>
      <point x="125" y="587"/>
      <point x="125" y="514"/>
      <point x="125" y="459" type="curve" smooth="yes"/>
    </contour>
    <contour>
      <point x="53" y="0" type="line"/>
      <point x="264" y="0" type="line"/>
      <point x="264" y="55" type="line"/>
      <point x="196" y="65" type="line"/>
      <point x="125" y="65" type="line"/>
      <point x="53" y="55" type="line"/>
    </contour>
  </outline>
</glyph>
<glyph name="three" format="2">
  <advance width="300"/>
  <unicode hex="0033"/>
  <outline>
    <contour>
      <point x="128" y="-10" type="curve" smooth="yes"/>
      <point x="216" y="-10"/>
      <point x="264" y="77"/>
      <point x="264" y="200" type="curve" smooth="yes"/>
      <point x="264" y="298"/>
      <point x="237" y="359"/>
      <point x="185" y="373" type="curve"/>
      <point x="185" y="376" type="line"/>
      <point x="229" y="391"/>
      <point x="255" y="457"/>
      <point x="255" y="545" type="curve" smooth="yes"/>
      <point x="255" y="652"/>
      <point x="214" y="724"/>
      <point x="144" y="724" type="curve" smooth="yes"/>
      <point x="100" y="724"/>
      <point x="65" y="701"/>
      <point x="36" y="662" type="curve"/>
      <point x="64" y="605" type="line"/>
      <point x="88" y="638"/>
      <point x="110" y="656"/>
      <point x="134" y="656" type="curve" smooth="yes"/>
      <point x="165" y="656"/>
      <point x="182" y="614"/>
      <point x="182" y="543" type="curve" smooth="yes"/>
      <point x="182" y="459"/>
      <point x="155" y="403"/>
      <point x="108" y="403" type="curve" smooth="yes"/>
      <point x="84" y="403" type="line"/>
      <point x="84" y="335" type="line"/>
      <point x="107" y="335" type="line" smooth="yes"/>
      <point x="160" y="335"/>
      <point x="185" y="296"/>
      <point x="185" y="202" type="curve" smooth="yes"/>
      <point x="185" y="115"/>
      <point x="165" y="59"/>
      <point x="122" y="59" type="curve" smooth="yes"/>
      <point x="93" y="59"/>
      <point x="62" y="76"/>
      <point x="35" y="105" type="curve"/>
      <point x="35" y="29" type="line"/>
      <point x="68" y="0"/>
      <point x="98" y="-10"/>
    </contour>
  </outline>
</glyph>
<glyph name="six" format="2">
  <advance width="300"/>
  <unicode hex="0036"/>
  <outline>
    <contour>
      <point x="153" y="-10" type="curve" smooth="yes"/>
      <point x="225" y="-10"/>
      <point x="266" y="82"/>
      <point x="266" y="227" type="curve" smooth="yes"/>
      <point x="266" y="365"/>
      <point x="232" y="446"/>
      <point x="175" y="446" type="curve" smooth="yes"/>
      <point x="140" y="446"/>
      <point x="117" y="408"/>
      <point x="105" y="360" type="curve"/>
      <point x="103" y="360" type="line"/>
      <point x="105" y="526"/>
      <point x="136" y="657"/>
      <point x="199" y="657" type="curve" smooth="yes"/>
      <point x="216" y="657"/>
      <point x="232" y="653"/>
      <point x="246" y="645" type="curve"/>
      <point x="246" y="715" type="line"/>
      <point x="229" y="721"/>
      <point x="211" y="724"/>
      <point x="193" y="724" type="curve" smooth="yes"/>
      <point x="71" y="724"/>
      <point x="33" y="536"/>
      <point x="33" y="311" type="curve" smooth="yes"/>
      <point x="33" y="90"/>
      <point x="77" y="-10"/>
    </contour>
    <contour>
      <point x="152" y="58" type="curve" smooth="yes"/>
      <point x="121" y="58"/>
      <point x="109" y="161"/>
      <point x="109" y="239" type="curve" smooth="yes"/>
      <point x="109" y="319"/>
      <point x="127" y="381"/>
      <point x="153" y="381" type="curve" smooth="yes"/>
      <point x="180" y="381"/>
      <point x="192" y="323"/>
      <point x="192" y="225" type="curve" smooth="yes"/>
      <point x="192" y="115"/>
      <point x="176" y="58"/>
    </contour>
  </outline>
</glyph>
<glyph name="seven" format="2">
  <advance width="300"/>
  <unicode hex="0037"/>
  <outline>
    <contour>
      <point x="66" y="0" type="line"/>
      <point x="145" y="0" type="line"/>
      <point x="263" y="649" type="line"/>
      <point x="263" y="714" type="line"/>
      <point x="33" y="714" type="line"/>
      <point x="33" y="640" type="line"/>
      <point x="186" y="640" type="line"/>
    </contour>
  </outline>
</glyph>
<glyph name="equal" format="2">
  <advance width="300"/>
  <unicode hex="003D"/>
  <outline>
    <contour>
      <point x="38" y="418" type="line"/>
      <point x="262" y="418" type="line"/>
      <point x="262" y="491" type="line"/>
      <point x="38" y="491" type="line"/>
    </contour>
    <contour>
      <point x="38" y="213" type="line"/>
      <point x="262" y="213" type="line"/>
      <point x="262" y="286" type="line"/>
      <point x="38" y="286" type="line"/>
    </contour>
  </outline>
</glyph>
<glyph name="greater" format="2">
  <advance width="300"/>
  <unicode hex="003E"/>
  <outline>
    <contour>
      <point x="34" y="133" type="line"/>
      <point x="265" y="334" type="line"/>
      <point x="265" y="379" type="line"/>
      <point x="34" y="577" type="line"/>
      <point x="34" y="504" type="line"/>
      <point x="188" y="356" type="line"/>
      <point x="34" y="206" type="line"/>
    </contour>
  </outline>
</glyph>
<glyph name="at" format="2">
  <advance width="300"/>
  <unicode hex="0040"/>
  <outline>
    <contour>
      <point x="157" y="-89" type="curve" smooth="yes"/>
      <point x="182" y="-89"/>
      <point x="212" y="-76"/>
      <point x="236" y="-49" type="curve"/>
      <point x="236" y="3" type="line"/>
      <point x="208" y="-22"/>
      <point x="181" y="-35"/>
      <point x="158" y="-35" type="curve" smooth="yes"/>
      <point x="83" y="-35"/>
      <point x="52" y="86"/>
      <point x="52" y="297" type="curve" smooth="yes"/>
      <point x="52" y="525"/>
      <point x="99" y="661"/>
      <point x="159" y="661" type="curve" smooth="yes"/>
      <point x="215" y="661"/>
      <point x="248" y="544"/>
      <point x="248" y="358" type="curve" smooth="yes"/>
      <point x="248" y="231"/>
      <point x="242" y="159"/>
      <point x="226" y="159" type="curve" smooth="yes"/>
      <point x="216" y="159"/>
      <point x="214" y="192"/>
      <point x="214" y="256" type="curve" smooth="yes"/>
      <point x="214" y="268"/>
      <point x="214" y="285"/>
      <point x="214" y="298" type="curve" smooth="yes"/>
      <point x="219" y="497" type="line"/>
      <point x="203" y="508"/>
      <point x="184" y="519"/>
      <point x="166" y="519" type="curve" smooth="yes"/>
      <point x="113" y="519"/>
      <point x="79" y="430"/>
      <point x="79" y="295" type="curve" smooth="yes"/>
      <point x="79" y="180"/>
      <point x="101" y="109"/>
      <point x="138" y="109" type="curve" smooth="yes"/>
      <point x="156" y="109"/>
      <point x="173" y="138"/>
      <point x="181" y="190" type="curve"/>
      <point x="183" y="189" type="line"/>
      <point x="189" y="141"/>
      <point x="204" y="109"/>
      <point x="225" y="109" type="curve" smooth="yes"/>
      <point x="269" y="109"/>
      <point x="290" y="233"/>
      <point x="290" y="357" type="curve" smooth="yes"/>
      <point x="290" y="576"/>
      <point x="240" y="714"/>
      <point x="158" y="714" type="curve" smooth="yes"/>
      <point x="71" y="714"/>
      <point x="10" y="555"/>
      <point x="10" y="294" type="curve" smooth="yes"/>
      <point x="10" y="54"/>
      <point x="58" y="-89"/>
    </contour>
    <contour>
      <point x="147" y="159" type="curve" smooth="yes"/>
      <point x="132" y="159"/>
      <point x="124" y="207"/>
      <point x="124" y="293" type="curve" smooth="yes"/>
      <point x="124" y="402"/>
      <point x="139" y="469"/>
      <point x="162" y="469" type="curve" smooth="yes"/>
      <point x="167" y="469"/>
      <point x="171" y="466"/>
      <point x="175" y="458" type="curve"/>
      <point x="172" y="323" type="line" smooth="yes"/>
      <point x="169" y="213"/>
      <point x="162" y="159"/>
    </contour>
  </outline>
</glyph>
<glyph name="E" format="2">
  <advance width="300"/>
  <unicode hex="0045"/>
  <anchor x="152" y="0" name="bottom"/>
  <anchor x="225" y="10" name="ogonek"/>
  <anchor x="151" y="714" name="top"/>
  <anchor x="21" y="714" name="topleft"/>
  <anchor x="278" y="714" name="topright"/>
  <outline>
    <contour>
      <point x="41" y="0" type="line"/>
      <point x="260" y="0" type="line"/>
      <point x="260" y="73" type="line"/>
      <point x="111" y="73" type="line"/>
      <point x="111" y="334" type="line"/>
      <point x="251" y="334" type="line"/>
      <point x="251" y="407" type="line"/>
      <point x="111" y="407" type="line"/>
      <point x="111" y="641" type="line"/>
      <point x="260" y="641" type="line"/>
      <point x="260" y="714" type="line"/>
      <point x="41" y="714" type="line"/>
    </contour>
  </outline>
</glyph>
<glyph name="H" format="2">
  <advance width="300"/>
  <unicode hex="0048"/>
  <anchor x="150" y="0" name="bottom"/>
  <anchor x="150" y="370" name="center"/>
  <anchor x="150" y="714" name="top"/>
  <anchor x="21" y="714" name="topleft"/>
  <anchor x="289" y="714" name="topright"/>
  <outline>
    <contour>
      <point x="29" y="0" type="line"/>
      <point x="98" y="0" type="line"/>
      <point x="98" y="333" type="line"/>
      <point x="201" y="333" type="line"/>
      <point x="201" y="0" type="line"/>
      <point x="270" y="0" type="line"/>
      <point x="270" y="714" type="line"/>
      <point x="201" y="714" type="line"/>
      <point x="201" y="406" type="line"/>
      <point x="98" y="406" type="line"/>
      <point x="98" y="714" type="line"/>
      <point x="29" y="714" type="line"/>
    </contour>
  </outline>
</glyph>
<glyph name="J" format="2">
  <advance width="300"/>
  <unicode hex="004A"/>
  <anchor x="150" y="0" name="bottom"/>
  <anchor x="206" y="714" name="top"/>
  <anchor x="278" y="714" name="topright"/>
  <outline>
    <contour>
      <point x="104" y="-10" type="curve" smooth="yes"/>
      <point x="196" y="-10"/>
      <point x="241" y="77"/>
      <point x="241" y="202" type="curve" smooth="yes"/>
      <point x="241" y="714" type="line"/>
      <point x="173" y="714" type="line"/>
      <point x="173" y="217" type="line" smooth="yes"/>
      <point x="173" y="117"/>
      <point x="143" y="60"/>
      <point x="96" y="60" type="curve" smooth="yes"/>
      <point x="79" y="60"/>
      <point x="58" y="71"/>
      <point x="35" y="91" type="curve"/>
      <point x="35" y="19" type="line"/>
      <point x="56" y="1"/>
      <point x="79" y="-10"/>
    </contour>
  </outline>
</glyph>
<glyph name="K" format="2">
  <advance width="300"/>
  <unicode hex="004B"/>
  <anchor x="151" y="0" name="bottom"/>
  <anchor x="150" y="714" name="top"/>
  <anchor x="278" y="714" name="topright"/>
  <outline>
    <contour>
      <point x="29" y="0" type="line"/>
      <point x="97" y="0" type="line"/>
      <point x="97" y="266" type="line"/>
      <point x="131" y="339" type="line"/>
      <point x="200" y="0" type="line"/>
      <point x="278" y="0" type="line"/>
      <point x="184" y="396" type="line"/>
      <point x="279" y="714" type="line"/>
      <point x="203" y="714" type="line"/>
      <point x="132" y="466" type="line" smooth="yes"/>
      <point x="118" y="417"/>
      <point x="108" y="382"/>
      <point x="97" y="351" type="curve"/>
      <point x="97" y="714" type="line"/>
      <point x="29" y="714" type="line"/>
    </contour>
  </outline>
</glyph>
<glyph name="M" format="2">
  <advance width="300"/>
  <unicode hex="004D"/>
  <anchor x="150" y="0" name="bottom"/>
  <anchor x="152" y="714" name="top"/>
  <anchor x="290" y="714" name="topright"/>
  <outline>
    <contour>
      <point x="20" y="0" type="line"/>
      <point x="80" y="0" type="line"/>
      <point x="79" y="405" type="line" smooth="yes"/>
      <point x="79" y="494"/>
      <point x="70" y="588"/>
      <point x="69" y="647" type="curve"/>
      <point x="74" y="647" type="line"/>
      <point x="116" y="202" type="line"/>
      <point x="186" y="202" type="line"/>
      <point x="229" y="647" type="line"/>
      <point x="233" y="647" type="line"/>
      <point x="232" y="573"/>
      <point x="220" y="486"/>
      <point x="220" y="407" type="curve" smooth="yes"/>
      <point x="219" y="0" type="line"/>
      <point x="280" y="0" type="line"/>
      <point x="280" y="714" type="line"/>
      <point x="186" y="714" type="line"/>
      <point x="152" y="287" type="line"/>
      <point x="151" y="287" type="line"/>
      <point x="116" y="714" type="line"/>
      <point x="20" y="714" type="line"/>
    </contour>
  </outline>
</glyph>
<glyph name="O" format="2">
  <advance width="300"/>
  <unicode hex="004F"/>
  <anchor x="149" y="0" name="bottom"/>
  <anchor x="149" y="357" name="center"/>
  <anchor x="156" y="10" name="ogonek"/>
  <anchor x="149" y="714" name="top"/>
  <anchor x="21" y="714" name="topleft"/>
  <anchor x="289" y="714" name="topright"/>
  <outline>
    <contour>
      <point x="149" y="-10" type="curve" smooth="yes"/>
      <point x="240" y="-10"/>
      <point x="277" y="153"/>
      <point x="277" y="358" type="curve" smooth="yes"/>
      <point x="277" y="564"/>
      <point x="239" y="726"/>
      <point x="149" y="726" type="curve" smooth="yes"/>
      <point x="60" y="726"/>
      <point x="22" y="597"/>
      <point x="22" y="359" type="curve" smooth="yes"/>
      <point x="22" y="158"/>
      <point x="58" y="-10"/>
    </contour>
    <contour>
      <point x="150" y="60" type="curve" smooth="yes"/>
      <point x="108" y="60"/>
      <point x="93" y="165"/>
      <point x="93" y="358" type="curve" smooth="yes"/>
      <point x="93" y="550"/>
      <point x="107" y="656"/>
      <point x="150" y="656" type="curve" smooth="yes"/>
      <point x="192" y="656"/>
      <point x="206" y="552"/>
      <point x="206" y="358" type="curve" smooth="yes"/>
      <point x="206" y="162"/>
      <point x="193" y="60"/>
    </contour>
  </outline>
</glyph>
<glyph name="R" format="2">
  <advance width="300"/>
  <unicode hex="0052"/>
  <anchor x="159" y="0" name="bottom"/>
  <anchor x="150" y="714" name="top"/>
  <anchor x="278" y="714" name="topright"/>
  <outline>
    <contour>
      <point x="41" y="0" type="line"/>
      <point x="110" y="0" type="line"/>
      <point x="110" y="297" type="line"/>
      <point x="147" y="297" type="line"/>
      <point x="206" y="0" type="line"/>
      <point x="283" y="0" type="line"/>
      <point x="208" y="317" type="line"/>
      <point x="248" y="342"/>
      <point x="266" y="400"/>
      <point x="266" y="512" type="curve" smooth="yes"/>
      <point x="266" y="649"/>
      <point x="222" y="714"/>
      <point x="134" y="714" type="curve" smooth="yes"/>
      <point x="41" y="714" type="line"/>
    </contour>
    <contour>
      <point x="110" y="367" type="line"/>
      <point x="110" y="644" type="line"/>
      <point x="132" y="644" type="line" smooth="yes"/>
      <point x="178" y="644"/>
      <point x="198" y="605"/>
      <point x="198" y="509" type="curve" smooth="yes"/>
      <point x="198" y="416"/>
      <point x="175" y="367"/>
      <point x="134" y="367" type="curve" smooth="yes"/>
    </contour>
  </outline>
</glyph>
<glyph name="T" format="2">
  <advance width="300"/>
  <unicode hex="0054"/>
  <anchor x="150" y="0" name="bottom"/>
  <anchor x="150" y="357" name="center"/>
  <anchor x="150" y="714" name="top"/>
  <anchor x="279" y="714" name="topright"/>
  <outline>
    <contour>
      <point x="116" y="0" type="line"/>
      <point x="185" y="0" type="line"/>
      <point x="185" y="641" type="line"/>
      <point x="277" y="641" type="line"/>
      <point x="277" y="714" type="line"/>
      <point x="23" y="714" type="line"/>
      <point x="23" y="641" type="line"/>
      <point x="116" y="641" type="line"/>
    </contour>
  </outline>
</glyph>
<glyph name="U" format="2">
  <advance width="300"/>
  <unicode hex="0055"/>
  <anchor x="150" y="0" name="bottom"/>
  <anchor x="261" y="10" name="ogonek"/>
  <anchor x="150" y="714" name="top"/>
  <anchor x="278" y="714" name="topright"/>
  <outline>
    <contour>
      <point x="149" y="-10" type="curve" smooth="yes"/>
      <point x="235" y="-10"/>
      <point x="270" y="63"/>
      <point x="270" y="220" type="curve" smooth="yes"/>
      <point x="270" y="714" type="line"/>
      <point x="201" y="714" type="line"/>
      <point x="201" y="224" type="line" smooth="yes"/>
      <point x="201" y="108"/>
      <point x="190" y="60"/>
      <point x="149" y="60" type="curve" smooth="yes"/>
      <point x="110" y="60"/>
      <point x="99" y="108"/>
      <point x="99" y="224" type="curve" smooth="yes"/>
      <point x="99" y="714" type="line"/>
      <point x="29" y="714" type="line"/>
      <point x="29" y="221" type="line" smooth="yes"/>
      <point x="29" y="64"/>
      <point x="63" y="-10"/>
    </contour>
  </outline>
</glyph>
<glyph name="W" format="2">
  <advance width="300"/>
  <unicode hex="0057"/>
  <anchor x="149" y="0" name="bottom"/>
  <anchor x="149" y="714" name="top"/>
  <anchor x="278" y="714" name="topright"/>
  <outline>
    <contour>
      <point x="43" y="0" type="line"/>
      <point x="126" y="0" type="line"/>
      <point x="142" y="331" type="line" smooth="yes"/>
      <point x="144" y="390"/>
      <point x="147" y="418"/>
      <point x="149" y="447" type="curve"/>
      <point x="151" y="447" type="line"/>
      <point x="153" y="418"/>
      <point x="156" y="389"/>
      <point x="159" y="331" type="curve" smooth="yes"/>
      <point x="175" y="0" type="line"/>
      <point x="256" y="0" type="line"/>
      <point x="284" y="714" type="line"/>
      <point x="226" y="714" type="line"/>
      <point x="222" y="600"/>
      <point x="218" y="487"/>
      <point x="214" y="374" type="curve" smooth="yes"/>
      <point x="212" y="322"/>
      <point x="210" y="120"/>
      <point x="209" y="74" type="curve"/>
      <point x="206" y="74" type="line"/>
      <point x="204" y="120"/>
      <point x="199" y="221"/>
      <point x="195" y="287" type="curve" smooth="yes"/>
      <point x="178" y="535" type="line"/>
      <point x="121" y="535" type="line"/>
      <point x="106" y="289" type="line" smooth="yes"/>
      <point x="102" y="229"/>
      <point x="97" y="119"/>
      <point x="94" y="74" type="curve"/>
      <point x="91" y="74" type="line"/>
      <point x="90" y="120"/>
      <point x="88" y="314"/>
      <point x="86" y="373" type="curve" smooth="yes"/>
      <point x="82" y="487"/>
      <point x="76" y="600"/>
      <point x="71" y="714" type="curve"/>
      <point x="15" y="714" type="line"/>
    </contour>
  </outline>
</glyph>
<glyph name="X" format="2">
  <advance width="300"/>
  <unicode hex="0058"/>
  <anchor x="151" y="0" name="bottom"/>
  <anchor x="151" y="714" name="top"/>
  <anchor x="279" y="714" name="topright"/>
  <outline>
    <contour>
      <point x="17" y="0" type="line"/>
      <point x="91" y="0" type="line"/>
      <point x="149" y="305" type="line"/>
      <point x="206" y="0" type="line"/>
      <point x="283" y="0" type="line"/>
      <point x="192" y="370" type="line"/>
      <point x="277" y="714" type="line"/>
      <point x="201" y="714" type="line"/>
      <point x="150" y="440" type="line"/>
      <point x="98" y="714" type="line"/>
      <point x="23" y="714" type="line"/>
      <point x="107" y="373" type="line"/>
    </contour>
  </outline>
</glyph>
<glyph name="Y" format="2">
  <advance width="300"/>
  <unicode hex="0059"/>
  <anchor x="150" y="0" name="bottom"/>
  <anchor x="150" y="714" name="top"/>
  <anchor x="22" y="714" name="topleft"/>
  <anchor x="279" y="714" name="topright"/>
  <outline>
    <contour>
      <point x="116" y="0" type="line"/>
      <point x="183" y="0" type="line"/>
      <point x="183" y="273" type="line"/>
      <point x="283" y="714" type="line"/>
      <point x="208" y="714" type="line"/>
      <point x="150" y="347" type="line"/>
      <point x="92" y="714" type="line"/>
      <point x="17" y="714" type="line"/>
      <point x="116" y="273" type="line"/>
    </contour>
  </outline>
</glyph>
<glyph name="bracketleft" format="2">
  <advance width="300"/>
  <unicode hex="005B"/>
  <outline>
    <contour>
      <point x="110" y="-161" type="line"/>
      <point x="237" y="-161" type="line"/>
      <point x="237" y="-97" type="line"/>
      <point x="172" y="-97" type="line"/>
      <point x="172" y="656" type="line"/>
      <point x="237" y="656" type="line"/>
      <point x="237" y="719" type="line"/>
      <point x="110" y="719" type="line"/>
    </contour>
  </outline>
</glyph>
<glyph name="asciicircum" format="2">
  <advance width="300"/>
  <unicode hex="005E"/>
  <outline>
    <contour>
      <point x="21" y="331" type="line"/>
      <point x="84" y="331" type="line"/>
      <point x="151" y="616" type="line"/>
      <point x="216" y="331" type="line"/>
      <point x="279" y="331" type="line"/>
      <point x="168" y="713" type="line"/>
      <point x="133" y="713" type="line"/>
    </contour>
  </outline>
</glyph>
<glyph name="underscore" format="2">
  <advance width="300"/>
  <unicode hex="005F"/>
  <outline>
    <contour>
      <point x="10" y="-153" type="line"/>
      <point x="290" y="-153" type="line"/>
      <point x="290" y="-80" type="line"/>
      <point x="10" y="-80" type="line"/>
    </contour>
  </outline>
</glyph>
<glyph name="b" format="2">
  <advance width="300"/>
  <unicode hex="0062"/>
  <anchor x="150" y="0" name="bottom"/>
  <anchor x="150" y="760" name="top"/>
  <anchor x="278" y="760" name="topright"/>
  <outline>
    <contour>
      <point x="173" y="-10" type="curve" smooth="yes"/>
      <point x="233" y="-10"/>
      <point x="273" y="87"/>
      <point x="273" y="269" type="curve" smooth="yes"/>
      <point x="273" y="450"/>
      <point x="240" y="546"/>
      <point x="176" y="546" type="curve" smooth="yes"/>
      <point x="144" y="546"/>
      <point x="117" y="510"/>
      <point x="103" y="460" type="curve"/>
      <point x="101" y="460" type="line"/>
      <point x="102" y="496"/>
      <point x="104" y="533"/>
      <point x="104" y="569" type="curve" smooth="yes"/>
      <point x="104" y="760" type="line"/>
      <point x="36" y="760" type="line"/>
      <point x="36" y="0" type="line"/>
      <point x="92" y="0" type="line"/>
      <point x="100" y="71" type="line"/>
      <point x="104" y="71" type="line"/>
      <point x="121" y="22"/>
      <point x="145" y="-10"/>
    </contour>
    <contour>
      <point x="151" y="59" type="curve" smooth="yes"/>
      <point x="117" y="59"/>
      <point x="102" y="128"/>
      <point x="102" y="273" type="curve" smooth="yes"/>
      <point x="102" y="411"/>
      <point x="117" y="478"/>
      <point x="152" y="478" type="curve" smooth="yes"/>
      <point x="186" y="478"/>
      <point x="201" y="408"/>
      <point x="201" y="267" type="curve" smooth="yes"/>
      <point x="201" y="132"/>
      <point x="185" y="59"/>
    </contour>
  </outline>
</glyph>
<glyph name="d" format="2">
  <advance width="300"/>
  <unicode hex="0064"/>
  <anchor x="149" y="0" name="bottom"/>
  <anchor x="149" y="268" name="center"/>
  <anchor x="149" y="760" name="top"/>
  <anchor x="286" y="760" name="topright"/>
  <outline>
    <contour>
      <point x="124" y="-10" type="curve" smooth="yes"/>
      <point x="160" y="-10"/>
      <point x="184" y="29"/>
      <point x="197" y="76" type="curve"/>
      <point x="201" y="76" type="line"/>
      <point x="207" y="0" type="line"/>
      <point x="263" y="0" type="line"/>
      <point x="263" y="760" type="line"/>
      <point x="196" y="760" type="line"/>
      <point x="196" y="544" type="line" smooth="yes"/>
      <point x="196" y="520"/>
      <point x="198" y="491"/>
      <point x="200" y="463" type="curve"/>
      <point x="196" y="463" type="line"/>
      <point x="182" y="508"/>
      <point x="158" y="546"/>
      <point x="126" y="546" type="curve" smooth="yes"/>
      <point x="63" y="546"/>
      <point x="26" y="449"/>
      <point x="26" y="266" type="curve" smooth="yes"/>
      <point x="26" y="85"/>
      <point x="59" y="-10"/>
    </contour>
    <contour>
      <point x="146" y="59" type="curve" smooth="yes"/>
      <point x="111" y="59"/>
      <point x="96" y="126"/>
      <point x="96" y="259" type="curve" smooth="yes"/>
      <point x="96" y="402"/>
      <point x="111" y="478"/>
      <point x="148" y="478" type="curve" smooth="yes"/>
      <point x="182" y="478"/>
      <point x="197" y="401"/>
      <point x="197" y="269" type="curve" smooth="yes"/>
      <point x="197" y="247" type="line" smooth="yes"/>
      <point x="197" y="131"/>
      <point x="178" y="59"/>
    </contour>
  </outline>
</glyph>
<glyph name="e" format="2">
  <advance width="300"/>
  <unicode hex="0065"/>
  <anchor x="155" y="0" name="bottom"/>
  <anchor x="158" y="10" name="ogonek"/>
  <anchor x="155" y="535" name="top"/>
  <anchor x="285" y="535" name="topright"/>
  <outline>
    <contour>
      <point x="166" y="-10" type="curve" smooth="yes"/>
      <point x="206" y="-10"/>
      <point x="234" y="2"/>
      <point x="257" y="27" type="curve"/>
      <point x="257" y="99" type="line"/>
      <point x="234" y="74"/>
      <point x="209" y="59"/>
      <point x="174" y="59" type="curve" smooth="yes"/>
      <point x="133" y="59"/>
      <point x="102" y="123"/>
      <point x="101" y="251" type="curve"/>
      <point x="271" y="251" type="line"/>
      <point x="271" y="303" type="line" smooth="yes"/>
      <point x="271" y="445"/>
      <point x="228" y="546"/>
      <point x="156" y="546" type="curve" smooth="yes"/>
      <point x="73" y="546"/>
      <point x="30" y="439"/>
      <point x="30" y="264" type="curve" smooth="yes"/>
      <point x="30" y="89"/>
      <point x="77" y="-10"/>
    </contour>
    <contour>
      <point x="101" y="318" type="line"/>
      <point x="103" y="420"/>
      <point x="122" y="478"/>
      <point x="154" y="478" type="curve" smooth="yes"/>
      <point x="187" y="478"/>
      <point x="203" y="411"/>
      <point x="204" y="318" type="curve"/>
    </contour>
  </outline>
</glyph>
<glyph name="h" format="2">
  <advance width="300"/>
  <unicode hex="0068"/>
  <anchor x="150" y="0" name="bottom"/>
  <anchor x="150" y="268" name="center"/>
  <anchor x="70" y="760" name="top"/>
  <anchor x="278" y="760" name="topright"/>
  <outline>
    <contour>
      <point x="36" y="0" type="line"/>
      <point x="106" y="0" type="line"/>
      <point x="106" y="281" type="line" smooth="yes"/>
      <point x="106" y="407"/>
      <point x="120" y="478"/>
      <point x="156" y="478" type="curve" smooth="yes"/>
      <point x="189" y="478"/>
      <point x="197" y="430"/>
      <point x="197" y="335" type="curve" smooth="yes"/>
      <point x="197" y="0" type="line"/>
      <point x="266" y="0" type="line"/>
      <point x="266" y="351" type="line" smooth="yes"/>
      <point x="266" y="486"/>
      <point x="234" y="546"/>
      <point x="179" y="546" type="curve" smooth="yes"/>
      <point x="141" y="546"/>
      <point x="116" y="510"/>
      <point x="104" y="459" type="curve"/>
      <point x="100" y="459" type="line"/>
      <point x="104" y="482"/>
      <point x="106" y="505"/>
      <point x="106" y="528" type="curve" smooth="yes"/>
      <point x="106" y="760" type="line"/>
      <point x="36" y="760" type="line"/>
    </contour>
  </outline>
</glyph>
<glyph name="i" format="2">
  <advance width="300"/>
  <unicode hex="0069"/>
  <anchor x="157" y="0" name="bottom"/>
  <anchor x="155" y="762" name="top"/>
  <anchor x="248" y="762" name="topright"/>
  <outline>
    <contour>
      <point x="37" y="0" type="line"/>
      <point x="264" y="0" type="line"/>
      <point x="264" y="55" type="line"/>
      <point x="190" y="65" type="line"/>
      <point x="190" y="535" type="line"/>
      <point x="51" y="535" type="line"/>
      <point x="51" y="480" type="line"/>
      <point x="122" y="467" type="line"/>
      <point x="122" y="65" type="line"/>
      <point x="37" y="55" type="line"/>
    </contour>
    <contour>
      <point x="155" y="636" type="curve" smooth="yes"/>
      <point x="185" y="636"/>
      <point x="197" y="656"/>
      <point x="197" y="698" type="curve" smooth="yes"/>
      <point x="197" y="741"/>
      <point x="184" y="762"/>
      <point x="155" y="762" type="curve" smooth="yes"/>
      <point x="127" y="762"/>
      <point x="113" y="741"/>
      <point x="113" y="698" type="curve" smooth="yes"/>
      <point x="113" y="657"/>
      <point x="128" y="636"/>
    </contour>
  </outline>
</glyph>
<glyph name="m" format="2">
  <advance width="300"/>
  <unicode hex="006D"/>
  <anchor x="154" y="0" name="bottom"/>
  <anchor x="155" y="535" name="top"/>
  <anchor x="286" y="535" name="topright"/>
  <outline>
    <contour>
      <point x="23" y="0" type="line"/>
      <point x="80" y="0" type="line"/>
      <point x="80" y="334" type="line" smooth="yes"/>
      <point x="80" y="401"/>
      <point x="85" y="478"/>
      <point x="105" y="478" type="curve" smooth="yes"/>
      <point x="118" y="478"/>
      <point x="122" y="450"/>
      <point x="122" y="390" type="curve" smooth="yes"/>
      <point x="122" y="0" type="line"/>
      <point x="178" y="0" type="line"/>
      <point x="178" y="343" type="line" smooth="yes"/>
      <point x="178" y="416"/>
      <point x="183" y="478"/>
      <point x="201" y="478" type="curve" smooth="yes"/>
      <point x="215" y="478"/>
      <point x="220" y="450"/>
      <point x="220" y="392" type="curve" smooth="yes"/>
      <point x="220" y="0" type="line"/>
      <point x="277" y="0" type="line"/>
      <point x="277" y="401" type="line" smooth="yes"/>
      <point x="277" y="504"/>
      <point x="269" y="546"/>
      <point x="229" y="546" type="curve" smooth="yes"/>
      <point x="202" y="546"/>
      <point x="186" y="524"/>
      <point x="177" y="476" type="curve"/>
      <point x="175" y="476" type="line"/>
      <point x="169" y="521"/>
      <point x="159" y="546"/>
      <point x="132" y="546" type="curve" smooth="yes"/>
      <point x="106" y="546"/>
      <point x="91" y="523"/>
      <point x="82" y="480" type="curve"/>
      <point x="80" y="480" type="line"/>
      <point x="71" y="535" type="line"/>
      <point x="23" y="535" type="line"/>
    </contour>
  </outline>
</glyph>
<glyph name="r" format="2">
  <advance width="300"/>
  <unicode hex="0072"/>
  <anchor x="130" y="0" name="bottom"/>
  <anchor x="162" y="535" name="top"/>
  <anchor x="279" y="535" name="topright"/>
  <outline>
    <contour>
      <point x="29" y="0" type="line"/>
      <point x="235" y="0" type="line"/>
      <point x="235" y="55" type="line"/>
      <point x="160" y="65" type="line"/>
      <point x="160" y="270" type="line" smooth="yes"/>
      <point x="160" y="382"/>
      <point x="181" y="467"/>
      <point x="221" y="467" type="curve" smooth="yes"/>
      <point x="234" y="467"/>
      <point x="251" y="463"/>
      <point x="263" y="453" type="curve"/>
      <point x="280" y="529" type="line"/>
      <point x="263" y="541"/>
      <point x="244" y="546"/>
      <point x="231" y="546" type="curve" smooth="yes"/>
      <point x="189" y="546"/>
      <point x="164" y="504"/>
      <point x="154" y="440" type="curve"/>
      <point x="150" y="440" type="line"/>
      <point x="144" y="535" type="line"/>
      <point x="35" y="535" type="line"/>
      <point x="35" y="480" type="line"/>
      <point x="94" y="467" type="line"/>
      <point x="94" y="65" type="line"/>
      <point x="29" y="55" type="line"/>
    </contour>
  </outline>
</glyph>
<glyph name="t" format="2">
  <advance width="300"/>
  <unicode hex="0074"/>
  <anchor x="183" y="0" name="bottom"/>
  <anchor x="129" y="290" name="center"/>
  <anchor x="143" y="677" name="top"/>
  <anchor x="278" y="677" name="topright"/>
  <outline>
    <contour>
      <point x="193" y="-10" type="curve" smooth="yes"/>
      <point x="220" y="-10"/>
      <point x="250" y="-5"/>
      <point x="273" y="4" type="curve"/>
      <point x="273" y="72" type="line"/>
      <point x="250" y="63"/>
      <point x="230" y="59"/>
      <point x="214" y="59" type="curve" smooth="yes"/>
      <point x="185" y="59"/>
      <point x="164" y="90"/>
      <point x="164" y="159" type="curve" smooth="yes"/>
      <point x="164" y="468" type="line"/>
      <point x="270" y="468" type="line"/>
      <point x="270" y="535" type="line"/>
      <point x="164" y="535" type="line"/>
      <point x="164" y="677" type="line"/>
      <point x="120" y="677" type="line"/>
      <point x="99" y="538" type="line"/>
      <point x="25" y="516" type="line"/>
      <point x="25" y="468" type="line"/>
      <point x="94" y="468" type="line"/>
      <point x="94" y="146" type="line" smooth="yes"/>
      <point x="94" y="30"/>
      <point x="132" y="-10"/>
    </contour>
  </outline>
</glyph>
<glyph name="x" format="2">
  <advance width="300"/>
  <unicode hex="0078"/>
  <anchor x="150" y="0" name="bottom"/>
  <anchor x="150" y="535" name="top"/>
  <anchor x="278" y="535" name="topright"/>
  <outline>
    <contour>
      <point x="20" y="0" type="line"/>
      <point x="98" y="0" type="line"/>
      <point x="148" y="217" type="line"/>
      <point x="200" y="0" type="line"/>
      <point x="279" y="0" type="line"/>
      <point x="194" y="272" type="line"/>
      <point x="276" y="535" type="line"/>
      <point x="197" y="535" type="line"/>
      <point x="150" y="332" type="line"/>
      <point x="102" y="535" type="line"/>
      <point x="23" y="535" type="line"/>
      <point x="105" y="275" type="line"/>
    </contour>
  </outline>
</glyph>
<glyph name="y" format="2">
  <advance width="300"/>
  <unicode hex="0079"/>
  <anchor x="150" y="-245" name="bottom"/>
  <anchor x="150" y="535" name="top"/>
  <anchor x="278" y="535" name="topright"/>
  <outline>
    <contour>
      <point x="63" y="-245" type="curve" smooth="yes"/>
      <point x="122" y="-245"/>
      <point x="161" y="-177"/>
      <point x="178" y="-74" type="curve" smooth="yes"/>
      <point x="280" y="535" type="line"/>
      <point x="204" y="535" type="line"/>
      <point x="167" y="219" type="line" smooth="yes"/>
      <point x="162" y="176"/>
      <point x="157" y="117"/>
      <point x="155" y="75" type="curve"/>
      <point x="153" y="75" type="line"/>
      <point x="150" y="118"/>
      <point x="147" y="166"/>
      <point x="140" y="219" type="curve" smooth="yes"/>
      <point x="97" y="535" type="line"/>
      <point x="21" y="535" type="line"/>
      <point x="124" y="-5" type="line"/>
      <point x="114" y="-82" type="line" smooth="yes"/>
      <point x="105" y="-153"/>
      <point x="74" y="-178"/>
      <point x="52" y="-178" type="curve" smooth="yes"/>
      <point x="43" y="-178"/>
      <point x="35" y="-174"/>
      <point x="28" y="-171" type="curve"/>
      <point x="28" y="-237" type="line"/>
      <point x="39" y="-241"/>
      <point x="50" y="-245"/>
    </contour>
  </outline>
</glyph>
<glyph name="braceleft" format="2">
  <advance width="300"/>
  <unicode hex="007B"/>
  <outline>
    <contour>
      <point x="237" y="-161" type="curve"/>
      <point x="237" y="-99" type="line"/>
      <point x="197" y="-98"/>
      <point x="184" y="-69"/>
      <point x="184" y="-1" type="curve" smooth="yes"/>
      <point x="184" y="152" type="line" smooth="yes"/>
      <point x="184" y="222"/>
      <point x="171" y="263"/>
      <point x="135" y="276" type="curve"/>
      <point x="135" y="280" type="line"/>
      <point x="170" y="292"/>
      <point x="184" y="331"/>
      <point x="184" y="404" type="curve" smooth="yes"/>
      <point x="184" y="557" type="line" smooth="yes"/>
      <point x="184" y="627"/>
      <point x="202" y="653"/>
      <point x="237" y="655" type="curve"/>
      <point x="237" y="717" type="line"/>
      <point x="148" y="715"/>
      <point x="122" y="663"/>
      <point x="122" y="560" type="curve" smooth="yes"/>
      <point x="122" y="407" type="line" smooth="yes"/>
      <point x="122" y="330"/>
      <point x="105" y="307"/>
      <point x="65" y="307" type="curve"/>
      <point x="65" y="249" type="line"/>
      <point x="106" y="249"/>
      <point x="122" y="217"/>
      <point x="122" y="149" type="curve" smooth="yes"/>
      <point x="122" y="-3" type="line" smooth="yes"/>
      <point x="122" y="-111"/>
      <point x="153" y="-159"/>
    </contour>
  </outline>
</glyph>
<glyph name="bar" format="2">
  <advance width="300"/>
  <unicode hex="007C"/>
  <outline>
    <contour>
      <point x="118" y="-240" type="line"/>
      <point x="176" y="-240" type="line"/>
      <point x="176" y="760" type="line"/>
      <point x="118" y="760" type="line"/>
    </contour>
  </outline>
</glyph>
<glyph name="sterling" format="2">
  <advance width="300"/>
  <unicode hex="00A3"/>
  <outline>
    <contour>
      <point x="41" y="0" type="line"/>
      <point x="263" y="0" type="line"/>
      <point x="263" y="71" type="line"/>
      <point x="111" y="71" type="line"/>
      <point x="135" y="98"/>
      <point x="147" y="143"/>
      <point x="147" y="209" type="curve" smooth="yes"/>
      <point x="147" y="327" type="line"/>
      <point x="224" y="327" type="line"/>
      <point x="224" y="388" type="line"/>
      <point x="147" y="388" type="line"/>
      <point x="147" y="535" type="line" smooth="yes"/>
      <point x="147" y="618"/>
      <point x="167" y="654"/>
      <point x="194" y="654" type="curve" smooth="yes"/>
      <point x="210" y="654"/>
      <point x="227" y="644"/>
      <point x="247" y="621" type="curve"/>
      <point x="266" y="683" type="line"/>
      <point x="242" y="710"/>
      <point x="216" y="724"/>
      <point x="188" y="724" type="curve" smooth="yes"/>
      <point x="118" y="724"/>
      <point x="81" y="660"/>
      <point x="81" y="543" type="curve" smooth="yes"/>
      <point x="81" y="388" type="line"/>
      <point x="41" y="388" type="line"/>
      <point x="41" y="327" type="line"/>
      <point x="81" y="327" type="line"/>
      <point x="81" y="209" type="line" smooth="yes"/>
      <point x="81" y="133"/>
      <point x="68" y="87"/>
      <point x="41" y="66" type="curve"/>
    </contour>
  </outline>
</glyph>
<glyph name="yen" format="2">
  <advance width="300"/>
  <unicode hex="00A5"/>
  <outline>
    <contour>
      <point x="117" y="0" type="line"/>
      <point x="183" y="0" type="line"/>
      <point x="183" y="133" type="line"/>
      <point x="253" y="133" type="line"/>
      <point x="253" y="188" type="line"/>
      <point x="183" y="188" type="line"/>
      <point x="183" y="277" type="line"/>
      <point x="253" y="277" type="line"/>
      <point x="253" y="333" type="line"/>
      <point x="194" y="333" type="line"/>
      <point x="275" y="714" type="line"/>
      <point x="203" y="714" type="line"/>
      <point x="150" y="374" type="line"/>
      <point x="96" y="714" type="line"/>
      <point x="25" y="714" type="line"/>
      <point x="105" y="333" type="line"/>
      <point x="47" y="333" type="line"/>
      <point x="47" y="277" type="line"/>
      <point x="117" y="277" type="line"/>
      <point x="117" y="188" type="line"/>
      <point x="47" y="188" type="line"/>
      <point x="47" y="133" type="line"/>
      <point x="117" y="133" type="line"/>
    </contour>
  </outline>
</glyph>
<glyph name="guillemotleft" format="2">
  <advance width="300"/>
  <unicode hex="00AB"/>
  <outline>
    <contour>
      <point x="228" y="65" type="line"/>
      <point x="275" y="94" type="line"/>
      <point x="215" y="264" type="line"/>
      <point x="275" y="437" type="line"/>
      <point x="228" y="464" type="line"/>
      <point x="144" y="271" type="line"/>
      <point x="144" y="257" type="line"/>
    </contour>
    <contour>
      <point x="108" y="65" type="line"/>
      <point x="155" y="94" type="line"/>
      <point x="95" y="264" type="line"/>
      <point x="155" y="437" type="line"/>
      <point x="108" y="464" type="line"/>
      <point x="24" y="271" type="line"/>
      <point x="24" y="257" type="line"/>
    </contour>
  </outline>
</glyph>
<glyph name="registered" format="2">
  <advance width="300"/>
  <unicode hex="00AE"/>
  <outline>
    <contour>
      <point x="149" y="133" type="curve"/>
      <point x="220" y="133"/>
      <point x="278" y="224"/>
      <point x="278" y="360" type="curve" smooth="yes"/>
      <point x="278" y="494"/>
      <point x="222" y="587"/>
      <point x="150" y="587" type="curve" smooth="yes"/>
      <point x="81" y="587"/>
      <point x="22" y="494"/>
      <point x="22" y="359" type="curve" smooth="yes"/>
      <point x="22" y="226"/>
      <point x="74" y="133"/>
    </contour>
    <contour>
      <point x="150" y="173" type="curve"/>
      <point x="96" y="173"/>
      <point x="54" y="248"/>
      <point x="54" y="360" type="curve" smooth="yes"/>
      <point x="54" y="475"/>
      <point x="94" y="545"/>
      <point x="149" y="545" type="curve" smooth="yes"/>
      <point x="204" y="545"/>
      <point x="246" y="472"/>
      <point x="246" y="358" type="curve" smooth="yes"/>
      <point x="246" y="243"/>
      <point x="206" y="173"/>
    </contour>
    <contour>
      <point x="100" y="220" type="line"/>
      <point x="132" y="220" type="line"/>
      <point x="132" y="328" type="line"/>
      <point x="148" y="328" type="line"/>
      <point x="176" y="220" type="line"/>
      <point x="210" y="220" type="line"/>
      <point x="176" y="339" type="line"/>
      <point x="193" y="350"/>
      <point x="202" y="373"/>
      <point x="202" y="419" type="curve" smooth="yes"/>
      <point x="202" y="471"/>
      <point x="183" y="502"/>
      <point x="146" y="502" type="curve" smooth="yes"/>
      <point x="100" y="502" type="line"/>
    </contour>
    <contour>
      <point x="131" y="367" type="line"/>
      <point x="131" y="462" type="line"/>
      <point x="144" y="462" type="line" smooth="yes"/>
      <point x="162" y="462"/>
      <point x="170" y="446"/>
      <point x="170" y="415" type="curve" smooth="yes"/>
      <point x="170" y="383"/>
      <point x="160" y="367"/>
      <point x="144" y="367" type="curve" smooth="yes"/>
    </contour>
  </outline>
</glyph>
<glyph name="overscore" format="2">
  <advance width="300"/>
  <unicode hex="00AF"/>
  <outline>
    <contour>
      <point x="70" y="632" type="line"/>
      <point x="220" y="632" type="line"/>
      <point x="220" y="691" type="line"/>
      <point x="70" y="691" type="line"/>
    </contour>
  </outline>
</glyph>
<glyph name="plusminus" format="2">
  <advance width="300"/>
  <unicode hex="00B1"/>
  <outline>
    <contour>
      <point x="122" y="136" type="line"/>
      <point x="176" y="136" type="line"/>
      <point x="176" y="337" type="line"/>
      <point x="263" y="337" type="line"/>
      <point x="263" y="401" type="line"/>
      <point x="176" y="401" type="line"/>
      <point x="176" y="604" type="line"/>
      <point x="122" y="604" type="line"/>
      <point x="122" y="401" type="line"/>
      <point x="34" y="401" type="line"/>
      <point x="34" y="337" type="line"/>
      <point x="122" y="337" type="line"/>
    </contour>
    <contour>
      <point x="34" y="0" type="line"/>
      <point x="263" y="0" type="line"/>
      <point x="263" y="64" type="line"/>
      <point x="34" y="64" type="line"/>
    </contour>
  </outline>
</glyph>
<glyph name="threesuperior" format="2">
  <advance width="300"/>
  <unicode hex="00B3"/>
  <outline>
    <contour>
      <point x="141" y="407" type="curve" smooth="yes"/>
      <point x="193" y="407"/>
      <point x="228" y="452"/>
      <point x="228" y="532" type="curve" smooth="yes"/>
      <point x="228" y="588"/>
      <point x="210" y="623"/>
      <point x="181" y="638" type="curve"/>
      <point x="181" y="642" type="line"/>
      <point x="208" y="659"/>
      <point x="222" y="695"/>
      <point x="222" y="743" type="curve" smooth="yes"/>
      <point x="222" y="812"/>
      <point x="192" y="853"/>
      <point x="149" y="853" type="curve" smooth="yes"/>
      <point x="120" y="853"/>
      <point x="96" y="837"/>
      <point x="74" y="806" type="curve"/>
      <point x="95" y="762" type="line"/>
      <point x="112" y="786"/>
      <point x="126" y="797"/>
      <point x="143" y="797" type="curve" smooth="yes"/>
      <point x="166" y="797"/>
      <point x="176" y="774"/>
      <point x="176" y="735" type="curve" smooth="yes"/>
      <point x="176" y="692"/>
      <point x="161" y="662"/>
      <point x="133" y="662" type="curve" smooth="yes"/>
      <point x="111" y="662" type="line"/>
      <point x="111" y="610" type="line"/>
      <point x="136" y="610" type="line" smooth="yes"/>
      <point x="166" y="610"/>
      <point x="181" y="583"/>
      <point x="181" y="535" type="curve" smooth="yes"/>
      <point x="181" y="490"/>
      <point x="169" y="464"/>
      <point x="139" y="464" type="curve" smooth="yes"/>
      <point x="115" y="464"/>
      <point x="94" y="473"/>
      <point x="76" y="493" type="curve"/>
      <point x="76" y="431" type="line"/>
      <point x="94" y="415"/>
      <point x="116" y="407"/>
    </contour>
  </outline>
</glyph>
<glyph name="paragraph" format="2">
  <advance width="300"/>
  <unicode hex="00B6"/>
  <outline>
    <contour>
      <point x="139" y="-127" type="line"/>
      <point x="176" y="-127" type="line"/>
      <point x="176" y="706" type="line"/>
      <point x="215" y="706" type="line"/>
      <point x="215" y="-127" type="line"/>
      <point x="252" y="-127" type="line"/>
      <point x="252" y="760" type="line"/>
      <point x="123" y="760" type="line" smooth="yes"/>
      <point x="62" y="760"/>
      <point x="36" y="676"/>
      <point x="36" y="513" type="curve" smooth="yes"/>
      <point x="36" y="353"/>
      <point x="60" y="272"/>
      <point x="114" y="272" type="curve" smooth="yes"/>
      <point x="124" y="272"/>
      <point x="132" y="275"/>
      <point x="139" y="281" type="curve"/>
    </contour>
  </outline>
</glyph>
<glyph name="cedilla" format="2">
  <advance width="300"/>
  <unicode hex="00B8"/>
  <outline>
    <contour>
      <point x="133" y="-240" type="curve" smooth="yes"/>
      <point x="179" y="-240"/>
      <point x="204" y="-204"/>
      <point x="204" y="-141" type="curve" smooth="yes"/>
      <point x="204" y="-92"/>
      <point x="188" y="-63"/>
      <point x="157" y="-51" type="curve"/>
      <point x="168" y="0" type="line"/>
      <point x="132" y="0" type="line"/>
      <point x="112" y="-79" type="line"/>
      <point x="138" y="-86"/>
      <point x="154" y="-102"/>
      <point x="154" y="-138" type="curve" smooth="yes"/>
      <point x="154" y="-168"/>
      <point x="143" y="-189"/>
      <point x="123" y="-189" type="curve" smooth="yes"/>
      <point x="116" y="-189"/>
      <point x="106" y="-187"/>
      <point x="96" y="-183" type="curve"/>
      <point x="96" y="-234" type="line"/>
      <point x="107" y="-238"/>
      <point x="121" y="-240"/>
    </contour>
  </outline>
</glyph>
<glyph name="ordmasculine" format="2">
  <advance width="300"/>
  <unicode hex="00BA"/>
  <outline>
    <contour>
      <point x="151" y="383" type="curve" smooth="yes"/>
      <point x="202" y="383"/>
      <point x="231" y="446"/>
      <point x="231" y="554" type="curve" smooth="yes"/>
      <point x="231" y="664"/>
      <point x="200" y="722"/>
      <point x="151" y="722" type="curve" smooth="yes"/>
      <point x="100" y="722"/>
      <point x="69" y="660"/>
      <point x="69" y="554" type="curve" smooth="yes"/>
      <point x="69" y="447"/>
      <point x="99" y="383"/>
    </contour>
    <contour>
      <point x="151" y="434" type="curve" smooth="yes"/>
      <point x="128" y="434"/>
      <point x="116" y="473"/>
      <point x="116" y="554" type="curve" smooth="yes"/>
      <point x="116" y="636"/>
      <point x="129" y="672"/>
      <point x="151" y="672" type="curve" smooth="yes"/>
      <point x="173" y="672"/>
      <point x="184" y="635"/>
      <point x="184" y="554" type="curve" smooth="yes"/>
      <point x="184" y="473"/>
      <point x="174" y="434"/>
    </contour>
  </outline>
</glyph>
<glyph name="AE" format="2">
  <advance width="300"/>
  <unicode hex="00C6"/>
  <anchor x="150" y="0" name="bottom"/>
  <anchor x="167" y="714" name="top"/>
  <outline>
    <contour>
      <point x="15" y="0" type="line"/>
      <point x="78" y="0" type="line"/>
      <point x="139" y="639" type="line"/>
      <point x="152" y="639" type="line"/>
      <point x="152" y="0" type="line"/>
      <point x="279" y="0" type="line"/>
      <point x="279" y="75" type="line"/>
      <point x="210" y="75" type="line"/>
      <point x="210" y="335" type="line"/>
      <point x="269" y="335" type="line"/>
      <point x="269" y="410" type="line"/>
      <point x="210" y="410" type="line"/>
      <point x="210" y="639" type="line"/>
      <point x="279" y="639" type="line"/>
      <point x="279" y="714" type="line"/>
      <point x="93" y="714" type="line"/>
    </contour>
    <contour>
      <point x="82" y="232" type="line"/>
      <point x="166" y="232" type="line"/>
      <point x="166" y="304" type="line"/>
      <point x="92" y="304" type="line"/>
    </contour>
  </outline>
</glyph>
<glyph name="Eth" format="2">
  <advance width="300"/>
  <unicode hex="00D0"/>
  <anchor x="150" y="0" name="bottom"/>
  <anchor x="150" y="714" name="top"/>
  <anchor x="304" y="714" name="topright"/>
  <anchor x="165" y="357" name="center"/>
  <outline>
    <contour>
      <point x="10" y="333" type="line"/>
      <point x="155" y="333" type="line"/>
      <point x="155" y="402" type="line"/>
      <point x="10" y="402" type="line"/>
    </contour>
    <component base="D" xOffset="15"/>
  </outline>
</glyph>
<glyph name="oslash" format="2">
  <advance width="300"/>
  <unicode hex="00F8"/>
  <anchor x="150" y="0" name="bottom"/>
  <anchor x="150" y="535" name="top"/>
  <anchor x="161" y="10" name="ogonek"/>
  <anchor x="296" y="535" name="topright"/>
  <anchor x="159" y="268" name="center"/>
  <outline>
    <contour>
      <point x="75" y="-50" type="line"/>
      <point x="260" y="546" type="line"/>
      <point x="226" y="575" type="line"/>
      <point x="41" y="-20" type="line"/>
    </contour>
    <component base="o" xOffset="10"/>
  </outline>
</glyph>
<glyph name="thorn" format="2">
  <advance width="300"/>
  <unicode hex="00FE"/>
  <anchor x="160" y="-240" name="bottom"/>
  <anchor x="160" y="756" name="top"/>
  <outline>
    <contour>
      <point x="36" y="-240" type="line"/>
      <point x="104" y="-240" type="line"/>
      <point x="104" y="-9" type="line" smooth="yes"/>
      <point x="104" y="18"/>
      <point x="102" y="45"/>
      <point x="100" y="72" type="curve"/>
      <point x="104" y="72" type="line"/>
      <point x="119" y="28"/>
      <point x="141" y="-10"/>
      <point x="175" y="-10" type="curve" smooth="yes"/>
      <point x="230" y="-10"/>
      <point x="273" y="86"/>
      <point x="273" y="269" type="curve" smooth="yes"/>
      <point x="273" y="452"/>
      <point x="242" y="546"/>
      <point x="178" y="546" type="curve" smooth="yes"/>
      <point x="138" y="546"/>
      <point x="116" y="506"/>
      <point x="102" y="458" type="curve"/>
      <point x="99" y="458" type="line"/>
      <point x="102" y="488"/>
      <point x="104" y="510"/>
      <point x="104" y="544" type="curve" smooth="yes"/>
      <point x="104" y="756" type="line"/>
      <point x="36" y="756" type="line"/>
    </contour>
    <contour>
      <point x="155" y="59" type="curve" smooth="yes"/>
      <point x="122" y="59"/>
      <point x="104" y="135"/>
      <point x="104" y="266" type="curve" smooth="yes"/>
      <point x="104" y="288" type="line" smooth="yes"/>
      <point x="104" y="407"/>
      <point x="122" y="478"/>
      <point x="154" y="478" type="curve" smooth="yes"/>
      <point x="188" y="478"/>
      <point x="201" y="408"/>
      <point x="201" y="270" type="curve" smooth="yes"/>
      <point x="201" y="133"/>
      <point x="186" y="59"/>
    </contour>
  </outline>
</glyph>
<glyph name="dcaron" format="2">
  <advance width="300"/>
  <unicode hex="010F"/>
  <anchor x="132" y="0" name="bottom"/>
  <anchor x="132" y="268" name="center"/>
  <anchor x="147" y="760" name="top"/>
  <anchor x="260" y="760" name="topright"/>
  <outline>
    <contour>
      <point x="112" y="-10" type="curve" smooth="yes"/>
      <point x="144" y="-10"/>
      <point x="164" y="29"/>
      <point x="176" y="76" type="curve"/>
      <point x="180" y="76" type="line"/>
      <point x="185" y="0" type="line"/>
      <point x="242" y="0" type="line"/>
      <point x="242" y="760" type="line"/>
      <point x="175" y="760" type="line"/>
      <point x="175" y="544" type="line" smooth="yes"/>
      <point x="175" y="517"/>
      <point x="177" y="491"/>
      <point x="179" y="463" type="curve"/>
      <point x="175" y="463" type="line"/>
      <point x="162" y="508"/>
      <point x="142" y="546"/>
      <point x="114" y="546" type="curve" smooth="yes"/>
      <point x="56" y="546"/>
      <point x="21" y="449"/>
      <point x="21" y="264" type="curve" smooth="yes"/>
      <point x="21" y="86"/>
      <point x="53" y="-10"/>
    </contour>
    <contour>
      <point x="132" y="59" type="curve" smooth="yes"/>
      <point x="100" y="59"/>
      <point x="89" y="125"/>
      <point x="89" y="261" type="curve" smooth="yes"/>
      <point x="89" y="404"/>
      <point x="101" y="478"/>
      <point x="134" y="478" type="curve" smooth="yes"/>
      <point x="160" y="478"/>
      <point x="176" y="398"/>
      <point x="176" y="269" type="curve" smooth="yes"/>
      <point x="176" y="247" type="line" smooth="yes"/>
      <point x="176" y="133"/>
      <point x="160" y="59"/>
    </contour>
    <component base="caroncommaaccent" xOffset="156"/>
  </outline>
</glyph>
<glyph name="dcroat" format="2">
  <advance width="300"/>
  <unicode hex="0111"/>
  <anchor x="149" y="0" name="bottom"/>
  <anchor x="149" y="268" name="center"/>
  <anchor x="149" y="760" name="top"/>
  <anchor x="278" y="760" name="topright"/>
  <outline>
    <contour>
      <point x="124" y="-10" type="curve" smooth="yes"/>
      <point x="160" y="-10"/>
      <point x="184" y="29"/>
      <point x="197" y="76" type="curve"/>
      <point x="201" y="76" type="line"/>
      <point x="207" y="0" type="line"/>
      <point x="263" y="0" type="line"/>
      <point x="263" y="760" type="line"/>
      <point x="196" y="760" type="line"/>
      <point x="196" y="540" type="line" smooth="yes"/>
      <point x="196" y="516"/>
      <point x="198" y="482"/>
      <point x="200" y="458" type="curve"/>
      <point x="196" y="458" type="line"/>
      <point x="182" y="504"/>
      <point x="158" y="542"/>
      <point x="126" y="542" type="curve" smooth="yes"/>
      <point x="63" y="542"/>
      <point x="26" y="444"/>
      <point x="26" y="261" type="curve" smooth="yes"/>
      <point x="26" y="83"/>
      <point x="59" y="-10"/>
    </contour>
    <contour>
      <point x="146" y="59" type="curve" smooth="yes"/>
      <point x="111" y="59"/>
      <point x="96" y="124"/>
      <point x="96" y="254" type="curve" smooth="yes"/>
      <point x="96" y="398"/>
      <point x="111" y="473"/>
      <point x="148" y="473" type="curve" smooth="yes"/>
      <point x="182" y="473"/>
      <point x="197" y="396"/>
      <point x="197" y="265" type="curve" smooth="yes"/>
      <point x="197" y="242" type="line" smooth="yes"/>
      <point x="197" y="129"/>
      <point x="178" y="59"/>
    </contour>
    <contour>
      <point x="122" y="608" type="line"/>
      <point x="289" y="608" type="line"/>
      <point x="289" y="669" type="line"/>
      <point x="122" y="669" type="line"/>
    </contour>
  </outline>
</glyph>
<glyph name="eogonek" format="2">
  <advance width="300"/>
  <unicode hex="0119"/>
  <anchor x="155" y="-223" name="bottom"/>
  <anchor x="150" y="535" name="top"/>
  <anchor x="168" y="10" name="ogonek"/>
  <anchor x="295" y="535" name="topright"/>
  <outline>
    <contour>
      <point x="216" y="-223" type="curve" smooth="yes"/>
      <point x="231" y="-223"/>
      <point x="243" y="-220"/>
      <point x="251" y="-215" type="curve"/>
      <point x="251" y="-162" type="line"/>
      <point x="245" y="-165"/>
      <point x="238" y="-168"/>
      <point x="231" y="-168" type="curve" smooth="yes"/>
      <point x="213" y="-168"/>
      <point x="204" y="-145"/>
      <point x="204" y="-108" type="curve" smooth="yes"/>
      <point x="204" y="-64"/>
      <point x="220" y="-11"/>
      <point x="256" y="27" type="curve"/>
      <point x="227" y="39" type="line"/>
      <point x="190" y="2"/>
      <point x="154" y="-51"/>
      <point x="154" y="-118" type="curve" smooth="yes"/>
      <point x="154" y="-180"/>
      <point x="175" y="-223"/>
    </contour>
    <component base="e" xOffset="10"/>
  </outline>
</glyph>
<glyph name="Hbar" format="2">
  <advance width="300"/>
  <unicode hex="0126"/>
  <anchor x="150" y="0" name="bottom"/>
  <anchor x="150" y="357" name="center"/>
  <anchor x="150" y="714" name="top"/>
  <anchor x="21" y="714" name="topleft"/>
  <outline>
    <contour>
      <point x="10" y="529" type="line"/>
      <point x="290" y="529" type="line"/>
      <point x="290" y="593" type="line"/>
      <point x="10" y="593" type="line"/>
    </contour>
    <contour>
      <point x="33" y="0" type="line"/>
      <point x="102" y="0" type="line"/>
      <point x="102" y="333" type="line"/>
      <point x="197" y="333" type="line"/>
      <point x="197" y="0" type="line"/>
      <point x="266" y="0" type="line"/>
      <point x="266" y="714" type="line"/>
      <point x="197" y="714" type="line"/>
      <point x="197" y="406" type="line"/>
      <point x="102" y="406" type="line"/>
      <point x="102" y="714" type="line"/>
      <point x="33" y="714" type="line"/>
    </contour>
  </outline>
</glyph>
<glyph name="idotless" format="2">
  <advance width="300"/>
  <unicode hex="0131"/>
  <anchor x="150" y="0" name="bottom"/>
  <anchor x="262" y="10" name="ogonek"/>
  <anchor x="150" y="535" name="top"/>
  <outline>
    <contour>
      <point x="37" y="0" type="line"/>
      <point x="264" y="0" type="line"/>
      <point x="264" y="55" type="line"/>
      <point x="190" y="65" type="line"/>
      <point x="190" y="535" type="line"/>
      <point x="51" y="535" type="line"/>
      <point x="51" y="480" type="line"/>
      <point x="122" y="467" type="line"/>
      <point x="122" y="65" type="line"/>
      <point x="37" y="55" type="line"/>
    </contour>
  </outline>
</glyph>
<glyph name="IJ" format="2">
  <advance width="300"/>
  <unicode hex="0132"/>
  <anchor x="150" y="0" name="bottom"/>
  <anchor x="10" y="0" name="caret_1"/>
  <anchor x="150" y="714" name="top"/>
  <anchor x="22" y="714" name="topleft"/>
  <outline>
    <contour>
      <point x="125" y="-10" type="curve" smooth="yes"/>
      <point x="211" y="-10"/>
      <point x="251" y="67"/>
      <point x="251" y="204" type="curve" smooth="yes"/>
      <point x="251" y="714" type="line"/>
      <point x="182" y="714" type="line"/>
      <point x="182" y="216" type="line" smooth="yes"/>
      <point x="182" y="106"/>
      <point x="158" y="63"/>
      <point x="115" y="63" type="curve" smooth="yes"/>
      <point x="97" y="63"/>
      <point x="71" y="85"/>
      <point x="49" y="96" type="curve"/>
      <point x="49" y="20" type="line"/>
      <point x="74" y="2"/>
      <point x="101" y="-10"/>
    </contour>
    <contour>
      <point x="49" y="177" type="line"/>
      <point x="118" y="177" type="line"/>
      <point x="118" y="714" type="line"/>
      <point x="49" y="714" type="line"/>
    </contour>
  </outline>
</glyph>
<glyph name="lslash" format="2">
  <advance width="300"/>
  <unicode hex="0142"/>
  <anchor x="150" y="0" name="bottom"/>
  <anchor x="150" y="760" name="top"/>
  <anchor x="253" y="760" name="topright"/>
  <anchor x="163" y="371" name="center"/>
  <outline>
    <contour>
      <point x="65" y="284" type="line"/>
      <point x="272" y="452" type="line"/>
      <point x="272" y="518" type="line"/>
      <point x="65" y="350" type="line"/>
    </contour>
    <component base="l" xOffset="10"/>
  </outline>
</glyph>
<glyph name="oe" format="2">
  <advance width="300"/>
  <unicode hex="0153"/>
  <anchor x="149" y="0" name="bottom"/>
  <anchor x="149" y="535" name="top"/>
  <outline>
    <contour>
      <point x="97" y="-10" type="curve" smooth="yes"/>
      <point x="125" y="-10"/>
      <point x="145" y="20"/>
      <point x="160" y="92" type="curve"/>
      <point x="175" y="22"/>
      <point x="198" y="-10"/>
      <point x="226" y="-10" type="curve" smooth="yes"/>
      <point x="247" y="-10"/>
      <point x="265" y="2"/>
      <point x="280" y="25" type="curve"/>
      <point x="280" y="96" type="line"/>
      <point x="265" y="73"/>
      <point x="250" y="58"/>
      <point x="236" y="58" type="curve" smooth="yes"/>
      <point x="203" y="58"/>
      <point x="190" y="120"/>
      <point x="189" y="253" type="curve"/>
      <point x="284" y="253" type="line"/>
      <point x="284" y="305" type="line" smooth="yes"/>
      <point x="284" y="455"/>
      <point x="268" y="545"/>
      <point x="212" y="545" type="curve" smooth="yes"/>
      <point x="185" y="545"/>
      <point x="169" y="511"/>
      <point x="157" y="444" type="curve"/>
      <point x="145" y="516"/>
      <point x="124" y="545"/>
      <point x="95" y="545" type="curve" smooth="yes"/>
      <point x="34" y="545"/>
      <point x="17" y="471"/>
      <point x="17" y="265" type="curve" smooth="yes"/>
      <point x="17" y="79"/>
      <point x="38" y="-10"/>
    </contour>
    <contour>
      <point x="100" y="58" type="curve" smooth="yes"/>
      <point x="80" y="58"/>
      <point x="74" y="135"/>
      <point x="74" y="267" type="curve" smooth="yes"/>
      <point x="74" y="412"/>
      <point x="80" y="477"/>
      <point x="100" y="477" type="curve" smooth="yes"/>
      <point x="122" y="477"/>
      <point x="127" y="408"/>
      <point x="127" y="267" type="curve" smooth="yes"/>
      <point x="127" y="133"/>
      <point x="122" y="58"/>
    </contour>
    <contour>
      <point x="185" y="320" type="line"/>
      <point x="185" y="398"/>
      <point x="193" y="477"/>
      <point x="209" y="477" type="curve" smooth="yes"/>
      <point x="223" y="477"/>
      <point x="231" y="424"/>
      <point x="231" y="320" type="curve"/>
    </contour>
  </outline>
</glyph>
<glyph name="Tbar" format="2">
  <advance width="300"/>
  <unicode hex="0166"/>
  <anchor x="150" y="0" name="bottom"/>
  <anchor x="150" y="714" name="top"/>
  <anchor x="279" y="714" name="topright"/>
  <anchor x="150" y="357" name="center"/>
  <outline>
    <contour>
      <point x="68" y="328" type="line"/>
      <point x="251" y="328" type="line"/>
      <point x="251" y="395" type="line"/>
      <point x="68" y="395" type="line"/>
    </contour>
    <component base="T"/>
  </outline>
</glyph>
<glyph name="longs" format="2">
  <advance width="300"/>
  <unicode hex="017F"/>
  <anchor x="150" y="0" name="bottom"/>
  <anchor x="188" y="765" name="top"/>
  <outline>
    <contour>
      <point x="105" y="0" type="line"/>
      <point x="175" y="0" type="line"/>
      <point x="175" y="564" type="line" smooth="yes"/>
      <point x="175" y="663"/>
      <point x="190" y="698"/>
      <point x="214" y="698" type="curve" smooth="yes"/>
      <point x="225" y="698"/>
      <point x="236" y="692"/>
      <point x="247" y="686" type="curve"/>
      <point x="261" y="749" type="line"/>
      <point x="238" y="758"/>
      <point x="220" y="765"/>
      <point x="204" y="765" type="curve" smooth="yes"/>
      <point x="134" y="765"/>
      <point x="105" y="703"/>
      <point x="105" y="575" type="curve" smooth="yes"/>
    </contour>
  </outline>
</glyph>
<glyph name="uni0181" format="2">
  <advance width="300"/>
  <unicode hex="0181"/>
  <anchor x="161" y="0" name="bottom"/>
  <anchor x="161" y="714" name="top"/>
  <outline>
    <contour>
      <point x="85" y="0" type="line"/>
      <point x="173" y="0" type="line" smooth="yes"/>
      <point x="239" y="0"/>
      <point x="279" y="75"/>
      <point x="279" y="205" type="curve" smooth="yes"/>
      <point x="279" y="309"/>
      <point x="257" y="358"/>
      <point x="219" y="374" type="curve"/>
      <point x="219" y="379" type="line"/>
      <point x="251" y="394"/>
      <point x="272" y="453"/>
      <point x="272" y="541" type="curve" smooth="yes"/>
      <point x="272" y="662"/>
      <point x="241" y="714"/>
      <point x="164" y="714" type="curve" smooth="yes"/>
      <point x="85" y="714" type="line"/>
    </contour>
    <contour>
      <point x="149" y="70" type="line"/>
      <point x="149" y="339" type="line"/>
      <point x="167" y="339" type="line" smooth="yes"/>
      <point x="202" y="339"/>
      <point x="216" y="292"/>
      <point x="216" y="206" type="curve" smooth="yes"/>
      <point x="216" y="120"/>
      <point x="201" y="70"/>
      <point x="169" y="70" type="curve" smooth="yes"/>
    </contour>
    <contour>
      <point x="15" y="521" type="curve"/>
      <point x="62" y="521" type="line"/>
      <point x="61" y="531"/>
      <point x="59" y="553"/>
      <point x="59" y="582" type="curve" smooth="yes"/>
      <point x="59" y="624"/>
      <point x="69" y="645"/>
      <point x="87" y="645" type="curve" smooth="yes"/>
      <point x="100" y="645" type="line"/>
      <point x="100" y="714" type="line"/>
      <point x="88" y="714" type="line" smooth="yes"/>
      <point x="36" y="714"/>
      <point x="11" y="663"/>
      <point x="11" y="587" type="curve" smooth="yes"/>
      <point x="11" y="557"/>
      <point x="13" y="534"/>
    </contour>
    <contour>
      <point x="149" y="409" type="line"/>
      <point x="149" y="644" type="line"/>
      <point x="163" y="644" type="line" smooth="yes"/>
      <point x="198" y="644"/>
      <point x="209" y="609"/>
      <point x="209" y="528" type="curve" smooth="yes"/>
      <point x="209" y="449"/>
      <point x="195" y="409"/>
      <point x="164" y="409" type="curve" smooth="yes"/>
    </contour>
  </outline>
</glyph>
<glyph name="uni0183" format="2">
  <advance width="300"/>
  <unicode hex="0183"/>
  <anchor x="150" y="0" name="bottom"/>
  <anchor x="150" y="760" name="top"/>
  <anchor x="288" y="760" name="topright"/>
  <outline>
    <contour>
      <point x="71" y="695" type="line"/>
      <point x="240" y="695" type="line"/>
      <point x="240" y="760" type="line"/>
      <point x="71" y="760" type="line"/>
    </contour>
    <component base="b" xOffset="10"/>
  </outline>
</glyph>
<glyph name="uni0184" format="2">
  <advance width="300"/>
  <unicode hex="0184"/>
  <anchor x="150" y="0" name="bottom"/>
  <anchor x="150" y="760" name="top"/>
  <outline>
    <contour>
      <point x="155" y="-7" type="curve" smooth="yes"/>
      <point x="234" y="-7"/>
      <point x="272" y="74"/>
      <point x="272" y="209" type="curve" smooth="yes"/>
      <point x="272" y="339"/>
      <point x="235" y="414"/>
      <point x="147" y="414" type="curve" smooth="yes"/>
      <point x="111" y="414" type="line"/>
      <point x="111" y="714" type="line"/>
      <point x="42" y="714" type="line"/>
      <point x="42" y="203" type="line" smooth="yes"/>
      <point x="42" y="56"/>
      <point x="80" y="-7"/>
    </contour>
    <contour>
      <point x="157" y="67" type="curve" smooth="yes"/>
      <point x="126" y="67"/>
      <point x="111" y="102"/>
      <point x="111" y="211" type="curve" smooth="yes"/>
      <point x="111" y="344" type="line"/>
      <point x="140" y="344" type="line" smooth="yes"/>
      <point x="179" y="344"/>
      <point x="204" y="305"/>
      <point x="204" y="209" type="curve" smooth="yes"/>
      <point x="204" y="110"/>
      <point x="186" y="67"/>
    </contour>
  </outline>
</glyph>
<glyph name="uni0185" format="2">
  <advance width="300"/>
  <unicode hex="0185"/>
  <anchor x="150" y="0" name="bottom"/>
  <anchor x="150" y="760" name="top"/>
  <outline>
    <contour>
      <point x="149" y="-10" type="curve" smooth="yes"/>
      <point x="224" y="-10"/>
      <point x="273" y="91"/>
      <point x="273" y="269" type="curve" smooth="yes"/>
      <point x="273" y="450"/>
      <point x="239" y="546"/>
      <point x="178" y="546" type="curve" smooth="yes"/>
      <point x="138" y="546"/>
      <point x="116" y="510"/>
      <point x="104" y="460" type="curve"/>
      <point x="100" y="460" type="line"/>
      <point x="102" y="496"/>
      <point x="104" y="533"/>
      <point x="104" y="569" type="curve" smooth="yes"/>
      <point x="104" y="760" type="line"/>
      <point x="36" y="760" type="line"/>
      <point x="36" y="259" type="line" smooth="yes"/>
      <point x="36" y="56"/>
      <point x="73" y="-10"/>
    </contour>
    <contour>
      <point x="152" y="59" type="curve" smooth="yes"/>
      <point x="121" y="59"/>
      <point x="104" y="99"/>
      <point x="104" y="260" type="curve" smooth="yes"/>
      <point x="104" y="273" type="line" smooth="yes"/>
      <point x="104" y="412"/>
      <point x="120" y="478"/>
      <point x="153" y="478" type="curve" smooth="yes"/>
      <point x="188" y="478"/>
      <point x="201" y="412"/>
      <point x="201" y="267" type="curve" smooth="yes"/>
      <point x="201" y="123"/>
      <point x="184" y="59"/>
    </contour>
  </outline>
</glyph>
<glyph name="uni018A" format="2">
  <advance width="300"/>
  <unicode hex="018A"/>
  <anchor x="150" y="0" name="bottom"/>
  <anchor x="150" y="714" name="top"/>
  <outline>
    <contour>
      <point x="83" y="0" type="line"/>
      <point x="160" y="0" type="line" smooth="yes"/>
      <point x="245" y="0"/>
      <point x="278" y="125"/>
      <point x="278" y="366" type="curve" smooth="yes"/>
      <point x="278" y="593"/>
      <point x="246" y="714"/>
      <point x="161" y="714" type="curve" smooth="yes"/>
      <point x="83" y="714" type="line"/>
    </contour>
    <contour>
      <point x="148" y="73" type="line"/>
      <point x="148" y="641" type="line"/>
      <point x="159" y="641" type="line" smooth="yes"/>
      <point x="201" y="641"/>
      <point x="213" y="552"/>
      <point x="213" y="365" type="curve" smooth="yes"/>
      <point x="213" y="173"/>
      <point x="196" y="73"/>
      <point x="159" y="73" type="curve" smooth="yes"/>
    </contour>
    <contour>
      <point x="15" y="521" type="curve"/>
      <point x="60" y="521" type="line"/>
      <point x="59" y="531"/>
      <point x="57" y="553"/>
      <point x="57" y="582" type="curve" smooth="yes"/>
      <point x="57" y="620"/>
      <point x="67" y="641"/>
      <point x="86" y="641" type="curve" smooth="yes"/>
      <point x="100" y="641" type="line"/>
      <point x="100" y="714" type="line"/>
      <point x="88" y="714" type="line" smooth="yes"/>
      <point x="36" y="714"/>
      <point x="11" y="663"/>
      <point x="11" y="587" type="curve" smooth="yes"/>
      <point x="11" y="557"/>
      <point x="13" y="534"/>
    </contour>
  </outline>
</glyph>
<glyph name="uni018C" format="2">
  <advance width="300"/>
  <unicode hex="018C"/>
  <anchor x="150" y="0" name="bottom"/>
  <anchor x="158" y="760" name="top"/>
  <anchor x="296" y="760" name="topright"/>
  <anchor x="159" y="268" name="center"/>
  <outline>
    <contour>
      <point x="59" y="695" type="line"/>
      <point x="223" y="695" type="line"/>
      <point x="223" y="760" type="line"/>
      <point x="59" y="760" type="line"/>
    </contour>
    <component base="d" xOffset="10"/>
  </outline>
</glyph>
<glyph name="florin" format="2">
  <advance width="300"/>
  <unicode hex="0192"/>
  <anchor x="140" y="-240" name="bottom"/>
  <anchor x="194" y="724" name="top"/>
  <outline>
    <contour>
      <point x="85" y="-240" type="curve" smooth="yes"/>
      <point x="151" y="-240"/>
      <point x="177" y="-175"/>
      <point x="177" y="-52" type="curve" smooth="yes"/>
      <point x="177" y="404" type="line"/>
      <point x="243" y="404" type="line"/>
      <point x="243" y="468" type="line"/>
      <point x="177" y="468" type="line"/>
      <point x="177" y="539" type="line" smooth="yes"/>
      <point x="177" y="625"/>
      <point x="188" y="657"/>
      <point x="216" y="657" type="curve" smooth="yes"/>
      <point x="228" y="657"/>
      <point x="238" y="653"/>
      <point x="248" y="643" type="curve"/>
      <point x="262" y="704" type="line"/>
      <point x="240" y="718"/>
      <point x="224" y="724"/>
      <point x="203" y="724" type="curve" smooth="yes"/>
      <point x="139" y="724"/>
      <point x="111" y="665"/>
      <point x="111" y="541" type="curve" smooth="yes"/>
      <point x="111" y="471" type="line"/>
      <point x="51" y="446" type="line"/>
      <point x="51" y="404" type="line"/>
      <point x="111" y="404" type="line"/>
      <point x="111" y="-67" type="line" smooth="yes"/>
      <point x="111" y="-139"/>
      <point x="100" y="-173"/>
      <point x="72" y="-173" type="curve" smooth="yes"/>
      <point x="61" y="-173"/>
      <point x="51" y="-170"/>
      <point x="40" y="-164" type="curve"/>
      <point x="40" y="-232" type="line"/>
      <point x="52" y="-237"/>
      <point x="65" y="-240"/>
    </contour>
  </outline>
</glyph>
<glyph name="uni0194" format="2">
  <advance width="300"/>
  <unicode hex="0194"/>
  <anchor x="150" y="-240" name="bottom"/>
  <anchor x="150" y="714" name="top"/>
  <outline>
    <contour>
      <point x="149" y="-240" type="curve" smooth="yes"/>
      <point x="207" y="-240"/>
      <point x="231" y="-189"/>
      <point x="231" y="-105" type="curve" smooth="yes"/>
      <point x="231" y="-40"/>
      <point x="217" y="36"/>
      <point x="191" y="124" type="curve"/>
      <point x="283" y="714" type="line"/>
      <point x="207" y="714" type="line"/>
      <point x="165" y="324" type="line" smooth="yes"/>
      <point x="161" y="287"/>
      <point x="152" y="234"/>
      <point x="150" y="189" type="curve"/>
      <point x="148" y="234"/>
      <point x="140" y="285"/>
      <point x="135" y="325" type="curve" smooth="yes"/>
      <point x="93" y="714" type="line"/>
      <point x="17" y="714" type="line"/>
      <point x="108" y="122" type="line"/>
      <point x="84" y="47"/>
      <point x="70" y="-37"/>
      <point x="70" y="-106" type="curve" smooth="yes"/>
      <point x="70" y="-191"/>
      <point x="93" y="-240"/>
    </contour>
    <contour>
      <point x="151" y="-181" type="curve" smooth="yes"/>
      <point x="138" y="-181"/>
      <point x="130" y="-157"/>
      <point x="130" y="-106" type="curve" smooth="yes"/>
      <point x="130" y="-64"/>
      <point x="135" y="-9"/>
      <point x="150" y="57" type="curve"/>
      <point x="165" y="-8"/>
      <point x="172" y="-64"/>
      <point x="172" y="-109" type="curve" smooth="yes"/>
      <point x="172" y="-159"/>
      <point x="164" y="-181"/>
    </contour>
  </outline>
</glyph>
<glyph name="uni0196" format="2">
  <advance width="300"/>
  <unicode hex="0196"/>
  <anchor x="169" y="0" name="bottom"/>
  <anchor x="127" y="714" name="top"/>
  <outline>
    <contour>
      <point x="180" y="-10" type="curve" smooth="yes"/>
      <point x="203" y="-10"/>
      <point x="226" y="-4"/>
      <point x="243" y="6" type="curve"/>
      <point x="243" y="73" type="line"/>
      <point x="228" y="65"/>
      <point x="213" y="61"/>
      <point x="200" y="61" type="curve" smooth="yes"/>
      <point x="177" y="61"/>
      <point x="158" y="80"/>
      <point x="158" y="136" type="curve" smooth="yes"/>
      <point x="158" y="714" type="line"/>
      <point x="89" y="714" type="line"/>
      <point x="89" y="132" type="line" smooth="yes"/>
      <point x="89" y="31"/>
      <point x="125" y="-10"/>
    </contour>
  </outline>
</glyph>
<glyph name="uni019A" format="2">
  <advance width="300"/>
  <unicode hex="019A"/>
  <anchor x="149" y="0" name="bottom"/>
  <anchor x="149" y="760" name="top"/>
  <anchor x="253" y="760" name="topright"/>
  <anchor x="163" y="371" name="center"/>
  <outline>
    <contour>
      <point x="53" y="351" type="line"/>
      <point x="248" y="351" type="line"/>
      <point x="248" y="409" type="line"/>
      <point x="53" y="409" type="line"/>
    </contour>
    <component base="l" xOffset="10"/>
  </outline>
</glyph>
<glyph name="uni019D" format="2">
  <advance width="300"/>
  <unicode hex="019D"/>
  <anchor x="150" y="-178" name="bottom"/>
  <anchor x="150" y="714" name="top"/>
  <anchor x="299" y="714" name="topright"/>
  <outline>
    <contour>
      <point x="11" y="-178" type="curve" smooth="yes"/>
      <point x="65" y="-178"/>
      <point x="93" y="-127"/>
      <point x="93" y="-2" type="curve" smooth="yes"/>
      <point x="93" y="127" type="line"/>
      <point x="29" y="112" type="line"/>
      <point x="29" y="14" type="line" smooth="yes"/>
      <point x="29" y="-75"/>
      <point x="22" y="-112"/>
      <point x="-1" y="-112" type="curve" smooth="yes"/>
      <point x="-12" y="-112"/>
      <point x="-21" y="-108"/>
      <point x="-29" y="-102" type="curve"/>
      <point x="-29" y="-167" type="line"/>
      <point x="-16" y="-175"/>
      <point x="-4" y="-178"/>
    </contour>
    <component base="N" xOffset="10"/>
  </outline>
</glyph>
<glyph name="uni01A4" format="2">
  <advance width="300"/>
  <unicode hex="01A4"/>
  <anchor x="170" y="0" name="bottom"/>
  <anchor x="170" y="714" name="top"/>
  <outline>
    <contour>
      <point x="85" y="0" type="line"/>
      <point x="154" y="0" type="line"/>
      <point x="154" y="281" type="line"/>
      <point x="167" y="281" type="line" smooth="yes"/>
      <point x="244" y="281"/>
      <point x="278" y="374"/>
      <point x="278" y="506" type="curve" smooth="yes"/>
      <point x="278" y="640"/>
      <point x="242" y="714"/>
      <point x="169" y="714" type="curve" smooth="yes"/>
      <point x="93" y="714" type="line" smooth="yes"/>
      <point x="34" y="714"/>
      <point x="13" y="661"/>
      <point x="13" y="587" type="curve" smooth="yes"/>
      <point x="13" y="557"/>
      <point x="15" y="534"/>
      <point x="17" y="521" type="curve"/>
      <point x="64" y="521" type="line"/>
      <point x="63" y="531"/>
      <point x="61" y="553"/>
      <point x="61" y="582" type="curve" smooth="yes"/>
      <point x="61" y="618"/>
      <point x="69" y="645"/>
      <point x="85" y="646" type="curve"/>
    </contour>
    <contour>
      <point x="154" y="353" type="line"/>
      <point x="154" y="646" type="line"/>
      <point x="166" y="646" type="line" smooth="yes"/>
      <point x="197" y="646"/>
      <point x="212" y="598"/>
      <point x="212" y="502" type="curve" smooth="yes"/>
      <point x="212" y="393"/>
      <point x="196" y="353"/>
      <point x="165" y="353" type="curve" smooth="yes"/>
    </contour>
  </outline>
</glyph>
<glyph name="uni01A5" format="2">
  <advance width="300"/>
  <unicode hex="01A5"/>
  <anchor x="161" y="-240" name="bottom"/>
  <anchor x="161" y="765" name="top"/>
  <outline>
    <contour>
      <point x="36" y="-240" type="line"/>
      <point x="104" y="-240" type="line"/>
      <point x="104" y="-9" type="line" smooth="yes"/>
      <point x="104" y="14"/>
      <point x="102" y="50"/>
      <point x="100" y="72" type="curve"/>
      <point x="104" y="72" type="line"/>
      <point x="119" y="28"/>
      <point x="141" y="-10"/>
      <point x="175" y="-10" type="curve" smooth="yes"/>
      <point x="230" y="-10"/>
      <point x="273" y="86"/>
      <point x="273" y="269" type="curve" smooth="yes"/>
      <point x="273" y="452"/>
      <point x="242" y="546"/>
      <point x="178" y="546" type="curve" smooth="yes"/>
      <point x="138" y="546"/>
      <point x="116" y="506"/>
      <point x="102" y="458" type="curve"/>
      <point x="99" y="458" type="line"/>
      <point x="102" y="488"/>
      <point x="104" y="510"/>
      <point x="104" y="544" type="curve" smooth="yes"/>
      <point x="104" y="624" type="line" smooth="yes"/>
      <point x="104" y="679"/>
      <point x="112" y="697"/>
      <point x="129" y="697" type="curve" smooth="yes"/>
      <point x="137" y="697"/>
      <point x="145" y="694"/>
      <point x="153" y="689" type="curve"/>
      <point x="153" y="756" type="line"/>
      <point x="145" y="761"/>
      <point x="125" y="765"/>
      <point x="113" y="765" type="curve" smooth="yes"/>
      <point x="61" y="765"/>
      <point x="36" y="717"/>
      <point x="36" y="628" type="curve" smooth="yes"/>
    </contour>
    <contour>
      <point x="155" y="59" type="curve" smooth="yes"/>
      <point x="122" y="59"/>
      <point x="104" y="135"/>
      <point x="104" y="266" type="curve" smooth="yes"/>
      <point x="104" y="288" type="line" smooth="yes"/>
      <point x="104" y="407"/>
      <point x="122" y="478"/>
      <point x="154" y="478" type="curve" smooth="yes"/>
      <point x="188" y="478"/>
      <point x="201" y="408"/>
      <point x="201" y="270" type="curve" smooth="yes"/>
      <point x="201" y="133"/>
      <point x="186" y="59"/>
    </contour>
  </outline>
</glyph>
<glyph name="uni01A6" format="2">
  <advance width="300"/>
  <unicode hex="01A6"/>
  <anchor x="159" y="-99" name="bottom"/>
  <anchor x="159" y="714" name="top"/>
  <outline>
    <contour>
      <point x="204" y="-100" type="line"/>
      <point x="278" y="-100" type="line"/>
      <point x="204" y="215" type="line"/>
      <point x="250" y="249"/>
      <point x="266" y="318"/>
      <point x="266" y="416" type="curve" smooth="yes"/>
      <point x="266" y="549"/>
      <point x="221" y="614"/>
      <point x="129" y="614" type="curve" smooth="yes"/>
      <point x="110" y="614" type="line"/>
      <point x="110" y="714" type="line"/>
      <point x="41" y="714" type="line"/>
      <point x="41" y="0" type="line"/>
      <point x="110" y="0" type="line"/>
      <point x="110" y="201" type="line"/>
      <point x="143" y="201" type="line"/>
    </contour>
    <contour>
      <point x="110" y="271" type="line"/>
      <point x="110" y="543" type="line"/>
      <point x="128" y="543" type="line" smooth="yes"/>
      <point x="176" y="543"/>
      <point x="198" y="505"/>
      <point x="198" y="411" type="curve" smooth="yes"/>
      <point x="198" y="315"/>
      <point x="174" y="271"/>
      <point x="131" y="271" type="curve" smooth="yes"/>
    </contour>
  </outline>
</glyph>
<glyph name="uni01AA" format="2">
  <advance width="300"/>
  <unicode hex="01AA"/>
  <anchor x="156" y="-240" name="bottom"/>
  <anchor x="156" y="770" name="top"/>
  <outline>
    <contour>
      <point x="204" y="-240" type="curve" smooth="yes"/>
      <point x="226" y="-240"/>
      <point x="246" y="-233"/>
      <point x="262" y="-220" type="curve"/>
      <point x="262" y="-155" type="line"/>
      <point x="249" y="-165"/>
      <point x="238" y="-172"/>
      <point x="224" y="-172" type="curve" smooth="yes"/>
      <point x="204" y="-172"/>
      <point x="189" y="-140"/>
      <point x="189" y="-74" type="curve" smooth="yes"/>
      <point x="189" y="616" type="line" smooth="yes"/>
      <point x="189" y="717"/>
      <point x="166" y="765"/>
      <point x="108" y="765" type="curve" smooth="yes"/>
      <point x="54" y="765"/>
      <point x="28" y="708"/>
      <point x="28" y="651" type="curve" smooth="yes"/>
      <point x="28" y="582"/>
      <point x="52" y="534"/>
      <point x="106" y="534" type="curve" smooth="yes"/>
      <point x="119" y="534" type="line"/>
      <point x="119" y="-75" type="line" smooth="yes"/>
      <point x="119" y="-193"/>
      <point x="150" y="-240"/>
    </contour>
    <contour>
      <point x="106" y="598" type="line" smooth="yes"/>
      <point x="83" y="598"/>
      <point x="73" y="617"/>
      <point x="73" y="649" type="curve" smooth="yes"/>
      <point x="73" y="680"/>
      <point x="82" y="699"/>
      <point x="95" y="699" type="curve" smooth="yes"/>
      <point x="110" y="699"/>
      <point x="119" y="669"/>
      <point x="119" y="621" type="curve" smooth="yes"/>
      <point x="119" y="598" type="line"/>
    </contour>
  </outline>
</glyph>
<glyph name="uni01AC" format="2">
  <advance width="300"/>
  <unicode hex="01AC"/>
  <anchor x="158" y="0" name="bottom"/>
  <anchor x="158" y="714" name="top"/>
  <outline>
    <contour>
      <point x="123" y="0" type="line"/>
      <point x="192" y="0" type="line"/>
      <point x="192" y="641" type="line"/>
      <point x="277" y="641" type="line"/>
      <point x="277" y="714" type="line"/>
      <point x="108" y="714" type="line" smooth="yes"/>
      <point x="41" y="714"/>
      <point x="19" y="651"/>
      <point x="19" y="572" type="curve" smooth="yes"/>
      <point x="19" y="551"/>
      <point x="23" y="530"/>
      <point x="25" y="518" type="curve"/>
      <point x="80" y="518" type="line"/>
      <point x="79" y="527"/>
      <point x="76" y="548"/>
      <point x="76" y="570" type="curve" smooth="yes"/>
      <point x="76" y="613"/>
      <point x="84" y="641"/>
      <point x="103" y="641" type="curve" smooth="yes"/>
      <point x="123" y="641" type="line"/>
    </contour>
  </outline>
</glyph>
<glyph name="uni01BA" format="2">
  <advance width="300"/>
  <unicode hex="01BA"/>
  <anchor x="149" y="-240" name="bottom"/>
  <anchor x="149" y="535" name="top"/>
  <outline>
    <contour>
      <point x="141" y="-240" type="curve" smooth="yes"/>
      <point x="185" y="-240"/>
      <point x="225" y="-230"/>
      <point x="248" y="-215" type="curve"/>
      <point x="248" y="-145" type="line"/>
      <point x="225" y="-160"/>
      <point x="193" y="-172"/>
      <point x="150" y="-172" type="curve" smooth="yes"/>
      <point x="118" y="-172"/>
      <point x="102" y="-152"/>
      <point x="102" y="-121" type="curve" smooth="yes"/>
      <point x="102" y="-86"/>
      <point x="113" y="-69"/>
      <point x="160" y="-68" type="curve" smooth="yes"/>
      <point x="225" y="-67"/>
      <point x="266" y="11"/>
      <point x="266" y="125" type="curve" smooth="yes"/>
      <point x="266" y="242"/>
      <point x="226" y="301"/>
      <point x="166" y="306" type="curve"/>
      <point x="254" y="475" type="line"/>
      <point x="254" y="535" type="line"/>
      <point x="47" y="535" type="line"/>
      <point x="47" y="466" type="line"/>
      <point x="158" y="466" type="line"/>
      <point x="82" y="298" type="line"/>
      <point x="82" y="240" type="line"/>
      <point x="119" y="240" type="line" smooth="yes"/>
      <point x="165" y="240"/>
      <point x="192" y="211"/>
      <point x="192" y="124" type="curve" smooth="yes"/>
      <point x="192" y="37"/>
      <point x="169" y="1"/>
      <point x="139" y="0" type="curve" smooth="yes"/>
      <point x="60" y="-2"/>
      <point x="31" y="-55"/>
      <point x="31" y="-121" type="curve" smooth="yes"/>
      <point x="31" y="-207"/>
      <point x="72" y="-240"/>
    </contour>
  </outline>
</glyph>
<glyph name="uni01BD" format="2">
  <advance width="300"/>
  <unicode hex="01BD"/>
  <anchor x="150" y="0" name="bottom"/>
  <anchor x="150" y="535" name="top"/>
  <outline>
    <contour>
      <point x="132" y="-10" type="curve" smooth="yes"/>
      <point x="222" y="-10"/>
      <point x="261" y="78"/>
      <point x="261" y="175" type="curve" smooth="yes"/>
      <point x="261" y="274"/>
      <point x="224" y="341"/>
      <point x="161" y="341" type="curve" smooth="yes"/>
      <point x="148" y="341" type="line"/>
      <point x="148" y="466" type="line"/>
      <point x="254" y="466" type="line"/>
      <point x="254" y="535" type="line"/>
      <point x="35" y="535" type="line"/>
      <point x="35" y="466" type="line"/>
      <point x="81" y="466" type="line"/>
      <point x="81" y="274" type="line"/>
      <point x="123" y="274" type="line" smooth="yes"/>
      <point x="169" y="274"/>
      <point x="188" y="242"/>
      <point x="188" y="170" type="curve" smooth="yes"/>
      <point x="188" y="92"/>
      <point x="170" y="58"/>
      <point x="122" y="58" type="curve" smooth="yes"/>
      <point x="88" y="58"/>
      <point x="58" y="80"/>
      <point x="34" y="100" type="curve"/>
      <point x="34" y="25" type="line"/>
      <point x="57" y="7"/>
      <point x="90" y="-10"/>
    </contour>
  </outline>
</glyph>
<glyph name="uni01BF" format="2">
  <advance width="300"/>
  <unicode hex="01BF"/>
  <anchor x="163" y="-240" name="bottom"/>
  <anchor x="163" y="553" name="top"/>
  <outline>
    <contour>
      <point x="43" y="-239" type="line"/>
      <point x="111" y="-239" type="line"/>
      <point x="111" y="-10" type="line"/>
      <point x="179" y="-7"/>
      <point x="269" y="95"/>
      <point x="269" y="323" type="curve" smooth="yes"/>
      <point x="269" y="461"/>
      <point x="238" y="546"/>
      <point x="180" y="546" type="curve" smooth="yes"/>
      <point x="149" y="546"/>
      <point x="128" y="523"/>
      <point x="111" y="461" type="curve"/>
      <point x="107" y="461" type="line"/>
      <point x="97" y="536" type="line"/>
      <point x="43" y="536" type="line"/>
    </contour>
    <contour>
      <point x="111" y="57" type="curve"/>
      <point x="111" y="285" type="line" smooth="yes"/>
      <point x="111" y="419"/>
      <point x="125" y="480"/>
      <point x="158" y="480" type="curve" smooth="yes"/>
      <point x="186" y="480"/>
      <point x="198" y="412"/>
      <point x="198" y="322" type="curve" smooth="yes"/>
      <point x="198" y="137"/>
      <point x="150" y="58"/>
    </contour>
  </outline>
</glyph>
<glyph name="uni01C2" format="2">
  <advance width="300"/>
  <unicode hex="01C2"/>
  <anchor x="150" y="0" name="bottom"/>
  <anchor x="150" y="763" name="top"/>
  <outline>
    <contour>
      <point x="59" y="456" type="line"/>
      <point x="241" y="456" type="line"/>
      <point x="241" y="519" type="line"/>
      <point x="59" y="519" type="line"/>
    </contour>
    <contour>
      <point x="59" y="243" type="line"/>
      <point x="241" y="243" type="line"/>
      <point x="241" y="307" type="line"/>
      <point x="59" y="307" type="line"/>
    </contour>
    <component base="uni01C0" xOffset="10"/>
  </outline>
</glyph>
<glyph name="uni01E4" format="2">
  <advance width="300"/>
  <unicode hex="01E4"/>
  <anchor x="181" y="0" name="bottom"/>
  <anchor x="178" y="714" name="top"/>
  <outline>
    <contour>
      <point x="178" y="-10" type="curve" smooth="yes"/>
      <point x="210" y="-10"/>
      <point x="241" y="2"/>
      <point x="270" y="25" type="curve"/>
      <point x="270" y="380" type="line"/>
      <point x="162" y="380" type="line"/>
      <point x="162" y="307" type="line"/>
      <point x="206" y="307" type="line"/>
      <point x="206" y="76" type="line"/>
      <point x="197" y="66"/>
      <point x="183" y="60"/>
      <point x="169" y="60" type="curve" smooth="yes"/>
      <point x="115" y="60"/>
      <point x="91" y="190"/>
      <point x="91" y="357" type="curve" smooth="yes"/>
      <point x="91" y="546"/>
      <point x="119" y="656"/>
      <point x="186" y="656" type="curve" smooth="yes"/>
      <point x="207" y="656"/>
      <point x="226" y="646"/>
      <point x="247" y="618" type="curve"/>
      <point x="267" y="682" type="line"/>
      <point x="245" y="712"/>
      <point x="216" y="726"/>
      <point x="180" y="726" type="curve" smooth="yes"/>
      <point x="80" y="726"/>
      <point x="22" y="572"/>
      <point x="22" y="359" type="curve" smooth="yes"/>
      <point x="22" y="147"/>
      <point x="71" y="-10"/>
    </contour>
    <contour>
      <point x="162" y="162" type="line"/>
      <point x="289" y="162" type="line"/>
      <point x="289" y="223" type="line"/>
      <point x="162" y="223" type="line"/>
    </contour>
  </outline>
</glyph>
<glyph name="uni01E5" format="2">
  <advance width="300"/>
  <unicode hex="01E5"/>
  <anchor x="150" y="-245" name="bottom"/>
  <anchor x="150" y="546" name="top"/>
  <outline>
    <contour>
      <point x="135" y="-240" type="curve" smooth="yes"/>
      <point x="216" y="-240"/>
      <point x="255" y="-177"/>
      <point x="262" y="-91" type="curve"/>
      <point x="295" y="-91" type="line"/>
      <point x="295" y="-39" type="line"/>
      <point x="264" y="-39" type="line"/>
      <point x="264" y="536" type="line"/>
      <point x="205" y="536" type="line"/>
      <point x="199" y="463" type="line"/>
      <point x="196" y="463" type="line"/>
      <point x="183" y="517"/>
      <point x="158" y="546"/>
      <point x="123" y="546" type="curve" smooth="yes"/>
      <point x="62" y="546"/>
      <point x="27" y="453"/>
      <point x="27" y="276" type="curve" smooth="yes"/>
      <point x="27" y="111"/>
      <point x="61" y="19"/>
      <point x="120" y="19" type="curve" smooth="yes"/>
      <point x="158" y="19"/>
      <point x="183" y="47"/>
      <point x="195" y="107" type="curve"/>
      <point x="198" y="107" type="line"/>
      <point x="196" y="74"/>
      <point x="195" y="44"/>
      <point x="195" y="21" type="curve" smooth="yes"/>
      <point x="195" y="-39" type="line"/>
      <point x="117" y="-39" type="line"/>
      <point x="117" y="-91" type="line"/>
      <point x="192" y="-91" type="line"/>
      <point x="187" y="-147"/>
      <point x="167" y="-178"/>
      <point x="132" y="-178" type="curve" smooth="yes"/>
      <point x="103" y="-178"/>
      <point x="76" y="-169"/>
      <point x="45" y="-144" type="curve"/>
      <point x="45" y="-210" type="line"/>
      <point x="70" y="-230"/>
      <point x="97" y="-240"/>
    </contour>
    <contour>
      <point x="148" y="86" type="curve" smooth="yes"/>
      <point x="116" y="86"/>
      <point x="100" y="147"/>
      <point x="100" y="277" type="curve" smooth="yes"/>
      <point x="100" y="405"/>
      <point x="116" y="479"/>
      <point x="151" y="479" type="curve" smooth="yes"/>
      <point x="184" y="479"/>
      <point x="197" y="415"/>
      <point x="197" y="297" type="curve" smooth="yes"/>
      <point x="197" y="268" type="line" smooth="yes"/>
      <point x="197" y="151"/>
      <point x="185" y="86"/>
    </contour>
  </outline>
</glyph>
<glyph name="uni01F6" format="2">
  <advance width="300"/>
  <unicode hex="01F6"/>
  <anchor x="150" y="0" name="bottom"/>
  <anchor x="150" y="357" name="center"/>
  <anchor x="150" y="714" name="top"/>
  <anchor x="21" y="714" name="topleft"/>
  <outline>
    <contour>
      <point x="199" y="-10" type="curve" smooth="yes"/>
      <point x="246" y="-10"/>
      <point x="271" y="44"/>
      <point x="271" y="107" type="curve" smooth="yes"/>
      <point x="271" y="536" type="line"/>
      <point x="213" y="536" type="line"/>
      <point x="213" y="110" type="line" smooth="yes"/>
      <point x="213" y="78"/>
      <point x="208" y="60"/>
      <point x="199" y="60" type="curve" smooth="yes"/>
      <point x="189" y="60"/>
      <point x="184" y="79"/>
      <point x="184" y="110" type="curve" smooth="yes"/>
      <point x="184" y="714" type="line"/>
      <point x="126" y="714" type="line"/>
      <point x="126" y="409" type="line"/>
      <point x="91" y="409" type="line"/>
      <point x="91" y="714" type="line"/>
      <point x="33" y="714" type="line"/>
      <point x="33" y="0" type="line"/>
      <point x="91" y="0" type="line"/>
      <point x="91" y="338" type="line"/>
      <point x="126" y="338" type="line"/>
      <point x="126" y="107" type="line" smooth="yes"/>
      <point x="126" y="44"/>
      <point x="148" y="-10"/>
    </contour>
  </outline>
</glyph>
<glyph name="uni0221" format="2">
  <advance width="300"/>
  <unicode hex="0221"/>
  <anchor x="149" y="-99" name="bottom"/>
  <anchor x="149" y="760" name="top"/>
  <outline>
    <contour>
      <point x="200" y="-99" type="line"/>
      <point x="201" y="-63"/>
      <point x="203" y="-23"/>
      <point x="205" y="6" type="curve"/>
      <point x="210" y="0"/>
      <point x="217" y="-2"/>
      <point x="222" y="-2" type="curve" smooth="yes"/>
      <point x="265" y="-2"/>
      <point x="283" y="51"/>
      <point x="283" y="123" type="curve" smooth="yes"/>
      <point x="283" y="189"/>
      <point x="265" y="227"/>
      <point x="234" y="227" type="curve" smooth="yes"/>
      <point x="211" y="227"/>
      <point x="196" y="182"/>
      <point x="187" y="102" type="curve"/>
      <point x="185" y="115"/>
      <point x="183" y="132"/>
      <point x="183" y="154" type="curve" smooth="yes"/>
      <point x="183" y="760" type="line"/>
      <point x="129" y="760" type="line"/>
      <point x="129" y="558" type="line" smooth="yes"/>
      <point x="129" y="536"/>
      <point x="129" y="522"/>
      <point x="130" y="499" type="curve"/>
      <point x="128" y="499" type="line"/>
      <point x="121" y="528"/>
      <point x="109" y="546"/>
      <point x="90" y="546" type="curve" smooth="yes"/>
      <point x="48" y="546"/>
      <point x="23" y="465"/>
      <point x="23" y="267" type="curve" smooth="yes"/>
      <point x="23" y="58"/>
      <point x="47" y="-10"/>
      <point x="91" y="-10" type="curve" smooth="yes"/>
      <point x="118" y="-10"/>
      <point x="134" y="14"/>
      <point x="142" y="72" type="curve"/>
      <point x="145" y="72" type="line"/>
      <point x="148" y="54"/>
      <point x="159" y="35"/>
      <point x="169" y="25" type="curve"/>
      <point x="167" y="-9"/>
      <point x="164" y="-56"/>
      <point x="163" y="-97" type="curve"/>
    </contour>
    <contour>
      <point x="105" y="53" type="curve" smooth="yes"/>
      <point x="86" y="53"/>
      <point x="79" y="97"/>
      <point x="79" y="267" type="curve" smooth="yes"/>
      <point x="79" y="435"/>
      <point x="89" y="481"/>
      <point x="105" y="481" type="curve" smooth="yes"/>
      <point x="120" y="481"/>
      <point x="129" y="447"/>
      <point x="129" y="278" type="curve" smooth="yes"/>
      <point x="129" y="241" type="line" smooth="yes"/>
      <point x="129" y="97"/>
      <point x="120" y="53"/>
    </contour>
    <contour>
      <point x="224" y="57" type="curve" smooth="yes"/>
      <point x="219" y="57"/>
      <point x="213" y="61"/>
      <point x="210" y="66" type="curve"/>
      <point x="212" y="116"/>
      <point x="217" y="168"/>
      <point x="229" y="168" type="curve" smooth="yes"/>
      <point x="238" y="168"/>
      <point x="243" y="151"/>
      <point x="243" y="118" type="curve" smooth="yes"/>
      <point x="243" y="83"/>
      <point x="236" y="57"/>
    </contour>
  </outline>
</glyph>
<glyph name="uni0222" format="2">
  <advance width="300"/>
  <unicode hex="0222"/>
  <anchor x="150" y="0" name="bottom"/>
  <anchor x="150" y="714" name="top"/>
  <outline>
    <contour>
      <point x="149" y="-10" type="curve" smooth="yes"/>
      <point x="231" y="-10"/>
      <point x="268" y="93"/>
      <point x="268" y="221" type="curve" smooth="yes"/>
      <point x="268" y="311"/>
      <point x="250" y="387"/>
      <point x="214" y="418" type="curve"/>
      <point x="241" y="447"/>
      <point x="253" y="502"/>
      <point x="253" y="609" type="curve" smooth="yes"/>
      <point x="253" y="714" type="line"/>
      <point x="188" y="714" type="line"/>
      <point x="188" y="604" type="line" smooth="yes"/>
      <point x="188" y="488"/>
      <point x="174" y="449"/>
      <point x="149" y="449" type="curve" smooth="yes"/>
      <point x="125" y="449"/>
      <point x="110" y="489"/>
      <point x="110" y="603" type="curve" smooth="yes"/>
      <point x="110" y="714" type="line"/>
      <point x="45" y="714" type="line"/>
      <point x="45" y="608" type="line" smooth="yes"/>
      <point x="45" y="505"/>
      <point x="58" y="448"/>
      <point x="84" y="419" type="curve"/>
      <point x="51" y="392"/>
      <point x="30" y="327"/>
      <point x="30" y="222" type="curve" smooth="yes"/>
      <point x="30" y="96"/>
      <point x="68" y="-10"/>
    </contour>
    <contour>
      <point x="149" y="62" type="curve" smooth="yes"/>
      <point x="116" y="62"/>
      <point x="97" y="117"/>
      <point x="97" y="222" type="curve" smooth="yes"/>
      <point x="97" y="326"/>
      <point x="116" y="380"/>
      <point x="149" y="380" type="curve" smooth="yes"/>
      <point x="182" y="380"/>
      <point x="200" y="327"/>
      <point x="200" y="222" type="curve" smooth="yes"/>
      <point x="200" y="115"/>
      <point x="183" y="62"/>
    </contour>
  </outline>
</glyph>
<glyph name="uni0224" format="2">
  <advance width="300"/>
  <unicode hex="0224"/>
  <anchor x="162" y="-240" name="bottom"/>
  <anchor x="151" y="714" name="top"/>
  <anchor x="288" y="714" name="topright"/>
  <outline>
    <contour>
      <point x="188" y="-190" type="curve" smooth="yes"/>
      <point x="238" y="-190"/>
      <point x="269" y="-147"/>
      <point x="269" y="-62" type="curve" smooth="yes"/>
      <point x="269" y="73" type="line"/>
      <point x="202" y="73" type="line"/>
      <point x="202" y="0" type="line"/>
      <point x="207" y="0" type="line"/>
      <point x="207" y="-60" type="line" smooth="yes"/>
      <point x="207" y="-104"/>
      <point x="197" y="-124"/>
      <point x="170" y="-124" type="curve" smooth="yes"/>
      <point x="162" y="-124"/>
      <point x="154" y="-121"/>
      <point x="145" y="-115" type="curve"/>
      <point x="145" y="-181" type="line"/>
      <point x="156" y="-187"/>
      <point x="167" y="-190"/>
    </contour>
    <component base="Z" xOffset="10"/>
  </outline>
</glyph>
<glyph name="uni0235" format="2">
  <advance width="300"/>
  <unicode hex="0235"/>
  <anchor x="139" y="0" name="bottom"/>
  <anchor x="142" y="535" name="top"/>
  <outline>
    <contour>
      <point x="159" y="-28" type="line"/>
      <point x="161" y="2"/>
      <point x="164" y="27"/>
      <point x="168" y="49" type="curve"/>
      <point x="176" y="12"/>
      <point x="191" y="-10"/>
      <point x="219" y="-10" type="curve" smooth="yes"/>
      <point x="261" y="-10"/>
      <point x="282" y="36"/>
      <point x="282" y="104" type="curve" smooth="yes"/>
      <point x="282" y="173"/>
      <point x="261" y="220"/>
      <point x="226" y="220" type="curve" smooth="yes"/>
      <point x="216" y="220"/>
      <point x="209" y="213"/>
      <point x="204" y="205" type="curve"/>
      <point x="204" y="389" type="line" smooth="yes"/>
      <point x="204" y="499"/>
      <point x="180" y="546"/>
      <point x="142" y="546" type="curve" smooth="yes"/>
      <point x="109" y="546"/>
      <point x="94" y="515"/>
      <point x="86" y="478" type="curve"/>
      <point x="83" y="478" type="line"/>
      <point x="77" y="536" type="line"/>
      <point x="28" y="536" type="line"/>
      <point x="28" y="0" type="line"/>
      <point x="90" y="0" type="line"/>
      <point x="90" y="355" type="line" smooth="yes"/>
      <point x="90" y="445"/>
      <point x="100" y="479"/>
      <point x="118" y="479" type="curve" smooth="yes"/>
      <point x="134" y="479"/>
      <point x="142" y="448"/>
      <point x="142" y="374" type="curve" smooth="yes"/>
      <point x="142" y="168" type="line" smooth="yes"/>
      <point x="142" y="160"/>
      <point x="142" y="146"/>
      <point x="143" y="139" type="curve"/>
      <point x="132" y="103"/>
      <point x="122" y="54"/>
      <point x="117" y="-7" type="curve"/>
    </contour>
    <contour>
      <point x="218" y="48" type="curve" smooth="yes"/>
      <point x="208" y="48"/>
      <point x="204" y="83"/>
      <point x="203" y="138" type="curve"/>
      <point x="206" y="151"/>
      <point x="211" y="162"/>
      <point x="218" y="162" type="curve" smooth="yes"/>
      <point x="227" y="162"/>
      <point x="232" y="141"/>
      <point x="232" y="104" type="curve" smooth="yes"/>
      <point x="232" y="74"/>
      <point x="228" y="48"/>
    </contour>
  </outline>
</glyph>
<glyph name="uni0240" format="2">
  <advance width="300"/>
  <unicode hex="0240"/>
  <anchor x="166" y="-240" name="bottom"/>
  <anchor x="148" y="535" name="top"/>
  <outline>
    <contour>
      <point x="215" y="-239" type="curve" smooth="yes"/>
      <point x="231" y="-239"/>
      <point x="247" y="-232"/>
      <point x="257" y="-224" type="curve"/>
      <point x="257" y="-161" type="line"/>
      <point x="249" y="-168"/>
      <point x="240" y="-174"/>
      <point x="232" y="-174" type="curve" smooth="yes"/>
      <point x="208" y="-174"/>
      <point x="200" y="-142"/>
      <point x="189" y="-65" type="curve" smooth="yes"/>
      <point x="178" y="9"/>
      <point x="166" y="52"/>
      <point x="123" y="62" type="curve"/>
      <point x="252" y="470" type="line"/>
      <point x="252" y="535" type="line"/>
      <point x="47" y="535" type="line"/>
      <point x="47" y="468" type="line"/>
      <point x="171" y="468" type="line"/>
      <point x="41" y="56" type="line"/>
      <point x="41" y="0" type="line"/>
      <point x="74" y="0" type="line" smooth="yes"/>
      <point x="106" y="0"/>
      <point x="115" y="-42"/>
      <point x="125" y="-92" type="curve" smooth="yes"/>
      <point x="140" y="-170"/>
      <point x="152" y="-239"/>
    </contour>
  </outline>
</glyph>
<glyph name="uni0246" format="2">
  <advance width="300"/>
  <unicode hex="0246"/>
  <anchor x="150" y="-75" name="bottom"/>
  <anchor x="156" y="760" name="top"/>
  <anchor x="31" y="714" name="topleft"/>
  <anchor x="235" y="10" name="ogonek"/>
  <anchor x="288" y="714" name="topright"/>
  <outline>
    <contour>
      <point x="119" y="-75" type="line"/>
      <point x="148" y="-75" type="line"/>
      <point x="232" y="760" type="line"/>
      <point x="203" y="760" type="line"/>
    </contour>
    <component base="E" xOffset="10"/>
  </outline>
</glyph>
<glyph name="uni0247" format="2">
  <advance width="300"/>
  <unicode hex="0247"/>
  <anchor x="150" y="-206" name="bottom"/>
  <anchor x="150" y="760" name="top"/>
  <anchor x="168" y="10" name="ogonek"/>
  <anchor x="295" y="535" name="topright"/>
  <outline>
    <contour>
      <point x="55" y="-206" type="line"/>
      <point x="95" y="-206" type="line"/>
      <point x="228" y="760" type="line"/>
      <point x="188" y="760" type="line"/>
    </contour>
    <component base="e" xOffset="10"/>
  </outline>
</glyph>
<glyph name="uni0248" format="2">
  <advance width="300"/>
  <unicode hex="0248"/>
  <anchor x="150" y="-190" name="bottom"/>
  <anchor x="160" y="714" name="top"/>
  <outline>
    <contour>
      <point x="57" y="-190" type="curve" smooth="yes"/>
      <point x="149" y="-190"/>
      <point x="193" y="-102"/>
      <point x="193" y="23" type="curve" smooth="yes"/>
      <point x="193" y="714" type="line"/>
      <point x="125" y="714" type="line"/>
      <point x="125" y="38" type="line" smooth="yes"/>
      <point x="125" y="-62"/>
      <point x="96" y="-119"/>
      <point x="49" y="-119" type="curve" smooth="yes"/>
      <point x="32" y="-119"/>
      <point x="11" y="-108"/>
      <point x="-12" y="-89" type="curve"/>
      <point x="-12" y="-160" type="line"/>
      <point x="9" y="-178"/>
      <point x="32" y="-190"/>
    </contour>
    <contour>
      <point x="47" y="324" type="line"/>
      <point x="262" y="324" type="line"/>
      <point x="262" y="386" type="line"/>
      <point x="47" y="386" type="line"/>
    </contour>
  </outline>
</glyph>
<glyph name="uni0249" format="2">
  <advance width="300"/>
  <unicode hex="0249"/>
  <anchor x="150" y="-245" name="bottom"/>
  <anchor x="173" y="761" name="top"/>
  <anchor x="289" y="761" name="topright"/>
  <outline>
    <contour>
      <point x="69" y="210" type="line"/>
      <point x="272" y="210" type="line"/>
      <point x="272" y="269" type="line"/>
      <point x="69" y="269" type="line"/>
    </contour>
    <component base="j" xOffset="10"/>
  </outline>
</glyph>
<glyph name="uni024D" format="2">
  <advance width="300"/>
  <unicode hex="024D"/>
  <anchor x="134" y="0" name="bottom"/>
  <anchor x="158" y="535" name="top"/>
  <anchor x="289" y="535" name="topright"/>
  <outline>
    <contour>
      <point x="39" y="230" type="line"/>
      <point x="227" y="230" type="line"/>
      <point x="227" y="288" type="line"/>
      <point x="39" y="288" type="line"/>
    </contour>
    <component base="r" xOffset="10"/>
  </outline>
</glyph>
<glyph name="uni024F" format="2">
  <advance width="300"/>
  <unicode hex="024F"/>
  <anchor x="150" y="-245" name="bottom"/>
  <anchor x="150" y="535" name="top"/>
  <anchor x="288" y="535" name="topright"/>
  <outline>
    <contour>
      <point x="18" y="309" type="line"/>
      <point x="284" y="309" type="line"/>
      <point x="284" y="360" type="line"/>
      <point x="18" y="360" type="line"/>
    </contour>
    <component base="y" xOffset="10"/>
  </outline>
</glyph>
<glyph name="uni0253" format="2">
  <advance width="300"/>
  <unicode hex="0253"/>
  <anchor x="150" y="0" name="bottom"/>
  <anchor x="150" y="765" name="top"/>
  <outline>
    <contour>
      <point x="173" y="-10" type="curve" smooth="yes"/>
      <point x="233" y="-10"/>
      <point x="273" y="87"/>
      <point x="273" y="269" type="curve" smooth="yes"/>
      <point x="273" y="450"/>
      <point x="240" y="546"/>
      <point x="176" y="546" type="curve" smooth="yes"/>
      <point x="144" y="546"/>
      <point x="117" y="510"/>
      <point x="103" y="460" type="curve"/>
      <point x="101" y="460" type="line"/>
      <point x="103" y="496"/>
      <point x="104" y="533"/>
      <point x="104" y="569" type="curve" smooth="yes"/>
      <point x="104" y="624" type="line" smooth="yes"/>
      <point x="104" y="680"/>
      <point x="112" y="697"/>
      <point x="132" y="697" type="curve" smooth="yes"/>
      <point x="139" y="697"/>
      <point x="147" y="694"/>
      <point x="154" y="689" type="curve"/>
      <point x="154" y="756" type="line"/>
      <point x="145" y="761"/>
      <point x="128" y="765"/>
      <point x="114" y="765" type="curve" smooth="yes"/>
      <point x="61" y="765"/>
      <point x="36" y="715"/>
      <point x="36" y="627" type="curve" smooth="yes"/>
      <point x="36" y="0" type="line"/>
      <point x="92" y="0" type="line"/>
      <point x="100" y="71" type="line"/>
      <point x="104" y="71" type="line"/>
      <point x="121" y="22"/>
      <point x="145" y="-10"/>
    </contour>
    <contour>
      <point x="151" y="59" type="curve" smooth="yes"/>
      <point x="117" y="59"/>
      <point x="102" y="128"/>
      <point x="102" y="273" type="curve" smooth="yes"/>
      <point x="102" y="411"/>
      <point x="117" y="478"/>
      <point x="152" y="478" type="curve" smooth="yes"/>
      <point x="186" y="478"/>
      <point x="201" y="408"/>
      <point x="201" y="267" type="curve" smooth="yes"/>
      <point x="201" y="132"/>
      <point x="185" y="59"/>
    </contour>
  </outline>
</glyph>
<glyph name="uni0256" format="2">
  <advance width="300"/>
  <unicode hex="0256"/>
  <anchor x="149" y="-240" name="bottom"/>
  <anchor x="149" y="760" name="top"/>
  <outline>
    <contour>
      <point x="267" y="-240" type="curve" smooth="yes"/>
      <point x="289" y="-240"/>
      <point x="308" y="-234"/>
      <point x="323" y="-225" type="curve"/>
      <point x="323" y="-160" type="line"/>
      <point x="312" y="-166"/>
      <point x="301" y="-172"/>
      <point x="289" y="-172" type="curve" smooth="yes"/>
      <point x="272" y="-172"/>
      <point x="263" y="-152"/>
      <point x="263" y="-103" type="curve" smooth="yes"/>
      <point x="263" y="760" type="line"/>
      <point x="196" y="760" type="line"/>
      <point x="196" y="540" type="line" smooth="yes"/>
      <point x="196" y="518"/>
      <point x="196" y="494"/>
      <point x="198" y="464" type="curve"/>
      <point x="196" y="464" type="line"/>
      <point x="182" y="515"/>
      <point x="160" y="546"/>
      <point x="123" y="546" type="curve" smooth="yes"/>
      <point x="65" y="546"/>
      <point x="26" y="446"/>
      <point x="26" y="267" type="curve" smooth="yes"/>
      <point x="26" y="87"/>
      <point x="62" y="-10"/>
      <point x="122" y="-10" type="curve" smooth="yes"/>
      <point x="159" y="-10"/>
      <point x="178" y="23"/>
      <point x="196" y="72" type="curve"/>
      <point x="198" y="72" type="line"/>
      <point x="196" y="47"/>
      <point x="196" y="22"/>
      <point x="196" y="-4" type="curve" smooth="yes"/>
      <point x="196" y="-104" type="line" smooth="yes"/>
      <point x="196" y="-199"/>
      <point x="220" y="-240"/>
    </contour>
    <contour>
      <point x="145" y="55" type="curve" smooth="yes"/>
      <point x="112" y="55"/>
      <point x="95" y="127"/>
      <point x="95" y="267" type="curve" smooth="yes"/>
      <point x="95" y="404"/>
      <point x="113" y="478"/>
      <point x="148" y="478" type="curve" smooth="yes"/>
      <point x="180" y="478"/>
      <point x="196" y="414"/>
      <point x="196" y="276" type="curve" smooth="yes"/>
      <point x="196" y="244" type="line" smooth="yes"/>
      <point x="196" y="118"/>
      <point x="180" y="55"/>
    </contour>
  </outline>
</glyph>
<glyph name="uni0257" format="2">
  <advance width="300"/>
  <unicode hex="0257"/>
  <anchor x="149" y="0" name="bottom"/>
  <anchor x="149" y="768" name="top"/>
  <outline>
    <contour>
      <point x="124" y="-10" type="curve" smooth="yes"/>
      <point x="160" y="-10"/>
      <point x="184" y="29"/>
      <point x="198" y="76" type="curve"/>
      <point x="201" y="76" type="line"/>
      <point x="207" y="0" type="line"/>
      <point x="263" y="0" type="line"/>
      <point x="263" y="628" type="line" smooth="yes"/>
      <point x="263" y="683"/>
      <point x="271" y="700"/>
      <point x="288" y="700" type="curve" smooth="yes"/>
      <point x="296" y="700"/>
      <point x="301" y="697"/>
      <point x="306" y="694" type="curve"/>
      <point x="306" y="761" type="line"/>
      <point x="299" y="765"/>
      <point x="286" y="768"/>
      <point x="271" y="768" type="curve" smooth="yes"/>
      <point x="223" y="768"/>
      <point x="200" y="720"/>
      <point x="200" y="631" type="curve" smooth="yes"/>
      <point x="200" y="544" type="line" smooth="yes"/>
      <point x="200" y="515"/>
      <point x="200" y="487"/>
      <point x="200" y="463" type="curve"/>
      <point x="196" y="463" type="line"/>
      <point x="182" y="508"/>
      <point x="158" y="546"/>
      <point x="126" y="546" type="curve" smooth="yes"/>
      <point x="63" y="546"/>
      <point x="26" y="449"/>
      <point x="26" y="266" type="curve" smooth="yes"/>
      <point x="26" y="85"/>
      <point x="59" y="-10"/>
    </contour>
    <contour>
      <point x="146" y="59" type="curve" smooth="yes"/>
      <point x="111" y="59"/>
      <point x="96" y="126"/>
      <point x="96" y="259" type="curve" smooth="yes"/>
      <point x="96" y="402"/>
      <point x="111" y="478"/>
      <point x="148" y="478" type="curve" smooth="yes"/>
      <point x="182" y="478"/>
      <point x="197" y="401"/>
      <point x="197" y="269" type="curve" smooth="yes"/>
      <point x="197" y="247" type="line" smooth="yes"/>
      <point x="197" y="131"/>
      <point x="178" y="59"/>
    </contour>
  </outline>
</glyph>
<glyph name="uni025E" format="2">
  <advance width="300"/>
  <unicode hex="025E"/>
  <anchor x="150" y="0" name="bottom"/>
  <anchor x="150" y="535" name="top"/>
  <outline>
    <contour>
      <point x="159" y="-10" type="curve" smooth="yes"/>
      <point x="233" y="-10"/>
      <point x="272" y="60"/>
      <point x="272" y="153" type="curve" smooth="yes"/>
      <point x="272" y="224"/>
      <point x="251" y="267"/>
      <point x="215" y="283" type="curve"/>
      <point x="215" y="287" type="line"/>
      <point x="243" y="306"/>
      <point x="261" y="344"/>
      <point x="261" y="405" type="curve" smooth="yes"/>
      <point x="261" y="487"/>
      <point x="226" y="546"/>
      <point x="161" y="546" type="curve" smooth="yes"/>
      <point x="74" y="546"/>
      <point x="29" y="451"/>
      <point x="29" y="266" type="curve" smooth="yes"/>
      <point x="29" y="89"/>
      <point x="66" y="-10"/>
    </contour>
    <contour>
      <point x="158" y="57" type="curve" smooth="yes"/>
      <point x="115" y="57"/>
      <point x="95" y="130"/>
      <point x="95" y="265" type="curve" smooth="yes"/>
      <point x="95" y="408"/>
      <point x="116" y="480"/>
      <point x="157" y="480" type="curve" smooth="yes"/>
      <point x="181" y="480"/>
      <point x="198" y="444"/>
      <point x="198" y="397" type="curve" smooth="yes"/>
      <point x="198" y="339"/>
      <point x="182" y="312"/>
      <point x="160" y="312" type="curve" smooth="yes"/>
      <point x="145" y="312" type="line"/>
      <point x="145" y="251" type="line"/>
      <point x="164" y="251" type="line" smooth="yes"/>
      <point x="188" y="251"/>
      <point x="205" y="221"/>
      <point x="205" y="156" type="curve" smooth="yes"/>
      <point x="205" y="95"/>
      <point x="185" y="57"/>
    </contour>
  </outline>
</glyph>
<glyph name="uni025F" format="2">
  <advance width="300"/>
  <unicode hex="025F"/>
  <anchor x="150" y="-240" name="bottom"/>
  <anchor x="159" y="535" name="top"/>
  <outline>
    <contour>
      <point x="113" y="-240" type="curve" smooth="yes"/>
      <point x="163" y="-240"/>
      <point x="194" y="-192"/>
      <point x="194" y="-86" type="curve" smooth="yes"/>
      <point x="194" y="256" type="line"/>
      <point x="225" y="256" type="line"/>
      <point x="225" y="314" type="line"/>
      <point x="194" y="314" type="line"/>
      <point x="194" y="536" type="line"/>
      <point x="122" y="536" type="line"/>
      <point x="122" y="314" type="line"/>
      <point x="91" y="314" type="line"/>
      <point x="91" y="256" type="line"/>
      <point x="122" y="256" type="line"/>
      <point x="122" y="-86" type="line" smooth="yes"/>
      <point x="122" y="-145"/>
      <point x="114" y="-172"/>
      <point x="97" y="-172" type="curve" smooth="yes"/>
      <point x="90" y="-172"/>
      <point x="82" y="-169"/>
      <point x="74" y="-164" type="curve"/>
      <point x="74" y="-231" type="line"/>
      <point x="86" y="-237"/>
      <point x="100" y="-240"/>
    </contour>
  </outline>
</glyph>
<glyph name="uni0262" format="2">
  <advance width="300"/>
  <unicode hex="0262"/>
  <anchor x="167" y="0" name="bottom"/>
  <anchor x="167" y="535" name="top"/>
  <outline>
    <contour>
      <point x="169" y="-10" type="curve" smooth="yes"/>
      <point x="204" y="-10"/>
      <point x="237" y="6"/>
      <point x="257" y="23" type="curve"/>
      <point x="257" y="284" type="line"/>
      <point x="153" y="284" type="line"/>
      <point x="153" y="223" type="line"/>
      <point x="199" y="223" type="line"/>
      <point x="199" y="67" type="line"/>
      <point x="190" y="62"/>
      <point x="181" y="57"/>
      <point x="170" y="57" type="curve" smooth="yes"/>
      <point x="125" y="57"/>
      <point x="102" y="128"/>
      <point x="102" y="266" type="curve" smooth="yes"/>
      <point x="102" y="405"/>
      <point x="132" y="479"/>
      <point x="178" y="479" type="curve" smooth="yes"/>
      <point x="201" y="479"/>
      <point x="218" y="465"/>
      <point x="237" y="451" type="curve"/>
      <point x="256" y="518" type="line"/>
      <point x="233" y="533"/>
      <point x="206" y="546"/>
      <point x="172" y="546" type="curve" smooth="yes"/>
      <point x="82" y="546"/>
      <point x="39" y="440"/>
      <point x="39" y="265" type="curve" smooth="yes"/>
      <point x="39" y="83"/>
      <point x="86" y="-10"/>
    </contour>
  </outline>
</glyph>
<glyph name="uni026A" format="2">
  <advance width="300"/>
  <unicode hex="026A"/>
  <anchor x="150" y="0" name="bottom"/>
  <anchor x="150" y="535" name="top"/>
  <outline>
    <contour>
      <point x="48" y="0" type="line"/>
      <point x="251" y="0" type="line"/>
      <point x="251" y="55" type="line"/>
      <point x="184" y="65" type="line"/>
      <point x="184" y="470" type="line"/>
      <point x="251" y="480" type="line"/>
      <point x="251" y="535" type="line"/>
      <point x="48" y="535" type="line"/>
      <point x="48" y="480" type="line"/>
      <point x="116" y="470" type="line"/>
      <point x="116" y="65" type="line"/>
      <point x="48" y="55" type="line"/>
    </contour>
  </outline>
</glyph>
<glyph name="uni026B" format="2">
  <advance width="300"/>
  <unicode hex="026B"/>
  <anchor x="150" y="0" name="bottom"/>
  <anchor x="150" y="760" name="top"/>
  <anchor x="253" y="760" name="topright"/>
  <anchor x="163" y="371" name="center"/>
  <outline>
    <contour>
      <point x="45" y="327" type="curve"/>
      <point x="88" y="327" type="line"/>
      <point x="89" y="364"/>
      <point x="95" y="387"/>
      <point x="107" y="387" type="curve" smooth="yes"/>
      <point x="127" y="387"/>
      <point x="175" y="327"/>
      <point x="208" y="327" type="curve" smooth="yes"/>
      <point x="233" y="327"/>
      <point x="258" y="365"/>
      <point x="258" y="446" type="curve"/>
      <point x="215" y="446" type="line"/>
      <point x="215" y="411"/>
      <point x="210" y="386"/>
      <point x="196" y="386" type="curve" smooth="yes"/>
      <point x="175" y="386"/>
      <point x="128" y="445"/>
      <point x="95" y="445" type="curve" smooth="yes"/>
      <point x="59" y="445"/>
      <point x="46" y="396"/>
    </contour>
    <component base="l" xOffset="10"/>
  </outline>
</glyph>
<glyph name="uni026D" format="2">
  <advance width="300"/>
  <unicode hex="026D"/>
  <anchor x="202" y="-240" name="bottom"/>
  <anchor x="147" y="760" name="top"/>
  <outline>
    <contour>
      <point x="202" y="-240" type="curve" smooth="yes"/>
      <point x="226" y="-240"/>
      <point x="243" y="-235"/>
      <point x="254" y="-226" type="curve"/>
      <point x="254" y="-160" type="line"/>
      <point x="246" y="-166"/>
      <point x="235" y="-172"/>
      <point x="222" y="-172" type="curve" smooth="yes"/>
      <point x="194" y="-172"/>
      <point x="186" y="-149"/>
      <point x="186" y="-90" type="curve" smooth="yes"/>
      <point x="186" y="760" type="line"/>
      <point x="48" y="760" type="line"/>
      <point x="48" y="705" type="line"/>
      <point x="118" y="695" type="line"/>
      <point x="118" y="-91" type="line" smooth="yes"/>
      <point x="118" y="-196"/>
      <point x="147" y="-240"/>
    </contour>
  </outline>
</glyph>
<glyph name="uni0272" format="2">
  <advance width="300"/>
  <unicode hex="0272"/>
  <anchor x="154" y="-240" name="bottom"/>
  <anchor x="151" y="535" name="top"/>
  <outline>
    <contour>
      <point x="31" y="-240" type="curve" smooth="yes"/>
      <point x="81" y="-240"/>
      <point x="106" y="-205"/>
      <point x="106" y="-111" type="curve" smooth="yes"/>
      <point x="106" y="282" type="line" smooth="yes"/>
      <point x="106" y="408"/>
      <point x="123" y="478"/>
      <point x="157" y="478" type="curve" smooth="yes"/>
      <point x="183" y="478"/>
      <point x="197" y="433"/>
      <point x="197" y="347" type="curve" smooth="yes"/>
      <point x="197" y="0" type="line"/>
      <point x="267" y="0" type="line"/>
      <point x="267" y="351" type="line" smooth="yes"/>
      <point x="267" y="487"/>
      <point x="234" y="546"/>
      <point x="179" y="546" type="curve" smooth="yes"/>
      <point x="140" y="546"/>
      <point x="117" y="516"/>
      <point x="104" y="460" type="curve"/>
      <point x="101" y="460" type="line"/>
      <point x="93" y="535" type="line"/>
      <point x="36" y="535" type="line"/>
      <point x="36" y="-111" type="line" smooth="yes"/>
      <point x="36" y="-159"/>
      <point x="29" y="-172"/>
      <point x="14" y="-172" type="curve" smooth="yes"/>
      <point x="8" y="-172"/>
      <point x="2" y="-167"/>
      <point x="-2" y="-162" type="curve"/>
      <point x="-2" y="-231" type="line"/>
      <point x="7" y="-235"/>
      <point x="17" y="-240"/>
    </contour>
  </outline>
</glyph>
<glyph name="uni0276" format="2">
  <advance width="300"/>
  <unicode hex="0276"/>
  <anchor x="150" y="0" name="bottom"/>
  <anchor x="150" y="535" name="top"/>
  <outline>
    <contour>
      <point x="105" y="-10" type="curve" smooth="yes"/>
      <point x="134" y="-10"/>
      <point x="151" y="15"/>
      <point x="161" y="54" type="curve"/>
      <point x="161" y="0" type="line"/>
      <point x="279" y="0" type="line"/>
      <point x="279" y="63" type="line"/>
      <point x="212" y="63" type="line"/>
      <point x="212" y="250" type="line"/>
      <point x="273" y="250" type="line"/>
      <point x="273" y="314" type="line"/>
      <point x="212" y="314" type="line"/>
      <point x="212" y="473" type="line"/>
      <point x="279" y="473" type="line"/>
      <point x="279" y="536" type="line"/>
      <point x="161" y="536" type="line"/>
      <point x="161" y="487" type="line"/>
      <point x="152" y="521"/>
      <point x="136" y="546"/>
      <point x="108" y="546" type="curve" smooth="yes"/>
      <point x="49" y="546"/>
      <point x="22" y="455"/>
      <point x="22" y="267" type="curve" smooth="yes"/>
      <point x="22" y="78"/>
      <point x="47" y="-10"/>
    </contour>
    <contour>
      <point x="120" y="57" type="curve" smooth="yes"/>
      <point x="95" y="57"/>
      <point x="84" y="115"/>
      <point x="84" y="269" type="curve" smooth="yes"/>
      <point x="84" y="414"/>
      <point x="96" y="479"/>
      <point x="120" y="479" type="curve" smooth="yes"/>
      <point x="146" y="479"/>
      <point x="154" y="423"/>
      <point x="154" y="266" type="curve" smooth="yes"/>
      <point x="154" y="109"/>
      <point x="146" y="57"/>
    </contour>
  </outline>
</glyph>
<glyph name="uni0280" format="2">
  <advance width="300"/>
  <unicode hex="0280"/>
  <anchor x="159" y="0" name="bottom"/>
  <anchor x="150" y="535" name="top"/>
  <outline>
    <contour>
      <point x="53" y="0" type="line"/>
      <point x="119" y="0" type="line"/>
      <point x="119" y="218" type="line"/>
      <point x="152" y="218" type="line"/>
      <point x="199" y="0" type="line"/>
      <point x="273" y="0" type="line"/>
      <point x="212" y="232" type="line"/>
      <point x="240" y="252"/>
      <point x="256" y="305"/>
      <point x="256" y="380" type="curve" smooth="yes"/>
      <point x="256" y="480"/>
      <point x="220" y="536"/>
      <point x="153" y="536" type="curve" smooth="yes"/>
      <point x="53" y="536" type="line"/>
    </contour>
    <contour>
      <point x="119" y="279" type="line"/>
      <point x="119" y="474" type="line"/>
      <point x="150" y="474" type="line" smooth="yes"/>
      <point x="177" y="474"/>
      <point x="190" y="441"/>
      <point x="190" y="379" type="curve" smooth="yes"/>
      <point x="190" y="304"/>
      <point x="171" y="279"/>
      <point x="148" y="279" type="curve" smooth="yes"/>
    </contour>
  </outline>
</glyph>
<glyph name="uni0282" format="2">
  <advance width="300"/>
  <unicode hex="0282"/>
  <anchor x="150" y="-291" name="bottom"/>
  <anchor x="150" y="535" name="top"/>
  <anchor x="288" y="535" name="topright"/>
  <outline>
    <contour>
      <point x="106" y="-240" type="curve" smooth="yes"/>
      <point x="119" y="-240"/>
      <point x="133" y="-235"/>
      <point x="141" y="-231" type="curve"/>
      <point x="141" y="-177" type="line"/>
      <point x="136" y="-180"/>
      <point x="129" y="-183"/>
      <point x="122" y="-183" type="curve" smooth="yes"/>
      <point x="110" y="-183"/>
      <point x="103" y="-171"/>
      <point x="103" y="-140" type="curve" smooth="yes"/>
      <point x="103" y="17" type="line"/>
      <point x="49" y="71" type="line"/>
      <point x="49" y="-156" type="line" smooth="yes"/>
      <point x="49" y="-212"/>
      <point x="69" y="-240"/>
    </contour>
    <component base="s" xOffset="10"/>
  </outline>
</glyph>
<glyph name="uni0283" format="2">
  <advance width="300"/>
  <unicode hex="0283"/>
  <anchor x="116" y="-240" name="bottom"/>
  <anchor x="188" y="763" name="top"/>
  <outline>
    <contour>
      <point x="101" y="-240" type="curve" smooth="yes"/>
      <point x="157" y="-240"/>
      <point x="187" y="-172"/>
      <point x="187" y="-45" type="curve" smooth="yes"/>
      <point x="187" y="568" type="line" smooth="yes"/>
      <point x="187" y="650"/>
      <point x="200" y="694"/>
      <point x="226" y="694" type="curve" smooth="yes"/>
      <point x="237" y="694"/>
      <point x="247" y="688"/>
      <point x="256" y="681" type="curve"/>
      <point x="256" y="752" type="line"/>
      <point x="246" y="759"/>
      <point x="227" y="765"/>
      <point x="212" y="765" type="curve" smooth="yes"/>
      <point x="153" y="765"/>
      <point x="118" y="699"/>
      <point x="118" y="569" type="curve" smooth="yes"/>
      <point x="118" y="-44" type="line" smooth="yes"/>
      <point x="118" y="-126"/>
      <point x="106" y="-168"/>
      <point x="84" y="-168" type="curve" smooth="yes"/>
      <point x="68" y="-168"/>
      <point x="56" y="-159"/>
      <point x="45" y="-152" type="curve"/>
      <point x="45" y="-226" type="line"/>
      <point x="59" y="-233"/>
      <point x="78" y="-240"/>
    </contour>
  </outline>
</glyph>
<glyph name="eshsquatreversed" format="2">
  <advance width="300"/>
  <unicode hex="0285"/>
  <anchor x="183" y="-240" name="bottom"/>
  <anchor x="106" y="534" name="top"/>
  <outline>
    <contour>
      <point x="213" y="-240" type="curve" smooth="yes"/>
      <point x="235" y="-240"/>
      <point x="256" y="-233"/>
      <point x="266" y="-226" type="curve"/>
      <point x="266" y="-152" type="line"/>
      <point x="257" y="-159"/>
      <point x="246" y="-168"/>
      <point x="232" y="-168" type="curve" smooth="yes"/>
      <point x="203" y="-168"/>
      <point x="185" y="-126"/>
      <point x="185" y="-44" type="curve" smooth="yes"/>
      <point x="185" y="349" type="line" smooth="yes"/>
      <point x="185" y="479"/>
      <point x="149" y="545"/>
      <point x="86" y="545" type="curve" smooth="yes"/>
      <point x="60" y="545"/>
      <point x="43" y="539"/>
      <point x="33" y="532" type="curve"/>
      <point x="33" y="462" type="line"/>
      <point x="40" y="468"/>
      <point x="54" y="474"/>
      <point x="69" y="474" type="curve" smooth="yes"/>
      <point x="99" y="474"/>
      <point x="115" y="430"/>
      <point x="115" y="348" type="curve" smooth="yes"/>
      <point x="115" y="-45" type="line" smooth="yes"/>
      <point x="115" y="-172"/>
      <point x="149" y="-240"/>
    </contour>
  </outline>
</glyph>
<glyph name="uni0290" format="2">
  <advance width="300"/>
  <unicode hex="0290"/>
  <anchor x="157" y="-240" name="bottom"/>
  <anchor x="150" y="535" name="top"/>
  <anchor x="288" y="535" name="topright"/>
  <outline>
    <contour>
      <point x="261" y="-240" type="curve" smooth="yes"/>
      <point x="275" y="-240"/>
      <point x="290" y="-233"/>
      <point x="298" y="-225" type="curve"/>
      <point x="298" y="-162" type="line"/>
      <point x="292" y="-167"/>
      <point x="286" y="-173"/>
      <point x="279" y="-173" type="curve" smooth="yes"/>
      <point x="266" y="-173"/>
      <point x="258" y="-155"/>
      <point x="258" y="-79" type="curve" smooth="yes"/>
      <point x="258" y="68" type="line"/>
      <point x="201" y="0" type="line"/>
      <point x="201" y="-81" type="line" smooth="yes"/>
      <point x="201" y="-205"/>
      <point x="222" y="-240"/>
    </contour>
    <component base="z" xOffset="10"/>
  </outline>
</glyph>
<glyph name="uni0291" format="2">
  <advance width="300"/>
  <unicode hex="0291"/>
  <anchor x="131" y="-99" name="bottom"/>
  <anchor x="129" y="535" name="top"/>
  <outline>
    <contour>
      <point x="140" y="-71" type="line"/>
      <point x="145" y="-48"/>
      <point x="150" y="-23"/>
      <point x="155" y="0" type="curve"/>
      <point x="193" y="0" type="line" smooth="yes"/>
      <point x="238" y="0"/>
      <point x="281" y="36"/>
      <point x="281" y="110" type="curve" smooth="yes"/>
      <point x="281" y="169"/>
      <point x="256" y="209"/>
      <point x="221" y="209" type="curve" smooth="yes"/>
      <point x="182" y="209"/>
      <point x="158" y="164"/>
      <point x="135" y="65" type="curve"/>
      <point x="104" y="65" type="line"/>
      <point x="221" y="481" type="line"/>
      <point x="221" y="536" type="line"/>
      <point x="27" y="536" type="line"/>
      <point x="27" y="471" type="line"/>
      <point x="140" y="471" type="line"/>
      <point x="20" y="52" type="line"/>
      <point x="20" y="0" type="line"/>
      <point x="112" y="0" type="line"/>
      <point x="108" y="-18"/>
      <point x="104" y="-37"/>
      <point x="100" y="-55" type="curve"/>
    </contour>
    <contour>
      <point x="177" y="65" type="line"/>
      <point x="190" y="130"/>
      <point x="200" y="157"/>
      <point x="215" y="157" type="curve" smooth="yes"/>
      <point x="227" y="157"/>
      <point x="233" y="138"/>
      <point x="233" y="113" type="curve" smooth="yes"/>
      <point x="233" y="85"/>
      <point x="224" y="65"/>
      <point x="202" y="65" type="curve" smooth="yes"/>
    </contour>
  </outline>
</glyph>
<glyph name="ezhcurl" format="2">
  <advance width="300"/>
  <unicode hex="0293"/>
  <anchor x="154" y="-241" name="bottom"/>
  <anchor x="148" y="535" name="top"/>
  <outline>
    <contour>
      <point x="256" y="-241" type="curve"/>
      <point x="295" y="-201" type="line"/>
      <point x="282" y="-164"/>
      <point x="264" y="-127"/>
      <point x="252" y="-102" type="curve"/>
      <point x="257" y="-73"/>
      <point x="262" y="-38"/>
      <point x="262" y="3" type="curve" smooth="yes"/>
      <point x="262" y="161"/>
      <point x="217" y="219"/>
      <point x="147" y="223" type="curve"/>
      <point x="249" y="475" type="line"/>
      <point x="249" y="536" type="line"/>
      <point x="45" y="536" type="line"/>
      <point x="45" y="466" type="line"/>
      <point x="171" y="466" type="line"/>
      <point x="77" y="219" type="line"/>
      <point x="77" y="158" type="line"/>
      <point x="103" y="158" type="line" smooth="yes"/>
      <point x="167" y="158"/>
      <point x="195" y="116"/>
      <point x="195" y="1" type="curve" smooth="yes"/>
      <point x="195" y="-21"/>
      <point x="194" y="-36"/>
      <point x="193" y="-48" type="curve"/>
      <point x="174" y="-15"/>
      <point x="148" y="1"/>
      <point x="111" y="1" type="curve" smooth="yes"/>
      <point x="53" y="1"/>
      <point x="21" y="-48"/>
      <point x="21" y="-119" type="curve" smooth="yes"/>
      <point x="21" y="-195"/>
      <point x="62" y="-240"/>
      <point x="121" y="-240" type="curve" smooth="yes"/>
      <point x="168" y="-240"/>
      <point x="202" y="-203"/>
      <point x="222" y="-161" type="curve"/>
      <point x="231" y="-182"/>
      <point x="246" y="-214"/>
    </contour>
    <contour>
      <point x="116" y="-176" type="curve" smooth="yes"/>
      <point x="92" y="-176"/>
      <point x="77" y="-149"/>
      <point x="77" y="-118" type="curve" smooth="yes"/>
      <point x="77" y="-80"/>
      <point x="88" y="-58"/>
      <point x="112" y="-58" type="curve" smooth="yes"/>
      <point x="132" y="-58"/>
      <point x="156" y="-72"/>
      <point x="177" y="-107" type="curve"/>
      <point x="165" y="-145"/>
      <point x="144" y="-176"/>
    </contour>
  </outline>
</glyph>
<glyph name="uni0294" format="2">
  <advance width="300"/>
  <unicode hex="0294"/>
  <anchor x="131" y="0" name="bottom"/>
  <anchor x="131" y="765" name="top"/>
  <outline>
    <contour>
      <point x="93" y="0" type="line"/>
      <point x="165" y="0" type="line"/>
      <point x="165" y="307" type="line"/>
      <point x="223" y="383"/>
      <point x="253" y="461"/>
      <point x="253" y="577" type="curve" smooth="yes"/>
      <point x="253" y="696"/>
      <point x="204" y="765"/>
      <point x="128" y="765" type="curve" smooth="yes"/>
      <point x="77" y="765"/>
      <point x="47" y="739"/>
      <point x="24" y="707" type="curve"/>
      <point x="49" y="647" type="line"/>
      <point x="66" y="671"/>
      <point x="90" y="696"/>
      <point x="121" y="696" type="curve" smooth="yes"/>
      <point x="160" y="696"/>
      <point x="180" y="652"/>
      <point x="180" y="572" type="curve" smooth="yes"/>
      <point x="180" y="487"/>
      <point x="151" y="418"/>
      <point x="93" y="334" type="curve"/>
    </contour>
  </outline>
</glyph>
<glyph name="cstretched" format="2">
  <advance width="300"/>
  <unicode hex="0297"/>
  <anchor x="175" y="-239" name="bottom"/>
  <anchor x="170" y="535" name="top"/>
  <outline>
    <contour>
      <point x="178" y="-239" type="curve" smooth="yes"/>
      <point x="213" y="-239"/>
      <point x="234" y="-229"/>
      <point x="251" y="-212" type="curve"/>
      <point x="251" y="-139" type="line"/>
      <point x="237" y="-155"/>
      <point x="216" y="-168"/>
      <point x="190" y="-168" type="curve" smooth="yes"/>
      <point x="136" y="-168"/>
      <point x="103" y="-88"/>
      <point x="103" y="152" type="curve" smooth="yes"/>
      <point x="103" y="385"/>
      <point x="134" y="473"/>
      <point x="193" y="473" type="curve" smooth="yes"/>
      <point x="213" y="473"/>
      <point x="229" y="463"/>
      <point x="243" y="449" type="curve"/>
      <point x="260" y="517" type="line"/>
      <point x="244" y="534"/>
      <point x="222" y="545"/>
      <point x="188" y="545" type="curve" smooth="yes"/>
      <point x="95" y="545"/>
      <point x="34" y="450"/>
      <point x="34" y="150" type="curve" smooth="yes"/>
      <point x="34" y="-120"/>
      <point x="91" y="-239"/>
    </contour>
  </outline>
</glyph>
<glyph name="qhook" format="2">
  <advance width="300"/>
  <unicode hex="02A0"/>
  <anchor x="149" y="-239" name="bottom"/>
  <anchor x="149" y="768" name="top"/>
  <outline>
    <contour>
      <point x="196" y="-239" type="line"/>
      <point x="264" y="-239" type="line"/>
      <point x="264" y="628" type="line" smooth="yes"/>
      <point x="264" y="683"/>
      <point x="271" y="700"/>
      <point x="289" y="700" type="curve" smooth="yes"/>
      <point x="297" y="700"/>
      <point x="306" y="697"/>
      <point x="313" y="691" type="curve"/>
      <point x="313" y="759" type="line"/>
      <point x="305" y="764"/>
      <point x="291" y="768"/>
      <point x="275" y="768" type="curve" smooth="yes"/>
      <point x="227" y="768"/>
      <point x="196" y="720"/>
      <point x="196" y="631" type="curve" smooth="yes"/>
      <point x="196" y="527" type="line" smooth="yes"/>
      <point x="196" y="507"/>
      <point x="197" y="485"/>
      <point x="198" y="463" type="curve"/>
      <point x="195" y="463" type="line"/>
      <point x="180" y="519"/>
      <point x="158" y="546"/>
      <point x="126" y="546" type="curve" smooth="yes"/>
      <point x="61" y="546"/>
      <point x="26" y="450"/>
      <point x="26" y="265" type="curve" smooth="yes"/>
      <point x="26" y="85"/>
      <point x="61" y="-10"/>
      <point x="122" y="-10" type="curve" smooth="yes"/>
      <point x="158" y="-10"/>
      <point x="180" y="21"/>
      <point x="195" y="78" type="curve"/>
      <point x="198" y="78" type="line"/>
      <point x="197" y="46"/>
      <point x="196" y="16"/>
      <point x="196" y="-5" type="curve" smooth="yes"/>
    </contour>
    <contour>
      <point x="148" y="59" type="curve" smooth="yes"/>
      <point x="116" y="59"/>
      <point x="100" y="120"/>
      <point x="100" y="264" type="curve" smooth="yes"/>
      <point x="100" y="403"/>
      <point x="116" y="477"/>
      <point x="150" y="477" type="curve" smooth="yes"/>
      <point x="183" y="477"/>
      <point x="197" y="414"/>
      <point x="197" y="275" type="curve" smooth="yes"/>
      <point x="197" y="242" type="line" smooth="yes"/>
      <point x="197" y="121"/>
      <point x="182" y="59"/>
    </contour>
  </outline>
</glyph>
<glyph name="uni02A1" format="2">
  <advance width="300"/>
  <unicode hex="02A1"/>
  <anchor x="132" y="0" name="bottom"/>
  <anchor x="150" y="765" name="top"/>
  <outline>
    <contour>
      <point x="37" y="153" type="line"/>
      <point x="235" y="153" type="line"/>
      <point x="235" y="212" type="line"/>
      <point x="37" y="212" type="line"/>
    </contour>
    <component base="uni0294" xOffset="10"/>
  </outline>
</glyph>
<glyph name="dzlig" format="2">
  <advance width="300"/>
  <unicode hex="02A3"/>
  <anchor x="150" y="0" name="bottom"/>
  <anchor x="150" y="760" name="top"/>
  <outline>
    <contour>
      <point x="82" y="-10" type="curve" smooth="yes"/>
      <point x="103" y="-10"/>
      <point x="116" y="11"/>
      <point x="123" y="44" type="curve"/>
      <point x="125" y="44" type="line"/>
      <point x="131" y="0" type="line"/>
      <point x="284" y="0" type="line"/>
      <point x="284" y="60" type="line"/>
      <point x="227" y="60" type="line"/>
      <point x="282" y="478" type="line"/>
      <point x="282" y="535" type="line"/>
      <point x="175" y="535" type="line"/>
      <point x="175" y="760" type="line"/>
      <point x="123" y="760" type="line"/>
      <point x="123" y="555" type="line" smooth="yes"/>
      <point x="123" y="533"/>
      <point x="123" y="514"/>
      <point x="124" y="498" type="curve"/>
      <point x="123" y="498" type="line"/>
      <point x="116" y="527"/>
      <point x="106" y="545"/>
      <point x="86" y="545" type="curve" smooth="yes"/>
      <point x="46" y="545"/>
      <point x="22" y="480"/>
      <point x="22" y="266" type="curve" smooth="yes"/>
      <point x="22" y="49"/>
      <point x="42" y="-10"/>
    </contour>
    <contour>
      <point x="98" y="53" type="curve" smooth="yes"/>
      <point x="83" y="53"/>
      <point x="75" y="89"/>
      <point x="75" y="264" type="curve" smooth="yes"/>
      <point x="75" y="439"/>
      <point x="83" y="482"/>
      <point x="100" y="482" type="curve" smooth="yes"/>
      <point x="114" y="482"/>
      <point x="123" y="442"/>
      <point x="123" y="266" type="curve" smooth="yes"/>
      <point x="123" y="251" type="line" smooth="yes"/>
      <point x="123" y="94"/>
      <point x="115" y="53"/>
    </contour>
    <contour>
      <point x="175" y="58" type="line"/>
      <point x="175" y="475" type="line"/>
      <point x="227" y="475" type="line"/>
    </contour>
  </outline>
</glyph>
<glyph name="uni02A4" format="2">
  <advance width="300"/>
  <unicode hex="02A4"/>
  <anchor x="149" y="-240" name="bottom"/>
  <anchor x="149" y="760" name="top"/>
  <outline>
    <contour>
      <point x="192" y="-240" type="curve" smooth="yes"/>
      <point x="253" y="-240"/>
      <point x="281" y="-138"/>
      <point x="281" y="3" type="curve" smooth="yes"/>
      <point x="281" y="148"/>
      <point x="260" y="213"/>
      <point x="228" y="223" type="curve"/>
      <point x="275" y="490" type="line"/>
      <point x="275" y="536" type="line"/>
      <point x="163" y="536" type="line"/>
      <point x="163" y="760" type="line"/>
      <point x="109" y="760" type="line"/>
      <point x="109" y="547" type="line" smooth="yes"/>
      <point x="109" y="526"/>
      <point x="110" y="511"/>
      <point x="111" y="491" type="curve"/>
      <point x="110" y="491" type="line"/>
      <point x="103" y="528"/>
      <point x="93" y="546"/>
      <point x="76" y="546" type="curve" smooth="yes"/>
      <point x="37" y="546"/>
      <point x="20" y="467"/>
      <point x="20" y="267" type="curve" smooth="yes"/>
      <point x="20" y="67"/>
      <point x="38" y="-10"/>
      <point x="74" y="-10" type="curve" smooth="yes"/>
      <point x="96" y="-10"/>
      <point x="107" y="13"/>
      <point x="113" y="53" type="curve"/>
      <point x="115" y="53" type="line"/>
      <point x="123" y="0" type="line"/>
      <point x="163" y="0" type="line"/>
      <point x="163" y="478" type="line"/>
      <point x="217" y="478" type="line"/>
      <point x="175" y="218" type="line"/>
      <point x="175" y="168" type="line"/>
      <point x="186" y="168" type="line" smooth="yes"/>
      <point x="211" y="168"/>
      <point x="227" y="112"/>
      <point x="227" y="6" type="curve" smooth="yes"/>
      <point x="227" y="-111"/>
      <point x="213" y="-179"/>
      <point x="186" y="-179" type="curve" smooth="yes"/>
      <point x="171" y="-179"/>
      <point x="163" y="-170"/>
      <point x="156" y="-160" type="curve"/>
      <point x="156" y="-224" type="line"/>
      <point x="162" y="-233"/>
      <point x="175" y="-240"/>
    </contour>
    <contour>
      <point x="94" y="48" type="curve" smooth="yes"/>
      <point x="79" y="48"/>
      <point x="73" y="109"/>
      <point x="73" y="267" type="curve" smooth="yes"/>
      <point x="73" y="427"/>
      <point x="80" y="486"/>
      <point x="95" y="486" type="curve" smooth="yes"/>
      <point x="109" y="486"/>
      <point x="114" y="438"/>
      <point x="114" y="278" type="curve" smooth="yes"/>
      <point x="114" y="242" type="line" smooth="yes"/>
      <point x="114" y="98"/>
      <point x="108" y="48"/>
    </contour>
  </outline>
</glyph>
<glyph name="tslig" format="2">
  <advance width="300"/>
  <unicode hex="02A6"/>
  <anchor x="149" y="0" name="bottom"/>
  <anchor x="149" y="660" name="top"/>
  <outline>
    <contour>
      <point x="123" y="-1" type="curve" smooth="yes"/>
      <point x="172" y="-1" type="line" smooth="yes"/>
      <point x="237" y="-1"/>
      <point x="273" y="56"/>
      <point x="273" y="150" type="curve" smooth="yes"/>
      <point x="273" y="234"/>
      <point x="252" y="267"/>
      <point x="224" y="307" type="curve" smooth="yes"/>
      <point x="196" y="346"/>
      <point x="187" y="366"/>
      <point x="187" y="410" type="curve" smooth="yes"/>
      <point x="187" y="452"/>
      <point x="201" y="478"/>
      <point x="220" y="478" type="curve" smooth="yes"/>
      <point x="233" y="478"/>
      <point x="247" y="470"/>
      <point x="257" y="457" type="curve"/>
      <point x="270" y="522" type="line"/>
      <point x="256" y="536"/>
      <point x="236" y="546"/>
      <point x="213" y="546" type="curve" smooth="yes"/>
      <point x="197" y="546"/>
      <point x="185" y="542"/>
      <point x="173" y="536" type="curve"/>
      <point x="101" y="536" type="line"/>
      <point x="101" y="660" type="line"/>
      <point x="61" y="660" type="line"/>
      <point x="42" y="544" type="line"/>
      <point x="14" y="512" type="line"/>
      <point x="14" y="472" type="line"/>
      <point x="37" y="472" type="line"/>
      <point x="37" y="160" type="line" smooth="yes"/>
      <point x="37" y="36"/>
      <point x="66" y="-1"/>
    </contour>
    <contour>
      <point x="139" y="67" type="line"/>
      <point x="116" y="67"/>
      <point x="101" y="97"/>
      <point x="101" y="163" type="curve" smooth="yes"/>
      <point x="101" y="472" type="line"/>
      <point x="133" y="472" type="line"/>
      <point x="127" y="453"/>
      <point x="124" y="430"/>
      <point x="124" y="406" type="curve" smooth="yes"/>
      <point x="124" y="326"/>
      <point x="143" y="292"/>
      <point x="169" y="249" type="curve" smooth="yes"/>
      <point x="192" y="212"/>
      <point x="207" y="190"/>
      <point x="207" y="141" type="curve" smooth="yes"/>
      <point x="207" y="88"/>
      <point x="192" y="67"/>
      <point x="166" y="67" type="curve" smooth="yes"/>
    </contour>
  </outline>
</glyph>
<glyph name="uni02A9" format="2">
  <advance width="300"/>
  <unicode hex="02A9"/>
  <anchor x="150" y="-240" name="bottom"/>
  <anchor x="150" y="766" name="top"/>
  <outline>
    <contour>
      <point x="210" y="-240" type="curve" smooth="yes"/>
      <point x="255" y="-240"/>
      <point x="271" y="-199"/>
      <point x="271" y="-121" type="curve" smooth="yes"/>
      <point x="271" y="406" type="line" smooth="yes"/>
      <point x="271" y="513"/>
      <point x="249" y="546"/>
      <point x="216" y="546" type="curve" smooth="yes"/>
      <point x="189" y="546"/>
      <point x="174" y="521"/>
      <point x="166" y="489" type="curve"/>
      <point x="163" y="489" type="line"/>
      <point x="158" y="536" type="line"/>
      <point x="84" y="536" type="line"/>
      <point x="84" y="636" type="line" smooth="yes"/>
      <point x="84" y="683"/>
      <point x="95" y="702"/>
      <point x="110" y="702" type="curve" smooth="yes"/>
      <point x="119" y="702"/>
      <point x="126" y="698"/>
      <point x="133" y="691" type="curve"/>
      <point x="146" y="752" type="line"/>
      <point x="137" y="761"/>
      <point x="125" y="766"/>
      <point x="103" y="766" type="curve" smooth="yes"/>
      <point x="56" y="766"/>
      <point x="28" y="725"/>
      <point x="28" y="641" type="curve" smooth="yes"/>
      <point x="28" y="539" type="line"/>
      <point x="10" y="518" type="line"/>
      <point x="10" y="474" type="line"/>
      <point x="28" y="474" type="line"/>
      <point x="28" y="0" type="line"/>
      <point x="84" y="0" type="line"/>
      <point x="84" y="474" type="line"/>
      <point x="115" y="474" type="line"/>
      <point x="115" y="0" type="line"/>
      <point x="171" y="0" type="line"/>
      <point x="171" y="351" type="line" smooth="yes"/>
      <point x="171" y="430"/>
      <point x="176" y="479"/>
      <point x="195" y="479" type="curve" smooth="yes"/>
      <point x="209" y="479"/>
      <point x="215" y="460"/>
      <point x="215" y="400" type="curve" smooth="yes"/>
      <point x="215" y="-118" type="line" smooth="yes"/>
      <point x="215" y="-162"/>
      <point x="206" y="-175"/>
      <point x="197" y="-175" type="curve" smooth="yes"/>
      <point x="191" y="-175"/>
      <point x="186" y="-172"/>
      <point x="180" y="-167" type="curve"/>
      <point x="180" y="-232" type="line"/>
      <point x="187" y="-237"/>
      <point x="197" y="-240"/>
    </contour>
  </outline>
</glyph>
<glyph name="uni02AC" format="2">
  <advance width="300"/>
  <unicode hex="02AC"/>
  <anchor x="150" y="0" name="bottom"/>
  <anchor x="150" y="714" name="top"/>
  <outline>
    <contour>
      <point x="59" y="379" type="line"/>
      <point x="126" y="379" type="line"/>
      <point x="150" y="629" type="line"/>
      <point x="170" y="379" type="line"/>
      <point x="237" y="379" type="line"/>
      <point x="278" y="714" type="line"/>
      <point x="222" y="714" type="line"/>
      <point x="201" y="455" type="line"/>
      <point x="180" y="714" type="line"/>
      <point x="118" y="714" type="line"/>
      <point x="97" y="455" type="line"/>
      <point x="77" y="714" type="line"/>
      <point x="21" y="714" type="line"/>
    </contour>
    <contour>
      <point x="59" y="0" type="line"/>
      <point x="126" y="0" type="line"/>
      <point x="150" y="250" type="line"/>
      <point x="170" y="0" type="line"/>
      <point x="237" y="0" type="line"/>
      <point x="278" y="335" type="line"/>
      <point x="222" y="335" type="line"/>
      <point x="201" y="76" type="line"/>
      <point x="180" y="335" type="line"/>
      <point x="118" y="335" type="line"/>
      <point x="97" y="76" type="line"/>
      <point x="77" y="335" type="line"/>
      <point x="21" y="335" type="line"/>
    </contour>
  </outline>
</glyph>
<glyph name="uni02BE" format="2">
  <advance width="300"/>
  <unicode hex="02BE"/>
  <outline>
    <contour>
      <point x="115" y="575" type="line"/>
      <point x="155" y="575"/>
      <point x="185" y="616"/>
      <point x="185" y="685" type="curve" smooth="yes"/>
      <point x="185" y="753"/>
      <point x="154" y="794"/>
      <point x="115" y="794" type="curve"/>
      <point x="115" y="745" type="line"/>
      <point x="130" y="745"/>
      <point x="141" y="722"/>
      <point x="141" y="685" type="curve" smooth="yes"/>
      <point x="141" y="647"/>
      <point x="131" y="624"/>
      <point x="115" y="624" type="curve"/>
    </contour>
  </outline>
</glyph>
<glyph name="caron" format="2">
  <advance width="300"/>
  <unicode hex="02C7"/>
  <anchor x="149" y="528" name="_top"/>
  <anchor x="149" y="763" name="top"/>
  <outline>
    <contour>
      <point x="118" y="606" type="curve"/>
      <point x="181" y="606" type="line"/>
      <point x="193" y="652"/>
      <point x="218" y="715"/>
      <point x="234" y="756" type="curve"/>
      <point x="234" y="766" type="line"/>
      <point x="194" y="766" type="line"/>
      <point x="179" y="730"/>
      <point x="166" y="709"/>
      <point x="150" y="669" type="curve"/>
      <point x="134" y="703"/>
      <point x="119" y="742"/>
      <point x="106" y="766" type="curve"/>
      <point x="65" y="766" type="line"/>
      <point x="65" y="756" type="line"/>
      <point x="81" y="710"/>
      <point x="107" y="650"/>
    </contour>
  </outline>
</glyph>
<glyph name="uni02D0" format="2">
  <advance width="300"/>
  <unicode hex="02D0"/>
  <outline>
    <contour>
      <point x="150" y="412" type="line"/>
      <point x="188" y="536" type="line"/>
      <point x="113" y="536" type="line"/>
    </contour>
    <contour>
      <point x="113" y="0" type="line"/>
      <point x="188" y="0" type="line"/>
      <point x="150" y="124" type="line"/>
    </contour>
  </outline>
</glyph>
<glyph name="ogonek" format="2">
  <advance width="300"/>
  <unicode hex="02DB"/>
  <outline>
    <contour>
      <point x="164" y="-223" type="curve" smooth="yes"/>
      <point x="178" y="-223"/>
      <point x="190" y="-220"/>
      <point x="198" y="-215" type="curve"/>
      <point x="198" y="-163" type="line"/>
      <point x="192" y="-166"/>
      <point x="186" y="-169"/>
      <point x="177" y="-169" type="curve" smooth="yes"/>
      <point x="161" y="-169"/>
      <point x="152" y="-151"/>
      <point x="152" y="-117" type="curve" smooth="yes"/>
      <point x="152" y="-80"/>
      <point x="161" y="-45"/>
      <point x="185" y="0" type="curve"/>
      <point x="151" y="12" type="line"/>
      <point x="117" y="-28"/>
      <point x="102" y="-77"/>
      <point x="102" y="-134" type="curve" smooth="yes"/>
      <point x="102" y="-191"/>
      <point x="123" y="-223"/>
    </contour>
  </outline>
</glyph>
<glyph name="rhotichookmod" format="2">
  <advance width="300"/>
  <unicode hex="02DE"/>
  <outline>
    <contour>
      <point x="127" y="209" type="curve" smooth="yes"/>
      <point x="150" y="209"/>
      <point x="168" y="221"/>
      <point x="184" y="238" type="curve"/>
      <point x="164" y="281" type="line"/>
      <point x="157" y="270"/>
      <point x="147" y="263"/>
      <point x="135" y="263" type="curve" smooth="yes"/>
      <point x="113" y="263"/>
      <point x="102" y="286"/>
      <point x="90" y="355" type="curve" smooth="yes"/>
      <point x="82" y="403" type="line"/>
      <point x="-38" y="323" type="line"/>
      <point x="-26" y="272" type="line"/>
      <point x="50" y="332" type="line"/>
      <point x="64" y="248"/>
      <point x="90" y="209"/>
    </contour>
  </outline>
</glyph>
<glyph name="uni02E8" format="2">
  <advance width="300"/>
  <unicode hex="02E8"/>
  <outline>
    <contour>
      <point x="180" y="0" type="line"/>
      <point x="211" y="0" type="line"/>
      <point x="211" y="688" type="line"/>
      <point x="180" y="688" type="line"/>
      <point x="180" y="222" type="line"/>
      <point x="89" y="222" type="line"/>
      <point x="89" y="167" type="line"/>
      <point x="180" y="167" type="line"/>
    </contour>
  </outline>
</glyph>
<glyph name="uni02F1" format="2">
  <advance width="300"/>
  <unicode hex="02F1"/>
  <outline>
    <contour>
      <point x="203" y="-223" type="line"/>
      <point x="203" y="-177" type="line"/>
      <point x="132" y="-108" type="line"/>
      <point x="203" y="-41" type="line"/>
      <point x="203" y="6" type="line"/>
      <point x="97" y="-92" type="line"/>
      <point x="97" y="-125" type="line"/>
    </contour>
  </outline>
</glyph>
<glyph name="uni02FD" format="2">
  <advance width="300"/>
  <unicode hex="02FD"/>
  <outline>
    <contour>
      <point x="74" y="-194" type="line"/>
      <point x="226" y="-194" type="line"/>
      <point x="226" y="-46" type="line"/>
      <point x="197" y="-46" type="line"/>
      <point x="197" y="-149" type="line"/>
      <point x="103" y="-149" type="line"/>
      <point x="103" y="-46" type="line"/>
      <point x="74" y="-46" type="line"/>
    </contour>
  </outline>
</glyph>
<glyph name="uni02FF" format="2">
  <advance width="300"/>
  <unicode hex="02FF"/>
  <outline>
    <contour>
      <point x="160" y="-219" type="line"/>
      <point x="160" y="-173" type="line"/>
      <point x="103" y="-103" type="line"/>
      <point x="246" y="-103" type="line"/>
      <point x="246" y="-61" type="line"/>
      <point x="103" y="-61" type="line"/>
      <point x="160" y="8" type="line"/>
      <point x="160" y="54" type="line"/>
      <point x="55" y="-66" type="line"/>
      <point x="55" y="-98" type="line"/>
    </contour>
  </outline>
</glyph>
<glyph name="righttackbelowcomb" format="2">
  <unicode hex="0319"/>
  <anchor x="0" y="0" name="_bottom"/>
  <anchor x="0" y="-212" name="bottom"/>
  <outline>
    <contour>
      <point x="-38" y="-212" type="line"/>
      <point x="-9" y="-212" type="line"/>
      <point x="-9" y="-145" type="line"/>
      <point x="38" y="-145" type="line"/>
      <point x="38" y="-101" type="line"/>
      <point x="-9" y="-101" type="line"/>
      <point x="-9" y="-34" type="line"/>
      <point x="-38" y="-34" type="line"/>
    </contour>
  </outline>
</glyph>
<glyph name="hookpalatalizedbelowcomb" format="2">
  <unicode hex="0321"/>
  <outline>
    <contour>
      <point x="-13" y="-237" type="curve"/>
      <point x="28" y="-237"/>
      <point x="52" y="-200"/>
      <point x="52" y="-120" type="curve" smooth="yes"/>
      <point x="52" y="40" type="line"/>
      <point x="-9" y="40" type="line"/>
      <point x="-9" y="-120" type="line" smooth="yes"/>
      <point x="-9" y="-160"/>
      <point x="-16" y="-176"/>
      <point x="-31" y="-176" type="curve"/>
      <point x="-37" y="-176"/>
      <point x="-44" y="-170"/>
      <point x="-51" y="-167" type="curve"/>
      <point x="-51" y="-226" type="line"/>
      <point x="-40" y="-231"/>
      <point x="-27" y="-237"/>
    </contour>
  </outline>
</glyph>
<glyph name="seagullbelowcomb" format="2">
  <unicode hex="033C"/>
  <anchor x="0" y="0" name="_bottom"/>
  <anchor x="0" y="-170" name="bottom"/>
  <outline>
    <contour>
      <point x="-81" y="-170" type="curve"/>
      <point x="-57" y="-170" type="line"/>
      <point x="-57" y="-125"/>
      <point x="-49" y="-102"/>
      <point x="-34" y="-102" type="curve" smooth="yes"/>
      <point x="-19" y="-102"/>
      <point x="-10" y="-125"/>
      <point x="-10" y="-170" type="curve"/>
      <point x="10" y="-170" type="line"/>
      <point x="10" y="-125"/>
      <point x="20" y="-102"/>
      <point x="34" y="-102" type="curve" smooth="yes"/>
      <point x="50" y="-102"/>
      <point x="57" y="-125"/>
      <point x="57" y="-170" type="curve"/>
      <point x="81" y="-170" type="line"/>
      <point x="81" y="-90"/>
      <point x="61" y="-61"/>
      <point x="34" y="-61" type="curve" smooth="yes"/>
      <point x="19" y="-61"/>
      <point x="7" y="-79"/>
      <point x="0" y="-104" type="curve"/>
      <point x="-7" y="-79"/>
      <point x="-18" y="-61"/>
      <point x="-34" y="-61" type="curve" smooth="yes"/>
      <point x="-61" y="-61"/>
      <point x="-81" y="-90"/>
    </contour>
  </outline>
</glyph>
<glyph name="xabovecomb" format="2">
  <unicode hex="033D"/>
  <anchor x="0" y="536" name="_top"/>
  <anchor x="0" y="767" name="top"/>
  <outline>
    <contour>
      <point x="-34" y="579" type="line"/>
      <point x="0" y="639" type="line"/>
      <point x="34" y="579" type="line"/>
      <point x="55" y="613" type="line"/>
      <point x="20" y="673" type="line"/>
      <point x="55" y="733" type="line"/>
      <point x="34" y="767" type="line"/>
      <point x="0" y="706" type="line"/>
      <point x="-34" y="767" type="line"/>
      <point x="-55" y="733" type="line"/>
      <point x="-21" y="673" type="line"/>
      <point x="-55" y="612" type="line"/>
    </contour>
  </outline>
</glyph>
<glyph name="nottildeabovecomb" format="2">
  <unicode hex="034A"/>
  <anchor x="0" y="536" name="_top"/>
  <anchor x="0" y="758" name="top"/>
  <outline>
    <contour>
      <point x="-15" y="564" type="line"/>
      <point x="4" y="629" type="line"/>
      <point x="13" y="618"/>
      <point x="23" y="608"/>
      <point x="34" y="608" type="curve" smooth="yes"/>
      <point x="66" y="608"/>
      <point x="79" y="650"/>
      <point x="81" y="716" type="curve"/>
      <point x="53" y="716" type="line"/>
      <point x="52" y="679"/>
      <point x="46" y="655"/>
      <point x="34" y="655" type="curve" smooth="yes"/>
      <point x="29" y="655"/>
      <point x="24" y="661"/>
      <point x="20" y="670" type="curve"/>
      <point x="40" y="739" type="line"/>
      <point x="17" y="758" type="line"/>
      <point x="-3" y="694" type="line"/>
      <point x="-11" y="706"/>
      <point x="-21" y="715"/>
      <point x="-34" y="715" type="curve" smooth="yes"/>
      <point x="-63" y="715"/>
      <point x="-78" y="671"/>
      <point x="-81" y="607" type="curve"/>
      <point x="-53" y="607" type="line"/>
      <point x="-50" y="646"/>
      <point x="-44" y="668"/>
      <point x="-32" y="668" type="curve" smooth="yes"/>
      <point x="-27" y="668"/>
      <point x="-23" y="662"/>
      <point x="-17" y="654" type="curve"/>
      <point x="-38" y="583" type="line"/>
    </contour>
  </outline>
</glyph>
<glyph name="arrowleftrightbelowcomb" format="2">
  <unicode hex="034D"/>
  <anchor x="0" y="0" name="_bottom"/>
  <anchor x="0" y="-201" name="bottom"/>
  <outline>
    <contour>
      <point x="-23" y="-201" type="line"/>
      <point x="-23" y="-148" type="line"/>
      <point x="22" y="-148" type="line"/>
      <point x="22" y="-201" type="line"/>
      <point x="75" y="-128" type="line"/>
      <point x="22" y="-53" type="line"/>
      <point x="22" y="-106" type="line"/>
      <point x="-23" y="-106" type="line"/>
      <point x="-23" y="-53" type="line"/>
      <point x="-75" y="-127" type="line"/>
    </contour>
  </outline>
</glyph>
<glyph name="fermatacomb" format="2">
  <unicode hex="0352"/>
  <anchor x="0" y="536" name="_top"/>
  <anchor x="0" y="805" name="top"/>
  <outline>
    <contour>
      <point x="-85" y="670" type="curve"/>
      <point x="-48" y="670" type="line"/>
      <point x="-47" y="725"/>
      <point x="-27" y="754"/>
      <point x="0" y="754" type="curve" smooth="yes"/>
      <point x="26" y="754"/>
      <point x="48" y="726"/>
      <point x="49" y="670" type="curve"/>
      <point x="85" y="670" type="line"/>
      <point x="83" y="756"/>
      <point x="56" y="805"/>
      <point x="0" y="805" type="curve" smooth="yes"/>
      <point x="-52" y="805"/>
      <point x="-82" y="756"/>
    </contour>
    <contour>
      <point x="2" y="607" type="curve" smooth="yes"/>
      <point x="17" y="607"/>
      <point x="26" y="623"/>
      <point x="26" y="657" type="curve" smooth="yes"/>
      <point x="26" y="690"/>
      <point x="17" y="707"/>
      <point x="2" y="707" type="curve" smooth="yes"/>
      <point x="-15" y="707"/>
      <point x="-24" y="687"/>
      <point x="-24" y="657" type="curve" smooth="yes"/>
      <point x="-24" y="625"/>
      <point x="-15" y="607"/>
    </contour>
  </outline>
</glyph>
<glyph name="arrowheadrightbelowcomb" format="2">
  <unicode hex="0355"/>
  <anchor x="0" y="0" name="_bottom"/>
  <anchor x="0" y="-240" name="bottom"/>
  <outline>
    <contour>
      <point x="-35" y="-240" type="line"/>
      <point x="-30" y="-240" type="line"/>
      <point x="-14" y="-207"/>
      <point x="14" y="-177"/>
      <point x="34" y="-162" type="curve"/>
      <point x="34" y="-119" type="line"/>
      <point x="15" y="-101"/>
      <point x="-12" y="-65"/>
      <point x="-30" y="-39" type="curve"/>
      <point x="-35" y="-39" type="line"/>
      <point x="-35" y="-76" type="line"/>
      <point x="-23" y="-98"/>
      <point x="-10" y="-118"/>
      <point x="5" y="-140" type="curve"/>
      <point x="-10" y="-160"/>
      <point x="-25" y="-181"/>
      <point x="-35" y="-204" type="curve"/>
    </contour>
  </outline>
</glyph>
<glyph name="zigzagabovecomb" format="2">
  <unicode hex="035B"/>
  <anchor x="0" y="536" name="_top"/>
  <anchor x="0" y="781" name="top"/>
  <outline>
    <contour>
      <point x="6" y="593" type="line"/>
      <point x="35" y="593" type="line"/>
      <point x="52" y="709" type="line"/>
      <point x="-17" y="709" type="line"/>
      <point x="-6" y="781" type="line"/>
      <point x="-35" y="781" type="line"/>
      <point x="-52" y="665" type="line"/>
      <point x="17" y="665" type="line"/>
    </contour>
  </outline>
</glyph>
<glyph name="doublebrevebelowcomb" format="2">
  <unicode hex="035C"/>
  <anchor x="0" y="0" name="_bottom"/>
  <anchor x="0" y="-228" name="bottom"/>
  <outline>
    <contour>
      <point x="0" y="-228" type="curve"/>
      <point x="81" y="-228"/>
      <point x="142" y="-173"/>
      <point x="170" y="-42" type="curve"/>
      <point x="123" y="-42" type="line"/>
      <point x="98" y="-124"/>
      <point x="59" y="-162"/>
      <point x="0" y="-162" type="curve"/>
      <point x="-58" y="-162"/>
      <point x="-100" y="-117"/>
      <point x="-124" y="-42" type="curve"/>
      <point x="-171" y="-42" type="line"/>
      <point x="-148" y="-166"/>
      <point x="-90" y="-228"/>
    </contour>
  </outline>
</glyph>
<glyph name="doublemacroncomb" format="2">
  <unicode hex="035E"/>
  <anchor x="0" y="536" name="_top"/>
  <anchor x="0" y="665" name="top"/>
  <outline>
    <contour>
      <point x="-128" y="616" type="line"/>
      <point x="128" y="616" type="line"/>
      <point x="128" y="665" type="line"/>
      <point x="-128" y="665" type="line"/>
    </contour>
  </outline>
</glyph>
<glyph name="breveinverteddoublecomb" format="2">
  <unicode hex="0361"/>
  <anchor x="0" y="617" name="_top"/>
  <anchor x="0" y="854" name="top"/>
  <outline>
    <contour>
      <point x="-171" y="668" type="curve"/>
      <point x="-124" y="668" type="line"/>
      <point x="-98" y="750"/>
      <point x="-59" y="788"/>
      <point x="-2" y="788" type="curve"/>
      <point x="58" y="788"/>
      <point x="100" y="742"/>
      <point x="123" y="668" type="curve"/>
      <point x="170" y="668" type="line"/>
      <point x="148" y="790"/>
      <point x="90" y="854"/>
      <point x="-1" y="854" type="curve"/>
      <point x="-81" y="854"/>
      <point x="-142" y="800"/>
    </contour>
  </outline>
</glyph>
<glyph name="tonos" format="2">
  <advance width="300"/>
  <unicode hex="0384"/>
  <anchor x="150" y="535" name="_top"/>
  <anchor x="152" y="760" name="top"/>
  <outline>
    <contour>
      <point x="131" y="606" type="line"/>
      <point x="171" y="606" type="line"/>
      <point x="186" y="655"/>
      <point x="197" y="725"/>
      <point x="206" y="774" type="curve"/>
      <point x="206" y="782" type="line"/>
      <point x="146" y="782" type="line"/>
      <point x="144" y="750"/>
      <point x="136" y="645"/>
      <point x="131" y="614" type="curve"/>
    </contour>
  </outline>
</glyph>
<glyph name="dieresistonos" format="2">
  <advance width="300"/>
  <unicode hex="0385"/>
  <anchor x="150" y="535" name="_top"/>
  <anchor x="150" y="791" name="top"/>
  <outline>
    <contour>
      <point x="130" y="647" type="line"/>
      <point x="162" y="647" type="line"/>
      <point x="177" y="686"/>
      <point x="189" y="745"/>
      <point x="196" y="783" type="curve"/>
      <point x="196" y="791" type="line"/>
      <point x="142" y="791" type="line"/>
      <point x="141" y="756"/>
      <point x="136" y="697"/>
      <point x="130" y="655" type="curve"/>
    </contour>
    <contour>
      <point x="86" y="598" type="curve" smooth="yes"/>
      <point x="104" y="598"/>
      <point x="116" y="615"/>
      <point x="116" y="647" type="curve" smooth="yes"/>
      <point x="116" y="679"/>
      <point x="104" y="697"/>
      <point x="86" y="697" type="curve" smooth="yes"/>
      <point x="67" y="697"/>
      <point x="56" y="679"/>
      <point x="56" y="647" type="curve" smooth="yes"/>
      <point x="56" y="615"/>
      <point x="67" y="598"/>
    </contour>
    <contour>
      <point x="214" y="598" type="curve" smooth="yes"/>
      <point x="233" y="598"/>
      <point x="244" y="616"/>
      <point x="244" y="647" type="curve" smooth="yes"/>
      <point x="244" y="680"/>
      <point x="233" y="698"/>
      <point x="214" y="698" type="curve" smooth="yes"/>
      <point x="196" y="698"/>
      <point x="184" y="680"/>
      <point x="184" y="648" type="curve" smooth="yes"/>
      <point x="184" y="616"/>
      <point x="196" y="598"/>
    </contour>
  </outline>
</glyph>
<glyph name="Etatonos" format="2">
  <advance width="300"/>
  <unicode hex="0389"/>
  <anchor x="163" y="0" name="bottom"/>
  <anchor x="163" y="375" name="center"/>
  <anchor x="163" y="714" name="top"/>
  <anchor x="35" y="714" name="topleft"/>
  <outline>
    <contour>
      <point x="56" y="0" type="line"/>
      <point x="125" y="0" type="line"/>
      <point x="125" y="333" type="line"/>
      <point x="201" y="333" type="line"/>
      <point x="201" y="0" type="line"/>
      <point x="270" y="0" type="line"/>
      <point x="270" y="714" type="line"/>
      <point x="201" y="714" type="line"/>
      <point x="201" y="406" type="line"/>
      <point x="125" y="406" type="line"/>
      <point x="125" y="714" type="line"/>
      <point x="56" y="714" type="line"/>
    </contour>
    <component base="tonos" xOffset="-146"/>
  </outline>
</glyph>
<glyph name="Upsilontonos" format="2">
  <advance width="300"/>
  <unicode hex="038E"/>
  <anchor x="170" y="0" name="bottom"/>
  <anchor x="170" y="714" name="top"/>
  <outline>
    <contour>
      <point x="135" y="0" type="line"/>
      <point x="202" y="0" type="line"/>
      <point x="202" y="273" type="line"/>
      <point x="286" y="714" type="line"/>
      <point x="213" y="714" type="line"/>
      <point x="170" y="358" type="line"/>
      <point x="127" y="714" type="line"/>
      <point x="53" y="714" type="line"/>
      <point x="135" y="273" type="line"/>
    </contour>
    <component base="tonos" xOffset="-144"/>
  </outline>
</glyph>
<glyph name="Lambda" format="2">
  <advance width="300"/>
  <unicode hex="039B"/>
  <anchor x="150" y="0" name="bottom"/>
  <anchor x="150" y="714" name="top"/>
  <outline>
    <contour>
      <point x="15" y="0" type="line"/>
      <point x="88" y="0" type="line"/>
      <point x="138" y="510" type="line" smooth="yes"/>
      <point x="142" y="554"/>
      <point x="147" y="587"/>
      <point x="149" y="623" type="curve"/>
      <point x="152" y="587"/>
      <point x="157" y="555"/>
      <point x="162" y="510" type="curve" smooth="yes"/>
      <point x="212" y="0" type="line"/>
      <point x="284" y="0" type="line"/>
      <point x="189" y="714" type="line"/>
      <point x="110" y="714" type="line"/>
    </contour>
  </outline>
</glyph>
<glyph name="Sigma" format="2">
  <advance width="300"/>
  <unicode hex="03A3"/>
  <anchor x="150" y="0" name="bottom"/>
  <anchor x="150" y="714" name="top"/>
  <outline>
    <contour>
      <point x="41" y="0" type="line"/>
      <point x="264" y="0" type="line"/>
      <point x="264" y="71" type="line"/>
      <point x="162" y="71" type="line" smooth="yes"/>
      <point x="148" y="71"/>
      <point x="133" y="70"/>
      <point x="117" y="68" type="curve"/>
      <point x="208" y="372" type="line"/>
      <point x="124" y="646" type="line"/>
      <point x="134" y="645"/>
      <point x="149" y="644"/>
      <point x="166" y="644" type="curve" smooth="yes"/>
      <point x="252" y="644" type="line"/>
      <point x="252" y="714" type="line"/>
      <point x="46" y="714" type="line"/>
      <point x="46" y="651" type="line"/>
      <point x="132" y="372" type="line"/>
      <point x="41" y="65" type="line"/>
    </contour>
  </outline>
</glyph>
<glyph name="Phi" format="2">
  <advance width="300"/>
  <unicode hex="03A6"/>
  <anchor x="150" y="0" name="bottom"/>
  <anchor x="150" y="714" name="top"/>
  <outline>
    <contour>
      <point x="121" y="-10" type="line"/>
      <point x="179" y="-10" type="line"/>
      <point x="179" y="100" type="line"/>
      <point x="253" y="100"/>
      <point x="285" y="211"/>
      <point x="285" y="370" type="curve" smooth="yes"/>
      <point x="285" y="529"/>
      <point x="252" y="636"/>
      <point x="179" y="636" type="curve"/>
      <point x="179" y="724" type="line"/>
      <point x="121" y="724" type="line"/>
      <point x="121" y="636" type="line"/>
      <point x="46" y="636"/>
      <point x="14" y="523"/>
      <point x="14" y="373" type="curve" smooth="yes"/>
      <point x="14" y="209"/>
      <point x="44" y="100"/>
      <point x="121" y="100" type="curve"/>
    </contour>
    <contour>
      <point x="121" y="164" type="line"/>
      <point x="91" y="164"/>
      <point x="76" y="238"/>
      <point x="76" y="373" type="curve" smooth="yes"/>
      <point x="76" y="495"/>
      <point x="90" y="567"/>
      <point x="121" y="567" type="curve"/>
    </contour>
    <contour>
      <point x="179" y="164" type="curve"/>
      <point x="179" y="567" type="line"/>
      <point x="209" y="567"/>
      <point x="223" y="499"/>
      <point x="223" y="372" type="curve" smooth="yes"/>
      <point x="223" y="240"/>
      <point x="209" y="164"/>
    </contour>
  </outline>
</glyph>
<glyph name="Psi" format="2">
  <advance width="300"/>
  <unicode hex="03A8"/>
  <anchor x="150" y="0" name="bottom"/>
  <anchor x="150" y="714" name="top"/>
  <outline>
    <contour>
      <point x="122" y="0" type="line"/>
      <point x="177" y="0" type="line"/>
      <point x="177" y="212" type="line"/>
      <point x="252" y="216"/>
      <point x="283" y="308"/>
      <point x="283" y="475" type="curve" smooth="yes"/>
      <point x="283" y="714" type="line"/>
      <point x="222" y="714" type="line"/>
      <point x="222" y="480" type="line" smooth="yes"/>
      <point x="222" y="338"/>
      <point x="211" y="286"/>
      <point x="177" y="284" type="curve"/>
      <point x="177" y="714" type="line"/>
      <point x="122" y="714" type="line"/>
      <point x="122" y="284" type="line"/>
      <point x="86" y="285"/>
      <point x="77" y="363"/>
      <point x="77" y="480" type="curve" smooth="yes"/>
      <point x="77" y="714" type="line"/>
      <point x="16" y="714" type="line"/>
      <point x="16" y="466" type="line" smooth="yes"/>
      <point x="16" y="306"/>
      <point x="44" y="217"/>
      <point x="122" y="212" type="curve"/>
    </contour>
  </outline>
</glyph>
<glyph name="alpha" format="2">
  <advance width="300"/>
  <unicode hex="03B1"/>
  <anchor x="153" y="0" name="bottom"/>
  <anchor x="149" y="535" name="top"/>
  <outline>
    <contour>
      <point x="116" y="-10" type="curve" smooth="yes"/>
      <point x="148" y="-10"/>
      <point x="170" y="23"/>
      <point x="185" y="78" type="curve"/>
      <point x="189" y="78" type="line"/>
      <point x="198" y="17"/>
      <point x="217" y="-10"/>
      <point x="249" y="-10" type="curve" smooth="yes"/>
      <point x="264" y="-10"/>
      <point x="279" y="-6"/>
      <point x="282" y="-1" type="curve"/>
      <point x="282" y="60" type="line"/>
      <point x="278" y="57"/>
      <point x="272" y="55"/>
      <point x="268" y="55" type="curve" smooth="yes"/>
      <point x="253" y="55"/>
      <point x="246" y="76"/>
      <point x="246" y="128" type="curve" smooth="yes"/>
      <point x="246" y="350" type="line" smooth="yes"/>
      <point x="246" y="429"/>
      <point x="252" y="494"/>
      <point x="261" y="536" type="curve"/>
      <point x="207" y="536" type="line"/>
      <point x="201" y="516"/>
      <point x="195" y="485"/>
      <point x="191" y="458" type="curve"/>
      <point x="189" y="458" type="line"/>
      <point x="175" y="516"/>
      <point x="154" y="546"/>
      <point x="122" y="546" type="curve" smooth="yes"/>
      <point x="63" y="546"/>
      <point x="26" y="452"/>
      <point x="26" y="265" type="curve" smooth="yes"/>
      <point x="26" y="85"/>
      <point x="57" y="-10"/>
    </contour>
    <contour>
      <point x="136" y="56" type="curve" smooth="yes"/>
      <point x="105" y="56"/>
      <point x="91" y="126"/>
      <point x="91" y="261" type="curve" smooth="yes"/>
      <point x="91" y="408"/>
      <point x="105" y="479"/>
      <point x="137" y="479" type="curve" smooth="yes"/>
      <point x="168" y="479"/>
      <point x="184" y="410"/>
      <point x="184" y="270" type="curve" smooth="yes"/>
      <point x="184" y="255" type="line" smooth="yes"/>
      <point x="184" y="125"/>
      <point x="169" y="56"/>
    </contour>
  </outline>
</glyph>
<glyph name="delta" format="2">
  <advance width="300"/>
  <unicode hex="03B4"/>
  <anchor x="152" y="0" name="bottom"/>
  <anchor x="169" y="762" name="top"/>
  <outline>
    <contour>
      <point x="148" y="-10" type="curve" smooth="yes"/>
      <point x="229" y="-10"/>
      <point x="273" y="86"/>
      <point x="273" y="220" type="curve" smooth="yes"/>
      <point x="273" y="333"/>
      <point x="241" y="402"/>
      <point x="182" y="483" type="curve" smooth="yes"/>
      <point x="142" y="538"/>
      <point x="129" y="577"/>
      <point x="129" y="628" type="curve" smooth="yes"/>
      <point x="129" y="669"/>
      <point x="144" y="696"/>
      <point x="172" y="696" type="curve" smooth="yes"/>
      <point x="192" y="696"/>
      <point x="215" y="685"/>
      <point x="242" y="661" type="curve"/>
      <point x="265" y="724" type="line"/>
      <point x="236" y="746"/>
      <point x="204" y="762"/>
      <point x="169" y="762" type="curve" smooth="yes"/>
      <point x="105" y="762"/>
      <point x="64" y="714"/>
      <point x="64" y="627" type="curve" smooth="yes"/>
      <point x="64" y="562"/>
      <point x="84" y="513"/>
      <point x="119" y="456" type="curve"/>
      <point x="58" y="418"/>
      <point x="26" y="327"/>
      <point x="26" y="215" type="curve" smooth="yes"/>
      <point x="26" y="87"/>
      <point x="67" y="-10"/>
    </contour>
    <contour>
      <point x="149" y="56" type="curve" smooth="yes"/>
      <point x="114" y="56"/>
      <point x="93" y="130"/>
      <point x="93" y="216" type="curve" smooth="yes"/>
      <point x="93" y="306"/>
      <point x="116" y="384"/>
      <point x="153" y="416" type="curve"/>
      <point x="189" y="358"/>
      <point x="206" y="296"/>
      <point x="206" y="222" type="curve" smooth="yes"/>
      <point x="206" y="116"/>
      <point x="185" y="56"/>
    </contour>
  </outline>
</glyph>
<glyph name="epsilon" format="2">
  <advance width="300"/>
  <unicode hex="03B5"/>
  <anchor x="159" y="0" name="bottom"/>
  <anchor x="150" y="535" name="top"/>
  <outline>
    <contour>
      <point x="167" y="-10" type="curve" smooth="yes"/>
      <point x="202" y="-10"/>
      <point x="229" y="0"/>
      <point x="256" y="23" type="curve"/>
      <point x="256" y="92" type="line"/>
      <point x="227" y="71"/>
      <point x="202" y="57"/>
      <point x="175" y="57" type="curve" smooth="yes"/>
      <point x="134" y="57"/>
      <point x="110" y="90"/>
      <point x="110" y="153" type="curve" smooth="yes"/>
      <point x="110" y="214"/>
      <point x="132" y="251"/>
      <point x="185" y="251" type="curve" smooth="yes"/>
      <point x="213" y="251" type="line"/>
      <point x="213" y="312" type="line"/>
      <point x="190" y="312" type="line" smooth="yes"/>
      <point x="145" y="312"/>
      <point x="119" y="345"/>
      <point x="119" y="399" type="curve" smooth="yes"/>
      <point x="119" y="450"/>
      <point x="139" y="480"/>
      <point x="173" y="480" type="curve" smooth="yes"/>
      <point x="197" y="480"/>
      <point x="215" y="475"/>
      <point x="236" y="452" type="curve"/>
      <point x="258" y="512" type="line"/>
      <point x="227" y="535"/>
      <point x="200" y="546"/>
      <point x="169" y="546" type="curve" smooth="yes"/>
      <point x="102" y="546"/>
      <point x="56" y="493"/>
      <point x="56" y="406" type="curve" smooth="yes"/>
      <point x="56" y="349"/>
      <point x="81" y="305"/>
      <point x="104" y="287" type="curve"/>
      <point x="104" y="283" type="line"/>
      <point x="75" y="266"/>
      <point x="43" y="221"/>
      <point x="43" y="145" type="curve" smooth="yes"/>
      <point x="43" y="55"/>
      <point x="80" y="-10"/>
    </contour>
  </outline>
</glyph>
<glyph name="mu" format="2">
  <advance width="300"/>
  <unicode hex="03BC"/>
  <anchor x="150" y="-240" name="bottom"/>
  <anchor x="150" y="535" name="top"/>
  <anchor x="271" y="10" name="ogonek"/>
  <anchor x="288" y="535" name="topright"/>
  <outline>
    <contour>
      <point x="33" y="-240" type="line"/>
      <point x="103" y="-240" type="line"/>
      <point x="103" y="268" type="line"/>
      <point x="33" y="268" type="line"/>
    </contour>
    <component base="u" xOffset="10"/>
  </outline>
</glyph>
<glyph name="xi" format="2">
  <advance width="300"/>
  <unicode hex="03BE"/>
  <anchor x="168" y="-198" name="bottom"/>
  <anchor x="169" y="760" name="top"/>
  <outline>
    <contour>
      <point x="159" y="-198" type="curve"/>
      <point x="227" y="-198" type="line"/>
      <point x="245" y="-154"/>
      <point x="257" y="-104"/>
      <point x="257" y="-55" type="curve" smooth="yes"/>
      <point x="257" y="30"/>
      <point x="219" y="55"/>
      <point x="193" y="71" type="curve" smooth="yes"/>
      <point x="145" y="100"/>
      <point x="127" y="134"/>
      <point x="127" y="213" type="curve" smooth="yes"/>
      <point x="127" y="318"/>
      <point x="155" y="366"/>
      <point x="207" y="366" type="curve" smooth="yes"/>
      <point x="235" y="366" type="line"/>
      <point x="235" y="433" type="line"/>
      <point x="207" y="433" type="line" smooth="yes"/>
      <point x="161" y="433"/>
      <point x="138" y="480"/>
      <point x="138" y="551" type="curve" smooth="yes"/>
      <point x="138" y="660"/>
      <point x="174" y="696"/>
      <point x="225" y="696" type="curve" smooth="yes"/>
      <point x="249" y="696" type="line"/>
      <point x="249" y="760" type="line"/>
      <point x="73" y="760" type="line"/>
      <point x="73" y="694" type="line"/>
      <point x="96" y="694" type="line" smooth="yes"/>
      <point x="110" y="694"/>
      <point x="122" y="695"/>
      <point x="137" y="698" type="curve"/>
      <point x="100" y="678"/>
      <point x="73" y="636"/>
      <point x="73" y="548" type="curve" smooth="yes"/>
      <point x="73" y="470"/>
      <point x="93" y="413"/>
      <point x="135" y="402" type="curve"/>
      <point x="135" y="398" type="line"/>
      <point x="83" y="379"/>
      <point x="60" y="303"/>
      <point x="60" y="206" type="curve" smooth="yes"/>
      <point x="60" y="70"/>
      <point x="100" y="34"/>
      <point x="147" y="12" type="curve" smooth="yes"/>
      <point x="173" y="-1"/>
      <point x="191" y="-20"/>
      <point x="191" y="-69" type="curve" smooth="yes"/>
      <point x="191" y="-102"/>
      <point x="178" y="-152"/>
    </contour>
  </outline>
</glyph>
<glyph name="rho" format="2">
  <advance width="300"/>
  <unicode hex="03C1"/>
  <anchor x="150" y="-240" name="bottom"/>
  <anchor x="156" y="535" name="top"/>
  <outline>
    <contour>
      <point x="36" y="-240" type="line"/>
      <point x="102" y="-240" type="line"/>
      <point x="102" y="-96" type="line" smooth="yes"/>
      <point x="102" y="-57"/>
      <point x="101" y="-12"/>
      <point x="99" y="34" type="curve"/>
      <point x="102" y="34" type="line"/>
      <point x="121" y="7"/>
      <point x="142" y="-10"/>
      <point x="168" y="-10" type="curve" smooth="yes"/>
      <point x="243" y="-10"/>
      <point x="273" y="96"/>
      <point x="273" y="270" type="curve" smooth="yes"/>
      <point x="273" y="455"/>
      <point x="232" y="546"/>
      <point x="154" y="546" type="curve" smooth="yes"/>
      <point x="69" y="546"/>
      <point x="36" y="449"/>
      <point x="36" y="277" type="curve" smooth="yes"/>
    </contour>
    <contour>
      <point x="151" y="56" type="curve" smooth="yes"/>
      <point x="133" y="56"/>
      <point x="113" y="71"/>
      <point x="102" y="99" type="curve"/>
      <point x="102" y="285" type="line" smooth="yes"/>
      <point x="102" y="417"/>
      <point x="118" y="479"/>
      <point x="154" y="479" type="curve" smooth="yes"/>
      <point x="190" y="479"/>
      <point x="206" y="412"/>
      <point x="206" y="270" type="curve" smooth="yes"/>
      <point x="206" y="127"/>
      <point x="187" y="56"/>
    </contour>
  </outline>
</glyph>
<glyph name="upsilon" format="2">
  <advance width="300"/>
  <unicode hex="03C5"/>
  <anchor x="148" y="0" name="bottom"/>
  <anchor x="150" y="535" name="top"/>
  <outline>
    <contour>
      <point x="148" y="-9" type="curve" smooth="yes"/>
      <point x="228" y="-9"/>
      <point x="271" y="86"/>
      <point x="271" y="286" type="curve" smooth="yes"/>
      <point x="271" y="366"/>
      <point x="267" y="436"/>
      <point x="254" y="536" type="curve"/>
      <point x="189" y="536" type="line"/>
      <point x="200" y="440"/>
      <point x="205" y="350"/>
      <point x="205" y="278" type="curve" smooth="yes"/>
      <point x="205" y="126"/>
      <point x="188" y="59"/>
      <point x="150" y="59" type="curve" smooth="yes"/>
      <point x="115" y="59"/>
      <point x="102" y="124"/>
      <point x="102" y="222" type="curve" smooth="yes"/>
      <point x="102" y="536" type="line"/>
      <point x="36" y="536" type="line"/>
      <point x="36" y="213" type="line" smooth="yes"/>
      <point x="36" y="74"/>
      <point x="69" y="-9"/>
    </contour>
  </outline>
</glyph>
<glyph name="chi" format="2">
  <advance width="300"/>
  <unicode hex="03C7"/>
  <anchor x="154" y="-244" name="bottom"/>
  <anchor x="154" y="535" name="top"/>
  <anchor x="279" y="535" name="topright"/>
  <outline>
    <contour>
      <point x="246" y="-244" type="curve" smooth="yes"/>
      <point x="259" y="-244"/>
      <point x="270" y="-242"/>
      <point x="280" y="-237" type="curve"/>
      <point x="280" y="-173" type="line"/>
      <point x="273" y="-176"/>
      <point x="267" y="-178"/>
      <point x="259" y="-178" type="curve" smooth="yes"/>
      <point x="239" y="-178"/>
      <point x="231" y="-157"/>
      <point x="221" y="-89" type="curve" smooth="yes"/>
      <point x="184" y="159" type="line"/>
      <point x="276" y="535" type="line"/>
      <point x="211" y="535" type="line"/>
      <point x="159" y="254" type="line"/>
      <point x="140" y="425" type="line" smooth="yes"/>
      <point x="131" y="510"/>
      <point x="111" y="543"/>
      <point x="69" y="543" type="curve" smooth="yes"/>
      <point x="55" y="543"/>
      <point x="41" y="540"/>
      <point x="33" y="536" type="curve"/>
      <point x="33" y="472" type="line"/>
      <point x="38" y="475"/>
      <point x="46" y="477"/>
      <point x="54" y="477" type="curve" smooth="yes"/>
      <point x="71" y="477"/>
      <point x="80" y="452"/>
      <point x="88" y="401" type="curve" smooth="yes"/>
      <point x="124" y="171" type="line"/>
      <point x="22" y="-240" type="line"/>
      <point x="88" y="-240" type="line"/>
      <point x="148" y="78" type="line"/>
      <point x="171" y="-119" type="line" smooth="yes"/>
      <point x="182" y="-210"/>
      <point x="205" y="-244"/>
    </contour>
  </outline>
</glyph>
<glyph name="psi" format="2">
  <advance width="300"/>
  <unicode hex="03C8"/>
  <anchor x="150" y="-240" name="bottom"/>
  <anchor x="150" y="760" name="top"/>
  <outline>
    <contour>
      <point x="127" y="-240" type="line"/>
      <point x="178" y="-240" type="line"/>
      <point x="178" y="-9" type="line"/>
      <point x="248" y="-2"/>
      <point x="273" y="101"/>
      <point x="273" y="287" type="curve" smooth="yes"/>
      <point x="273" y="368"/>
      <point x="267" y="445"/>
      <point x="253" y="536" type="curve"/>
      <point x="199" y="536" type="line"/>
      <point x="212" y="451"/>
      <point x="218" y="373"/>
      <point x="218" y="284" type="curve" smooth="yes"/>
      <point x="218" y="136"/>
      <point x="207" y="70"/>
      <point x="178" y="64" type="curve"/>
      <point x="178" y="760" type="line"/>
      <point x="127" y="760" type="line"/>
      <point x="127" y="64" type="line"/>
      <point x="100" y="71"/>
      <point x="90" y="134"/>
      <point x="90" y="256" type="curve" smooth="yes"/>
      <point x="90" y="536" type="line"/>
      <point x="36" y="536" type="line"/>
      <point x="36" y="246" type="line" smooth="yes"/>
      <point x="36" y="82"/>
      <point x="60" y="0"/>
      <point x="127" y="-9" type="curve"/>
    </contour>
  </outline>
</glyph>
<glyph name="omega" format="2">
  <advance width="300"/>
  <unicode hex="03C9"/>
  <anchor x="149" y="0" name="bottom"/>
  <anchor x="149" y="535" name="top"/>
  <outline>
    <contour>
      <point x="97" y="-10" type="curve" smooth="yes"/>
      <point x="127" y="-10"/>
      <point x="142" y="24"/>
      <point x="149" y="82" type="curve"/>
      <point x="150" y="82" type="line"/>
      <point x="157" y="24"/>
      <point x="173" y="-10"/>
      <point x="201" y="-10" type="curve" smooth="yes"/>
      <point x="250" y="-10"/>
      <point x="273" y="90"/>
      <point x="273" y="258" type="curve" smooth="yes"/>
      <point x="273" y="357"/>
      <point x="266" y="444"/>
      <point x="246" y="536" type="curve"/>
      <point x="187" y="536" type="line"/>
      <point x="209" y="449"/>
      <point x="215" y="356"/>
      <point x="215" y="258" type="curve" smooth="yes"/>
      <point x="215" y="128"/>
      <point x="210" y="60"/>
      <point x="194" y="60" type="curve" smooth="yes"/>
      <point x="180" y="60"/>
      <point x="175" y="110"/>
      <point x="175" y="211" type="curve" smooth="yes"/>
      <point x="175" y="347" type="line"/>
      <point x="124" y="347" type="line"/>
      <point x="124" y="211" type="line" smooth="yes"/>
      <point x="124" y="111"/>
      <point x="118" y="60"/>
      <point x="104" y="60" type="curve" smooth="yes"/>
      <point x="88" y="60"/>
      <point x="84" y="126"/>
      <point x="84" y="259" type="curve" smooth="yes"/>
      <point x="84" y="359"/>
      <point x="91" y="449"/>
      <point x="111" y="536" type="curve"/>
      <point x="53" y="536" type="line"/>
      <point x="34" y="442"/>
      <point x="26" y="359"/>
      <point x="26" y="258" type="curve" smooth="yes"/>
      <point x="26" y="86"/>
      <point x="49" y="-10"/>
    </contour>
  </outline>
</glyph>
<glyph name="uni03D9" format="2">
  <advance width="300"/>
  <unicode hex="03D9"/>
  <anchor x="150" y="-240" name="bottom"/>
  <anchor x="150" y="535" name="top"/>
  <anchor x="161" y="10" name="ogonek"/>
  <anchor x="296" y="535" name="topright"/>
  <anchor x="159" y="268" name="center"/>
  <outline>
    <contour>
      <point x="119" y="-240" type="line"/>
      <point x="182" y="-240" type="line"/>
      <point x="182" y="-6" type="line"/>
      <point x="119" y="-6" type="line"/>
    </contour>
    <component base="o" xOffset="10"/>
  </outline>
</glyph>
